<?xml version="1.0" encoding="utf-8" standalone="no"?>
<!DOCTYPE svg PUBLIC "-//W3C//DTD SVG 1.1//EN"
  "http://www.w3.org/Graphics/SVG/1.1/DTD/svg11.dtd">
<!-- Created with matplotlib (http://matplotlib.org/) -->
<svg height="432pt" version="1.1" viewBox="0 0 576 432" width="576pt" xmlns="http://www.w3.org/2000/svg" xmlns:xlink="http://www.w3.org/1999/xlink">
 <defs>
  <style type="text/css">
*{stroke-linecap:butt;stroke-linejoin:round;stroke-miterlimit:100000;}
  </style>
 </defs>
 <g id="figure_1">
  <g id="patch_1">
   <path d="M 0 432 
L 576 432 
L 576 0 
L 0 0 
L 0 432 
z
" style="fill:none;"/>
  </g>
  <g id="axes_1">
   <g id="line2d_1">
    <path clip-path="url(#pf0f0d1f7c7)" d="M 272.88 354.50464 
L 271.076364 351.986665 
L 269.272727 349.477219 
L 267.469091 346.976756 
L 265.665455 344.485765 
L 263.861818 342.004765 
L 262.058182 339.534314 
L 260.254545 337.075008 
L 258.450909 334.627488 
L 256.647273 332.192439 
L 254.843636 329.770598 
L 253.04 327.362755 
L 251.236364 324.969762 
L 249.432727 322.592533 
L 247.629091 320.232053 
L 245.825455 317.889382 
L 244.021818 315.565664 
L 242.218182 313.262131 
L 240.414545 310.980112 
L 238.610909 308.721043 
L 236.807273 306.486472 
L 235.003636 304.278071 
L 233.2 302.097646 
L 231.396364 299.947147 
L 229.592727 297.828676 
L 227.789091 295.744503 
L 225.985455 293.697077 
L 224.181818 291.689033 
L 222.378182 289.723206 
L 220.574545 287.802644 
L 218.770909 285.930611 
L 216.967273 284.110599 
L 215.163636 282.346332 
L 213.36 280.641767 
L 211.556364 279.00109 
L 209.752727 277.428706 
L 207.949091 275.929227 
L 206.145455 274.507446 
L 204.341818 273.168299 
L 202.538182 271.91683 
L 200.734545 270.758127 
L 198.930909 269.697257 
L 197.127273 268.739188 
L 195.323636 267.8887 
L 193.52 267.150287 
L 191.716364 266.528054 
L 189.912727 266.025619 
L 188.109091 265.646013 
L 186.305455 265.391592 
L 184.501818 265.263972 
L 182.698182 265.263972 
L 180.894545 265.391592 
L 179.090909 265.646013 
L 177.287273 266.025619 
L 175.483636 266.528054 
L 173.68 267.150287 
L 171.876364 267.8887 
L 170.072727 268.739188 
L 168.269091 269.697257 
L 166.465455 270.758127 
L 164.661818 271.91683 
L 162.858182 273.168299 
L 161.054545 274.507446 
L 159.250909 275.929227 
L 157.447273 277.428706 
L 155.643636 279.00109 
L 153.84 280.641767 
L 152.036364 282.346332 
L 150.232727 284.110599 
L 148.429091 285.930611 
L 146.625455 287.802644 
L 144.821818 289.723206 
L 143.018182 291.689033 
L 141.214545 293.697077 
L 139.410909 295.744503 
L 137.607273 297.828676 
L 135.803636 299.947147 
L 134 302.097646 
L 132.196364 304.278071 
L 130.392727 306.486472 
L 128.589091 308.721043 
L 126.785455 310.980112 
L 124.981818 313.262131 
L 123.178182 315.565664 
L 121.374545 317.889382 
L 119.570909 320.232053 
L 117.767273 322.592533 
L 115.963636 324.969762 
L 114.16 327.362755 
L 112.356364 329.770598 
L 110.552727 332.192439 
L 108.749091 334.627488 
L 106.945455 337.075008 
L 105.141818 339.534314 
L 103.338182 342.004765 
L 101.534545 344.485765 
L 99.730909 346.976756 
L 97.927273 349.477219 
L 96.123636 351.986665 
L 94.32 354.50464 
" style="fill:none;stroke:#000000;stroke-linecap:square;"/>
   </g>
   <g id="line2d_2">
    <path clip-path="url(#pf0f0d1f7c7)" d="M 272.88 383.358136 
L 271.076364 380.986087 
L 269.272727 378.626722 
L 267.469091 376.280638 
L 265.665455 373.948466 
L 263.861818 371.630876 
L 262.058182 369.328573 
L 260.254545 367.042306 
L 258.450909 364.772867 
L 256.647273 362.521096 
L 254.843636 360.28788 
L 253.04 358.07416 
L 251.236364 355.880933 
L 249.432727 353.709253 
L 247.629091 351.56024 
L 245.825455 349.435074 
L 244.021818 347.33501 
L 242.218182 345.261373 
L 240.414545 343.215563 
L 238.610909 341.199063 
L 236.807273 339.213439 
L 235.003636 337.260342 
L 233.2 335.341514 
L 231.396364 333.458791 
L 229.592727 331.614101 
L 227.789091 329.809471 
L 225.985455 328.047025 
L 224.181818 326.328985 
L 222.378182 324.65767 
L 220.574545 323.035491 
L 218.770909 321.464952 
L 216.967273 319.948642 
L 215.163636 318.489225 
L 213.36 317.089435 
L 211.556364 315.752058 
L 209.752727 314.479924 
L 207.949091 313.275884 
L 206.145455 312.142789 
L 204.341818 311.083474 
L 202.538182 310.100723 
L 200.734545 309.197248 
L 198.930909 308.375655 
L 197.127273 307.638414 
L 195.323636 306.987828 
L 193.52 306.425998 
L 191.716364 305.954792 
L 189.912727 305.575821 
L 188.109091 305.290404 
L 186.305455 305.099555 
L 184.501818 305.003958 
L 182.698182 305.003958 
L 180.894545 305.099555 
L 179.090909 305.290404 
L 177.287273 305.575821 
L 175.483636 305.954792 
L 173.68 306.425998 
L 171.876364 306.987828 
L 170.072727 307.638414 
L 168.269091 308.375655 
L 166.465455 309.197248 
L 164.661818 310.100723 
L 162.858182 311.083474 
L 161.054545 312.142789 
L 159.250909 313.275884 
L 157.447273 314.479924 
L 155.643636 315.752058 
L 153.84 317.089435 
L 152.036364 318.489225 
L 150.232727 319.948642 
L 148.429091 321.464952 
L 146.625455 323.035491 
L 144.821818 324.65767 
L 143.018182 326.328985 
L 141.214545 328.047025 
L 139.410909 329.809471 
L 137.607273 331.614101 
L 135.803636 333.458791 
L 134 335.341514 
L 132.196364 337.260342 
L 130.392727 339.213439 
L 128.589091 341.199063 
L 126.785455 343.215563 
L 124.981818 345.261373 
L 123.178182 347.33501 
L 121.374545 349.435074 
L 119.570909 351.56024 
L 117.767273 353.709253 
L 115.963636 355.880933 
L 114.16 358.07416 
L 112.356364 360.28788 
L 110.552727 362.521096 
L 108.749091 364.772867 
L 106.945455 367.042306 
L 105.141818 369.328573 
L 103.338182 371.630876 
L 101.534545 373.948466 
L 99.730909 376.280638 
L 97.927273 378.626722 
L 96.123636 380.986087 
L 94.32 383.358136 
" style="fill:none;stroke:#000000;stroke-linecap:square;"/>
   </g>
   <g id="line2d_3">
    <path clip-path="url(#pf0f0d1f7c7)" d="M 317.52 383.358136 
L 319.323636 380.986087 
L 321.127273 378.626722 
L 322.930909 376.280638 
L 324.734545 373.948466 
L 326.538182 371.630876 
L 328.341818 369.328573 
L 330.145455 367.042306 
L 331.949091 364.772867 
L 333.752727 362.521096 
L 335.556364 360.28788 
L 337.36 358.07416 
L 339.163636 355.880933 
L 340.967273 353.709253 
L 342.770909 351.56024 
L 344.574545 349.435074 
L 346.378182 347.33501 
L 348.181818 345.261373 
L 349.985455 343.215563 
L 351.789091 341.199063 
L 353.592727 339.213439 
L 355.396364 337.260342 
L 357.2 335.341514 
L 359.003636 333.458791 
L 360.807273 331.614101 
L 362.610909 329.809471 
L 364.414545 328.047025 
L 366.218182 326.328985 
L 368.021818 324.65767 
L 369.825455 323.035491 
L 371.629091 321.464952 
L 373.432727 319.948642 
L 375.236364 318.489225 
L 377.04 317.089435 
L 378.843636 315.752058 
L 380.647273 314.479924 
L 382.450909 313.275884 
L 384.254545 312.142789 
L 386.058182 311.083474 
L 387.861818 310.100723 
L 389.665455 309.197248 
L 391.469091 308.375655 
L 393.272727 307.638414 
L 395.076364 306.987828 
L 396.88 306.425998 
L 398.683636 305.954792 
L 400.487273 305.575821 
L 402.290909 305.290404 
L 404.094545 305.099555 
L 405.898182 305.003958 
L 407.701818 305.003958 
L 409.505455 305.099555 
L 411.309091 305.290404 
L 413.112727 305.575821 
L 414.916364 305.954792 
L 416.72 306.425998 
L 418.523636 306.987828 
L 420.327273 307.638414 
L 422.130909 308.375655 
L 423.934545 309.197248 
L 425.738182 310.100723 
L 427.541818 311.083474 
L 429.345455 312.142789 
L 431.149091 313.275884 
L 432.952727 314.479924 
L 434.756364 315.752058 
L 436.56 317.089435 
L 438.363636 318.489225 
L 440.167273 319.948642 
L 441.970909 321.464952 
L 443.774545 323.035491 
L 445.578182 324.65767 
L 447.381818 326.328985 
L 449.185455 328.047025 
L 450.989091 329.809471 
L 452.792727 331.614101 
L 454.596364 333.458791 
L 456.4 335.341514 
L 458.203636 337.260342 
L 460.007273 339.213439 
L 461.810909 341.199063 
L 463.614545 343.215563 
L 465.418182 345.261373 
L 467.221818 347.33501 
L 469.025455 349.435074 
L 470.829091 351.56024 
L 472.632727 353.709253 
L 474.436364 355.880933 
L 476.24 358.07416 
L 478.043636 360.28788 
L 479.847273 362.521096 
L 481.650909 364.772867 
L 483.454545 367.042306 
L 485.258182 369.328573 
L 487.061818 371.630876 
L 488.865455 373.948466 
L 490.669091 376.280638 
L 492.472727 378.626722 
L 494.276364 380.986087 
L 496.08 383.358136 
" style="fill:none;stroke:#000000;stroke-linecap:square;"/>
   </g>
   <g id="line2d_4">
    <path clip-path="url(#pf0f0d1f7c7)" d="M 317.52 354.50464 
L 319.323636 351.986665 
L 321.127273 349.477219 
L 322.930909 346.976756 
L 324.734545 344.485765 
L 326.538182 342.004765 
L 328.341818 339.534314 
L 330.145455 337.075008 
L 331.949091 334.627488 
L 333.752727 332.192439 
L 335.556364 329.770598 
L 337.36 327.362755 
L 339.163636 324.969762 
L 340.967273 322.592533 
L 342.770909 320.232053 
L 344.574545 317.889382 
L 346.378182 315.565664 
L 348.181818 313.262131 
L 349.985455 310.980112 
L 351.789091 308.721043 
L 353.592727 306.486472 
L 355.396364 304.278071 
L 357.2 302.097646 
L 359.003636 299.947147 
L 360.807273 297.828676 
L 362.610909 295.744503 
L 364.414545 293.697077 
L 366.218182 291.689033 
L 368.021818 289.723206 
L 369.825455 287.802644 
L 371.629091 285.930611 
L 373.432727 284.110599 
L 375.236364 282.346332 
L 377.04 280.641767 
L 378.843636 279.00109 
L 380.647273 277.428706 
L 382.450909 275.929227 
L 384.254545 274.507446 
L 386.058182 273.168299 
L 387.861818 271.91683 
L 389.665455 270.758127 
L 391.469091 269.697257 
L 393.272727 268.739188 
L 395.076364 267.8887 
L 396.88 267.150287 
L 398.683636 266.528054 
L 400.487273 266.025619 
L 402.290909 265.646013 
L 404.094545 265.391592 
L 405.898182 265.263972 
L 407.701818 265.263972 
L 409.505455 265.391592 
L 411.309091 265.646013 
L 413.112727 266.025619 
L 414.916364 266.528054 
L 416.72 267.150287 
L 418.523636 267.8887 
L 420.327273 268.739188 
L 422.130909 269.697257 
L 423.934545 270.758127 
L 425.738182 271.91683 
L 427.541818 273.168299 
L 429.345455 274.507446 
L 431.149091 275.929227 
L 432.952727 277.428706 
L 434.756364 279.00109 
L 436.56 280.641767 
L 438.363636 282.346332 
L 440.167273 284.110599 
L 441.970909 285.930611 
L 443.774545 287.802644 
L 445.578182 289.723206 
L 447.381818 291.689033 
L 449.185455 293.697077 
L 450.989091 295.744503 
L 452.792727 297.828676 
L 454.596364 299.947147 
L 456.4 302.097646 
L 458.203636 304.278071 
L 460.007273 306.486472 
L 461.810909 308.721043 
L 463.614545 310.980112 
L 465.418182 313.262131 
L 467.221818 315.565664 
L 469.025455 317.889382 
L 470.829091 320.232053 
L 472.632727 322.592533 
L 474.436364 324.969762 
L 476.24 327.362755 
L 478.043636 329.770598 
L 479.847273 332.192439 
L 481.650909 334.627488 
L 483.454545 337.075008 
L 485.258182 339.534314 
L 487.061818 342.004765 
L 488.865455 344.485765 
L 490.669091 346.976756 
L 492.472727 349.477219 
L 494.276364 351.986665 
L 496.08 354.50464 
" style="fill:none;stroke:#000000;stroke-linecap:square;"/>
   </g>
   <g id="line2d_5">
    <path clip-path="url(#pf0f0d1f7c7)" d="M 272.88 57.62336 
L 271.076364 60.141335 
L 269.272727 62.650781 
L 267.469091 65.151244 
L 265.665455 67.642235 
L 263.861818 70.123235 
L 262.058182 72.593686 
L 260.254545 75.052992 
L 258.450909 77.500512 
L 256.647273 79.935561 
L 254.843636 82.357402 
L 253.04 84.765245 
L 251.236364 87.158238 
L 249.432727 89.535467 
L 247.629091 91.895947 
L 245.825455 94.238618 
L 244.021818 96.562336 
L 242.218182 98.865869 
L 240.414545 101.147888 
L 238.610909 103.406957 
L 236.807273 105.641528 
L 235.003636 107.849929 
L 233.2 110.030354 
L 231.396364 112.180853 
L 229.592727 114.299324 
L 227.789091 116.383497 
L 225.985455 118.430923 
L 224.181818 120.438967 
L 222.378182 122.404794 
L 220.574545 124.325356 
L 218.770909 126.197389 
L 216.967273 128.017401 
L 215.163636 129.781668 
L 213.36 131.486233 
L 211.556364 133.12691 
L 209.752727 134.699294 
L 207.949091 136.198773 
L 206.145455 137.620554 
L 204.341818 138.959701 
L 202.538182 140.21117 
L 200.734545 141.369873 
L 198.930909 142.430743 
L 197.127273 143.388812 
L 195.323636 144.2393 
L 193.52 144.977713 
L 191.716364 145.599946 
L 189.912727 146.102381 
L 188.109091 146.481987 
L 186.305455 146.736408 
L 184.501818 146.864028 
L 182.698182 146.864028 
L 180.894545 146.736408 
L 179.090909 146.481987 
L 177.287273 146.102381 
L 175.483636 145.599946 
L 173.68 144.977713 
L 171.876364 144.2393 
L 170.072727 143.388812 
L 168.269091 142.430743 
L 166.465455 141.369873 
L 164.661818 140.21117 
L 162.858182 138.959701 
L 161.054545 137.620554 
L 159.250909 136.198773 
L 157.447273 134.699294 
L 155.643636 133.12691 
L 153.84 131.486233 
L 152.036364 129.781668 
L 150.232727 128.017401 
L 148.429091 126.197389 
L 146.625455 124.325356 
L 144.821818 122.404794 
L 143.018182 120.438967 
L 141.214545 118.430923 
L 139.410909 116.383497 
L 137.607273 114.299324 
L 135.803636 112.180853 
L 134 110.030354 
L 132.196364 107.849929 
L 130.392727 105.641528 
L 128.589091 103.406957 
L 126.785455 101.147888 
L 124.981818 98.865869 
L 123.178182 96.562336 
L 121.374545 94.238618 
L 119.570909 91.895947 
L 117.767273 89.535467 
L 115.963636 87.158238 
L 114.16 84.765245 
L 112.356364 82.357402 
L 110.552727 79.935561 
L 108.749091 77.500512 
L 106.945455 75.052992 
L 105.141818 72.593686 
L 103.338182 70.123235 
L 101.534545 67.642235 
L 99.730909 65.151244 
L 97.927273 62.650781 
L 96.123636 60.141335 
L 94.32 57.62336 
" style="fill:none;stroke:#000000;stroke-linecap:square;"/>
   </g>
   <g id="line2d_6">
    <path clip-path="url(#pf0f0d1f7c7)" d="M 272.88 68.513864 
L 271.076364 70.885913 
L 269.272727 73.245278 
L 267.469091 75.591362 
L 265.665455 77.923534 
L 263.861818 80.241124 
L 262.058182 82.543427 
L 260.254545 84.829694 
L 258.450909 87.099133 
L 256.647273 89.350904 
L 254.843636 91.58412 
L 253.04 93.79784 
L 251.236364 95.991067 
L 249.432727 98.162747 
L 247.629091 100.31176 
L 245.825455 102.436926 
L 244.021818 104.53699 
L 242.218182 106.610627 
L 240.414545 108.656437 
L 238.610909 110.672937 
L 236.807273 112.658561 
L 235.003636 114.611658 
L 233.2 116.530486 
L 231.396364 118.413209 
L 229.592727 120.257899 
L 227.789091 122.062529 
L 225.985455 123.824975 
L 224.181818 125.543015 
L 222.378182 127.21433 
L 220.574545 128.836509 
L 218.770909 130.407048 
L 216.967273 131.923358 
L 215.163636 133.382775 
L 213.36 134.782565 
L 211.556364 136.119942 
L 209.752727 137.392076 
L 207.949091 138.596116 
L 206.145455 139.729211 
L 204.341818 140.788526 
L 202.538182 141.771277 
L 200.734545 142.674752 
L 198.930909 143.496345 
L 197.127273 144.233586 
L 195.323636 144.884172 
L 193.52 145.446002 
L 191.716364 145.917208 
L 189.912727 146.296179 
L 188.109091 146.581596 
L 186.305455 146.772445 
L 184.501818 146.868042 
L 182.698182 146.868042 
L 180.894545 146.772445 
L 179.090909 146.581596 
L 177.287273 146.296179 
L 175.483636 145.917208 
L 173.68 145.446002 
L 171.876364 144.884172 
L 170.072727 144.233586 
L 168.269091 143.496345 
L 166.465455 142.674752 
L 164.661818 141.771277 
L 162.858182 140.788526 
L 161.054545 139.729211 
L 159.250909 138.596116 
L 157.447273 137.392076 
L 155.643636 136.119942 
L 153.84 134.782565 
L 152.036364 133.382775 
L 150.232727 131.923358 
L 148.429091 130.407048 
L 146.625455 128.836509 
L 144.821818 127.21433 
L 143.018182 125.543015 
L 141.214545 123.824975 
L 139.410909 122.062529 
L 137.607273 120.257899 
L 135.803636 118.413209 
L 134 116.530486 
L 132.196364 114.611658 
L 130.392727 112.658561 
L 128.589091 110.672937 
L 126.785455 108.656437 
L 124.981818 106.610627 
L 123.178182 104.53699 
L 121.374545 102.436926 
L 119.570909 100.31176 
L 117.767273 98.162747 
L 115.963636 95.991067 
L 114.16 93.79784 
L 112.356364 91.58412 
L 110.552727 89.350904 
L 108.749091 87.099133 
L 106.945455 84.829694 
L 105.141818 82.543427 
L 103.338182 80.241124 
L 101.534545 77.923534 
L 99.730909 75.591362 
L 97.927273 73.245278 
L 96.123636 70.885913 
L 94.32 68.513864 
" style="fill:none;stroke:#000000;stroke-linecap:square;"/>
   </g>
   <g id="line2d_7">
    <path clip-path="url(#pf0f0d1f7c7)" d="M 317.52 68.513864 
L 319.323636 70.885913 
L 321.127273 73.245278 
L 322.930909 75.591362 
L 324.734545 77.923534 
L 326.538182 80.241124 
L 328.341818 82.543427 
L 330.145455 84.829694 
L 331.949091 87.099133 
L 333.752727 89.350904 
L 335.556364 91.58412 
L 337.36 93.79784 
L 339.163636 95.991067 
L 340.967273 98.162747 
L 342.770909 100.31176 
L 344.574545 102.436926 
L 346.378182 104.53699 
L 348.181818 106.610627 
L 349.985455 108.656437 
L 351.789091 110.672937 
L 353.592727 112.658561 
L 355.396364 114.611658 
L 357.2 116.530486 
L 359.003636 118.413209 
L 360.807273 120.257899 
L 362.610909 122.062529 
L 364.414545 123.824975 
L 366.218182 125.543015 
L 368.021818 127.21433 
L 369.825455 128.836509 
L 371.629091 130.407048 
L 373.432727 131.923358 
L 375.236364 133.382775 
L 377.04 134.782565 
L 378.843636 136.119942 
L 380.647273 137.392076 
L 382.450909 138.596116 
L 384.254545 139.729211 
L 386.058182 140.788526 
L 387.861818 141.771277 
L 389.665455 142.674752 
L 391.469091 143.496345 
L 393.272727 144.233586 
L 395.076364 144.884172 
L 396.88 145.446002 
L 398.683636 145.917208 
L 400.487273 146.296179 
L 402.290909 146.581596 
L 404.094545 146.772445 
L 405.898182 146.868042 
L 407.701818 146.868042 
L 409.505455 146.772445 
L 411.309091 146.581596 
L 413.112727 146.296179 
L 414.916364 145.917208 
L 416.72 145.446002 
L 418.523636 144.884172 
L 420.327273 144.233586 
L 422.130909 143.496345 
L 423.934545 142.674752 
L 425.738182 141.771277 
L 427.541818 140.788526 
L 429.345455 139.729211 
L 431.149091 138.596116 
L 432.952727 137.392076 
L 434.756364 136.119942 
L 436.56 134.782565 
L 438.363636 133.382775 
L 440.167273 131.923358 
L 441.970909 130.407048 
L 443.774545 128.836509 
L 445.578182 127.21433 
L 447.381818 125.543015 
L 449.185455 123.824975 
L 450.989091 122.062529 
L 452.792727 120.257899 
L 454.596364 118.413209 
L 456.4 116.530486 
L 458.203636 114.611658 
L 460.007273 112.658561 
L 461.810909 110.672937 
L 463.614545 108.656437 
L 465.418182 106.610627 
L 467.221818 104.53699 
L 469.025455 102.436926 
L 470.829091 100.31176 
L 472.632727 98.162747 
L 474.436364 95.991067 
L 476.24 93.79784 
L 478.043636 91.58412 
L 479.847273 89.350904 
L 481.650909 87.099133 
L 483.454545 84.829694 
L 485.258182 82.543427 
L 487.061818 80.241124 
L 488.865455 77.923534 
L 490.669091 75.591362 
L 492.472727 73.245278 
L 494.276364 70.885913 
L 496.08 68.513864 
" style="fill:none;stroke:#000000;stroke-linecap:square;"/>
   </g>
   <g id="line2d_8">
    <path clip-path="url(#pf0f0d1f7c7)" d="M 317.52 57.62336 
L 319.323636 60.141335 
L 321.127273 62.650781 
L 322.930909 65.151244 
L 324.734545 67.642235 
L 326.538182 70.123235 
L 328.341818 72.593686 
L 330.145455 75.052992 
L 331.949091 77.500512 
L 333.752727 79.935561 
L 335.556364 82.357402 
L 337.36 84.765245 
L 339.163636 87.158238 
L 340.967273 89.535467 
L 342.770909 91.895947 
L 344.574545 94.238618 
L 346.378182 96.562336 
L 348.181818 98.865869 
L 349.985455 101.147888 
L 351.789091 103.406957 
L 353.592727 105.641528 
L 355.396364 107.849929 
L 357.2 110.030354 
L 359.003636 112.180853 
L 360.807273 114.299324 
L 362.610909 116.383497 
L 364.414545 118.430923 
L 366.218182 120.438967 
L 368.021818 122.404794 
L 369.825455 124.325356 
L 371.629091 126.197389 
L 373.432727 128.017401 
L 375.236364 129.781668 
L 377.04 131.486233 
L 378.843636 133.12691 
L 380.647273 134.699294 
L 382.450909 136.198773 
L 384.254545 137.620554 
L 386.058182 138.959701 
L 387.861818 140.21117 
L 389.665455 141.369873 
L 391.469091 142.430743 
L 393.272727 143.388812 
L 395.076364 144.2393 
L 396.88 144.977713 
L 398.683636 145.599946 
L 400.487273 146.102381 
L 402.290909 146.481987 
L 404.094545 146.736408 
L 405.898182 146.864028 
L 407.701818 146.864028 
L 409.505455 146.736408 
L 411.309091 146.481987 
L 413.112727 146.102381 
L 414.916364 145.599946 
L 416.72 144.977713 
L 418.523636 144.2393 
L 420.327273 143.388812 
L 422.130909 142.430743 
L 423.934545 141.369873 
L 425.738182 140.21117 
L 427.541818 138.959701 
L 429.345455 137.620554 
L 431.149091 136.198773 
L 432.952727 134.699294 
L 434.756364 133.12691 
L 436.56 131.486233 
L 438.363636 129.781668 
L 440.167273 128.017401 
L 441.970909 126.197389 
L 443.774545 124.325356 
L 445.578182 122.404794 
L 447.381818 120.438967 
L 449.185455 118.430923 
L 450.989091 116.383497 
L 452.792727 114.299324 
L 454.596364 112.180853 
L 456.4 110.030354 
L 458.203636 107.849929 
L 460.007273 105.641528 
L 461.810909 103.406957 
L 463.614545 101.147888 
L 465.418182 98.865869 
L 467.221818 96.562336 
L 469.025455 94.238618 
L 470.829091 91.895947 
L 472.632727 89.535467 
L 474.436364 87.158238 
L 476.24 84.765245 
L 478.043636 82.357402 
L 479.847273 79.935561 
L 481.650909 77.500512 
L 483.454545 75.052992 
L 485.258182 72.593686 
L 487.061818 70.123235 
L 488.865455 67.642235 
L 490.669091 65.151244 
L 492.472727 62.650781 
L 494.276364 60.141335 
L 496.08 57.62336 
" style="fill:none;stroke:#000000;stroke-linecap:square;"/>
   </g>
   <g id="line2d_9">
    <path clip-path="url(#pf0f0d1f7c7)" d="M 72 285.12 
L 518.4 285.12 
" style="fill:none;stroke:#000000;stroke-dasharray:6.000000,6.000000;stroke-dashoffset:0.0;"/>
   </g>
   <g id="line2d_10">
    <path clip-path="url(#pf0f0d1f7c7)" d="M 72 216 
L 518.4 216 
" style="fill:none;stroke:#808080;stroke-linecap:square;stroke-width:0.5;"/>
   </g>
   <g id="line2d_11">
    <path clip-path="url(#pf0f0d1f7c7)" d="M 295.2 388.8 
L 295.2 43.2 
" style="fill:none;stroke:#808080;stroke-linecap:square;stroke-width:0.5;"/>
   </g>
   <g id="text_1">
    <!-- $\mu$ -->
    <defs>
     <path d="M 2.78125 -18.796875 
Q 2.78125 -18.21875 2.875 -18.015625 
L 17.578125 41.015625 
Q 18.015625 42.4375 19.15625 43.3125 
Q 20.3125 44.1875 21.78125 44.1875 
Q 23.046875 44.1875 23.921875 43.421875 
Q 24.8125 42.671875 24.8125 41.40625 
Q 24.8125 41.109375 24.78125 40.9375 
Q 24.75 40.765625 24.703125 40.578125 
L 18.796875 17.1875 
Q 17.828125 13.03125 17.828125 10.015625 
Q 17.828125 6.296875 19.578125 3.90625 
Q 21.34375 1.515625 24.90625 1.515625 
Q 32.171875 1.515625 37.703125 10.59375 
Q 37.75 10.6875 37.765625 10.734375 
Q 37.796875 10.796875 37.796875 10.890625 
L 45.015625 39.890625 
Q 45.359375 41.21875 46.578125 42.15625 
Q 47.796875 43.109375 49.21875 43.109375 
Q 50.390625 43.109375 51.296875 42.328125 
Q 52.203125 41.546875 52.203125 40.28125 
Q 52.203125 39.703125 52.09375 39.5 
L 44.921875 10.6875 
Q 44.1875 7.859375 44.1875 5.8125 
Q 44.1875 1.515625 47.125 1.515625 
Q 50.25 1.515625 51.828125 5.375 
Q 53.421875 9.234375 54.59375 14.703125 
Q 54.78125 15.28125 55.421875 15.28125 
L 56.59375 15.28125 
Q 56.984375 15.28125 57.25 14.96875 
Q 57.515625 14.65625 57.515625 14.3125 
Q 55.765625 7.328125 53.6875 3.09375 
Q 51.609375 -1.125 46.921875 -1.125 
Q 43.609375 -1.125 41.046875 0.78125 
Q 38.484375 2.6875 37.703125 5.90625 
Q 35.203125 2.78125 31.859375 0.828125 
Q 28.515625 -1.125 24.8125 -1.125 
Q 18.5625 -1.125 14.984375 1.8125 
L 9.90625 -18.40625 
Q 9.625 -19.828125 8.453125 -20.703125 
Q 7.28125 -21.578125 5.8125 -21.578125 
Q 4.59375 -21.578125 3.6875 -20.8125 
Q 2.78125 -20.0625 2.78125 -18.796875 
" id="Cmmi10-b9"/>
    </defs>
    <g transform="translate(72.0 279.936)scale(0.22 -0.22)">
     <use transform="translate(0.0 0.8125)" xlink:href="#Cmmi10-b9"/>
    </g>
   </g>
   <g id="text_2">
    <!-- $E(k)$ -->
    <defs>
     <path d="M 31 -24.8125 
Q 25.4375 -20.40625 21.40625 -14.71875 
Q 17.390625 -9.03125 14.8125 -2.578125 
Q 12.25 3.859375 10.984375 10.890625 
Q 9.71875 17.921875 9.71875 25 
Q 9.71875 32.171875 10.984375 39.203125 
Q 12.25 46.234375 14.859375 52.734375 
Q 17.484375 59.234375 21.53125 64.890625 
Q 25.59375 70.5625 31 74.8125 
Q 31 75 31.5 75 
L 32.421875 75 
Q 32.71875 75 32.953125 74.734375 
Q 33.203125 74.46875 33.203125 74.125 
Q 33.203125 73.6875 33.015625 73.484375 
Q 28.125 68.703125 24.875 63.234375 
Q 21.625 57.765625 19.640625 51.578125 
Q 17.671875 45.40625 16.796875 38.78125 
Q 15.921875 32.171875 15.921875 25 
Q 15.921875 -6.78125 32.90625 -23.296875 
Q 33.203125 -23.578125 33.203125 -24.125 
Q 33.203125 -24.359375 32.9375 -24.671875 
Q 32.671875 -25 32.421875 -25 
L 31.5 -25 
Q 31 -25 31 -24.8125 
" id="Cmr10-28"/>
     <path d="M 5.328125 1.8125 
Q 5.328125 2.390625 5.421875 2.6875 
L 19.921875 60.5 
Q 20.3125 62.203125 20.40625 63.1875 
Q 20.40625 64.796875 13.921875 64.796875 
Q 12.890625 64.796875 12.890625 66.109375 
Q 12.9375 66.359375 13.109375 66.984375 
Q 13.28125 67.625 13.546875 67.96875 
Q 13.8125 68.3125 14.3125 68.3125 
L 27.78125 69.390625 
L 28.078125 69.390625 
Q 28.078125 69.28125 28.421875 69.109375 
Q 28.765625 68.953125 28.8125 68.890625 
Q 29 68.40625 29 68.109375 
L 18.5 26.3125 
Q 22.125 27.828125 27.609375 33.515625 
Q 33.109375 39.203125 36.203125 41.6875 
Q 39.3125 44.1875 44 44.1875 
Q 46.78125 44.1875 48.734375 42.28125 
Q 50.6875 40.375 50.6875 37.59375 
Q 50.6875 35.84375 49.953125 34.34375 
Q 49.21875 32.859375 47.890625 31.921875 
Q 46.578125 31 44.828125 31 
Q 43.21875 31 42.109375 32 
Q 41.015625 33.015625 41.015625 34.625 
Q 41.015625 37.015625 42.703125 38.640625 
Q 44.390625 40.28125 46.78125 40.28125 
Q 45.796875 41.609375 43.796875 41.609375 
Q 40.828125 41.609375 38.0625 39.890625 
Q 35.296875 38.1875 32.09375 34.984375 
Q 28.90625 31.78125 26.265625 29.125 
Q 23.640625 26.46875 21.390625 25.09375 
Q 27.296875 24.421875 31.640625 22 
Q 35.984375 19.578125 35.984375 14.59375 
Q 35.984375 13.578125 35.59375 12.015625 
Q 34.71875 8.25 34.71875 6 
Q 34.71875 1.515625 37.796875 1.515625 
Q 41.40625 1.515625 43.28125 5.46875 
Q 45.171875 9.421875 46.390625 14.703125 
Q 46.578125 15.28125 47.21875 15.28125 
L 48.390625 15.28125 
Q 48.78125 15.28125 49.046875 15.03125 
Q 49.3125 14.796875 49.3125 14.40625 
Q 49.3125 14.3125 49.21875 14.109375 
Q 45.453125 -1.125 37.59375 -1.125 
Q 34.765625 -1.125 32.59375 0.1875 
Q 30.421875 1.515625 29.25 3.78125 
Q 28.078125 6.0625 28.078125 8.890625 
Q 28.078125 10.5 28.515625 12.203125 
Q 28.8125 13.375 28.8125 14.40625 
Q 28.8125 18.265625 25.390625 20.265625 
Q 21.96875 22.265625 17.578125 22.703125 
L 12.5 2.296875 
Q 12.109375 0.78125 10.984375 -0.171875 
Q 9.859375 -1.125 8.40625 -1.125 
Q 7.125 -1.125 6.21875 -0.265625 
Q 5.328125 0.59375 5.328125 1.8125 
" id="Cmmi10-6b"/>
     <path d="M 4.6875 0 
Q 3.71875 0 3.71875 1.3125 
Q 3.765625 1.5625 3.90625 2.171875 
Q 4.046875 2.78125 4.3125 3.140625 
Q 4.59375 3.515625 4.984375 3.515625 
Q 11.078125 3.515625 13.484375 4.203125 
Q 14.796875 4.640625 15.375 6.890625 
L 29.109375 61.8125 
Q 29.296875 62.796875 29.296875 63.1875 
Q 29.296875 64.265625 28.078125 64.40625 
Q 26.21875 64.796875 20.90625 64.796875 
Q 19.921875 64.796875 19.921875 66.109375 
Q 19.96875 66.359375 20.109375 66.96875 
Q 20.265625 67.578125 20.53125 67.9375 
Q 20.796875 68.3125 21.1875 68.3125 
L 75.390625 68.3125 
Q 76.421875 68.3125 76.421875 67 
L 74.03125 46.296875 
Q 74.03125 46.046875 73.65625 45.71875 
Q 73.296875 45.40625 73 45.40625 
L 72.125 45.40625 
Q 71.09375 45.40625 71.09375 46.6875 
Q 71.6875 51.5625 71.6875 53.90625 
Q 71.6875 57.90625 70.3125 60.125 
Q 68.953125 62.359375 66.671875 63.328125 
Q 64.40625 64.3125 61.640625 64.546875 
Q 58.890625 64.796875 54.390625 64.796875 
L 43.015625 64.796875 
Q 40.28125 64.796875 39.40625 64.328125 
Q 38.53125 63.875 37.796875 61.375 
L 31.78125 37.203125 
L 39.59375 37.203125 
Q 44.671875 37.203125 47.265625 37.90625 
Q 49.859375 38.625 51.359375 40.859375 
Q 52.875 43.109375 54.109375 48 
Q 54.203125 48.34375 54.46875 48.609375 
Q 54.734375 48.875 55.078125 48.875 
L 56 48.875 
Q 56.984375 48.875 56.984375 47.609375 
L 50.78125 22.90625 
Q 50.59375 22.015625 49.8125 22.015625 
L 48.875 22.015625 
Q 47.90625 22.015625 47.90625 23.296875 
Q 48.875 27.296875 48.875 29.203125 
Q 48.875 32.125 46.234375 32.90625 
Q 43.609375 33.6875 39.203125 33.6875 
L 30.90625 33.6875 
L 24.125 6.5 
Q 23.6875 5.28125 23.6875 4.296875 
Q 23.6875 3.515625 27.09375 3.515625 
L 39.203125 3.515625 
Q 46.4375 3.515625 50.921875 4.640625 
Q 55.421875 5.765625 58.375 8.21875 
Q 61.328125 10.6875 63.46875 14.5 
Q 65.625 18.3125 68.703125 25.59375 
Q 68.890625 26.21875 69.578125 26.21875 
L 70.515625 26.21875 
Q 70.90625 26.21875 71.1875 25.875 
Q 71.484375 25.53125 71.484375 25.09375 
Q 71.484375 24.90625 71.390625 24.703125 
L 61.078125 0.59375 
Q 60.890625 0 60.296875 0 
z
" id="Cmmi10-45"/>
     <path d="M 6.5 -25 
Q 5.609375 -25 5.609375 -24.125 
Q 5.609375 -23.6875 5.8125 -23.484375 
Q 22.90625 -6.78125 22.90625 25 
Q 22.90625 56.78125 6 73.296875 
Q 5.609375 73.53125 5.609375 74.125 
Q 5.609375 74.46875 5.875 74.734375 
Q 6.15625 75 6.5 75 
L 7.421875 75 
Q 7.71875 75 7.90625 74.8125 
Q 15.09375 69.140625 19.875 61.03125 
Q 24.65625 52.9375 26.875 43.75 
Q 29.109375 34.578125 29.109375 25 
Q 29.109375 17.921875 27.90625 11.0625 
Q 26.703125 4.203125 24.09375 -2.453125 
Q 21.484375 -9.125 17.484375 -14.765625 
Q 13.484375 -20.40625 7.90625 -24.8125 
Q 7.71875 -25 7.421875 -25 
z
" id="Cmr10-29"/>
    </defs>
    <g transform="translate(272.76 31.42)scale(0.22 -0.22)">
     <use xlink:href="#Cmmi10-45"/>
     <use transform="translate(73.779296875 0.0)" xlink:href="#Cmr10-28"/>
     <use transform="translate(112.59765625 0.0)" xlink:href="#Cmmi10-6b"/>
     <use transform="translate(164.599609375 0.0)" xlink:href="#Cmr10-29"/>
    </g>
   </g>
   <g id="patch_2">
    <path d="M 188.6 148.877604 
L 188.6 148.877604 
L 178.6 148.877604 
L 178.6 148.877604 
M 183.6 148.877604 
Q 183.6 206.063099 183.6 263.248594 
M 178.6 263.248594 
L 178.6 263.248594 
L 188.6 263.248594 
L 188.6 263.248594 
" style="fill:none;stroke:#000000;stroke-linecap:round;stroke-width:0.5;"/>
   </g>
   <g id="text_3">
    <!-- $\Delta$ -->
    <defs>
     <path d="M 5.421875 0 
Q 4.59375 0 4.59375 0.78125 
Q 4.640625 0.875 4.65625 0.921875 
Q 4.6875 0.984375 4.6875 1.125 
L 39.109375 70.515625 
Q 39.546875 71.578125 40.921875 71.578125 
L 42.28125 71.578125 
Q 43.65625 71.578125 44.09375 70.515625 
L 78.515625 1.125 
Q 78.5625 1.03125 78.578125 0.953125 
Q 78.609375 0.875 78.609375 0.78125 
Q 78.609375 0 77.78125 0 
z
M 12.015625 8.015625 
L 64.703125 8.015625 
L 38.375 61.078125 
z
" id="Cmr10-a2"/>
    </defs>
    <g transform="translate(190.296 210.816)scale(0.22 -0.22)">
     <use transform="translate(0.0 0.421875)" xlink:href="#Cmr10-a2"/>
    </g>
   </g>
   <g id="patch_3">
    <path d="M 178.6 302.988305 
L 178.6 302.988305 
L 188.6 302.988305 
L 188.6 302.988305 
M 183.6 302.988305 
Q 183.6 285.120168 183.6 267.252032 
M 188.6 267.252032 
L 188.6 267.252032 
L 178.6 267.252032 
L 178.6 267.252032 
" style="fill:none;stroke:#000000;stroke-linecap:round;stroke-width:0.5;"/>
   </g>
   <g id="text_4">
    <!-- $2 \lambda$ -->
    <defs>
     <path d="M 5.078125 1.703125 
Q 5.078125 3.171875 6.390625 4.5 
L 34.515625 32.078125 
L 24.609375 59.90625 
Q 23.4375 63.09375 22.140625 64.9375 
Q 20.84375 66.796875 18.40625 66.796875 
Q 17.28125 66.796875 17.28125 68.109375 
Q 17.390625 68.703125 17.78125 69.046875 
Q 18.171875 69.390625 18.796875 69.390625 
Q 29.296875 69.390625 31.5 63.1875 
L 51.8125 6.5 
Q 53.125 2.25 54.5 0.78125 
Q 54.984375 0.046875 54.984375 -0.203125 
Q 54.984375 -1.125 54.203125 -1.125 
L 48.78125 -1.125 
Q 46.296875 -0.390625 44.828125 3.21875 
L 35.6875 28.8125 
L 11.53125 0.390625 
Q 9.71875 -1.3125 8.296875 -1.3125 
Q 7.03125 -1.3125 6.046875 -0.4375 
Q 5.078125 0.4375 5.078125 1.703125 
" id="Cmmi10-b8"/>
     <path d="M 4.984375 0 
L 4.984375 2.6875 
Q 4.984375 2.9375 5.171875 3.21875 
L 20.703125 20.40625 
Q 24.21875 24.21875 26.40625 26.796875 
Q 28.609375 29.390625 30.75 32.765625 
Q 32.90625 36.140625 34.15625 39.625 
Q 35.40625 43.109375 35.40625 47.015625 
Q 35.40625 51.125 33.890625 54.859375 
Q 32.375 58.59375 29.375 60.84375 
Q 26.375 63.09375 22.125 63.09375 
Q 17.78125 63.09375 14.3125 60.46875 
Q 10.84375 57.859375 9.421875 53.71875 
Q 9.8125 53.8125 10.5 53.8125 
Q 12.75 53.8125 14.328125 52.296875 
Q 15.921875 50.78125 15.921875 48.390625 
Q 15.921875 46.09375 14.328125 44.5 
Q 12.75 42.921875 10.5 42.921875 
Q 8.15625 42.921875 6.5625 44.546875 
Q 4.984375 46.1875 4.984375 48.390625 
Q 4.984375 52.15625 6.390625 55.4375 
Q 7.8125 58.734375 10.46875 61.296875 
Q 13.140625 63.875 16.484375 65.234375 
Q 19.828125 66.609375 23.578125 66.609375 
Q 29.296875 66.609375 34.21875 64.1875 
Q 39.15625 61.765625 42.03125 57.34375 
Q 44.921875 52.9375 44.921875 47.015625 
Q 44.921875 42.671875 43.015625 38.765625 
Q 41.109375 34.859375 38.125 31.65625 
Q 35.15625 28.46875 30.515625 24.40625 
Q 25.875 20.359375 24.421875 19 
L 13.09375 8.109375 
L 22.703125 8.109375 
Q 29.78125 8.109375 34.546875 8.21875 
Q 39.3125 8.34375 39.59375 8.59375 
Q 40.765625 9.859375 42 17.828125 
L 44.921875 17.828125 
L 42.09375 0 
z
" id="Cmr10-32"/>
    </defs>
    <g transform="translate(190.296 303.264)scale(0.22 -0.22)">
     <use transform="translate(0.0 0.609375)" xlink:href="#Cmr10-32"/>
     <use transform="translate(50.0 0.609375)" xlink:href="#Cmmi10-b8"/>
    </g>
   </g>
   <g id="text_5">
    <!-- $\tau = -$ -->
    <defs>
     <path d="M 15.578125 1.515625 
Q 15.578125 2.203125 15.71875 2.59375 
L 26.21875 36.921875 
L 17.1875 36.921875 
Q 13.53125 36.921875 10.34375 34.625 
Q 7.171875 32.328125 5.078125 28.8125 
Q 4.890625 28.421875 4.5 28.421875 
L 3.328125 28.421875 
Q 2.390625 28.421875 2.390625 29.390625 
Q 2.390625 29.59375 2.59375 29.984375 
Q 5.859375 35.546875 9.59375 39.328125 
Q 13.328125 43.109375 18.015625 43.109375 
L 48.6875 43.109375 
Q 49.75 43.109375 50.484375 42.375 
Q 51.21875 41.65625 51.21875 40.578125 
Q 51.21875 39.109375 50.171875 38.015625 
Q 49.125 36.921875 47.609375 36.921875 
L 29.5 36.921875 
L 22.796875 2.390625 
Q 22.40625 0.78125 21.328125 -0.265625 
Q 20.265625 -1.3125 18.609375 -1.3125 
Q 17.328125 -1.3125 16.453125 -0.5 
Q 15.578125 0.296875 15.578125 1.515625 
" id="Cmmi10-bf"/>
     <path d="M 10.203125 23 
Q 9.375 23 8.828125 23.625 
Q 8.296875 24.265625 8.296875 25 
Q 8.296875 25.734375 8.828125 26.359375 
Q 9.375 27 10.203125 27 
L 67.578125 27 
Q 68.359375 27 68.875 26.359375 
Q 69.390625 25.734375 69.390625 25 
Q 69.390625 24.265625 68.875 23.625 
Q 68.359375 23 67.578125 23 
z
" id="Cmsy10-a1"/>
     <path d="M 7.515625 13.28125 
Q 6.6875 13.28125 6.140625 13.90625 
Q 5.609375 14.546875 5.609375 15.28125 
Q 5.609375 16.109375 6.140625 16.6875 
Q 6.6875 17.28125 7.515625 17.28125 
L 70.3125 17.28125 
Q 71.046875 17.28125 71.578125 16.6875 
Q 72.125 16.109375 72.125 15.28125 
Q 72.125 14.546875 71.578125 13.90625 
Q 71.046875 13.28125 70.3125 13.28125 
z
M 7.515625 32.71875 
Q 6.6875 32.71875 6.140625 33.296875 
Q 5.609375 33.890625 5.609375 34.71875 
Q 5.609375 35.453125 6.140625 36.078125 
Q 6.6875 36.71875 7.515625 36.71875 
L 70.3125 36.71875 
Q 71.046875 36.71875 71.578125 36.078125 
Q 72.125 35.453125 72.125 34.71875 
Q 72.125 33.890625 71.578125 33.296875 
Q 71.046875 32.71875 70.3125 32.71875 
z
" id="Cmr10-3d"/>
    </defs>
    <g transform="translate(72.0 212.544)scale(0.22 -0.22)">
     <use transform="translate(0.0 0.890625)" xlink:href="#Cmmi10-bf"/>
     <use transform="translate(61.259765625 0.890625)" xlink:href="#Cmr10-3d"/>
     <use transform="translate(174.0625 0.890625)" xlink:href="#Cmsy10-a1"/>
    </g>
   </g>
   <g id="text_6">
    <!-- $\tau = +$ -->
    <defs>
     <path d="M 7.515625 23 
Q 6.6875 23 6.140625 23.625 
Q 5.609375 24.265625 5.609375 25 
Q 5.609375 25.734375 6.140625 26.359375 
Q 6.6875 27 7.515625 27 
L 36.921875 27 
L 36.921875 56.5 
Q 36.921875 57.28125 37.5 57.78125 
Q 38.09375 58.296875 38.921875 58.296875 
Q 39.65625 58.296875 40.28125 57.78125 
Q 40.921875 57.28125 40.921875 56.5 
L 40.921875 27 
L 70.3125 27 
Q 71.046875 27 71.578125 26.359375 
Q 72.125 25.734375 72.125 25 
Q 72.125 24.265625 71.578125 23.625 
Q 71.046875 23 70.3125 23 
L 40.921875 23 
L 40.921875 -6.5 
Q 40.921875 -7.28125 40.28125 -7.78125 
Q 39.65625 -8.296875 38.921875 -8.296875 
Q 38.09375 -8.296875 37.5 -7.78125 
Q 36.921875 -7.28125 36.921875 -6.5 
L 36.921875 23 
z
" id="Cmr10-2b"/>
    </defs>
    <g transform="translate(459.0 212.544)scale(0.22 -0.22)">
     <use transform="translate(0.0 0.703125)" xlink:href="#Cmmi10-bf"/>
     <use transform="translate(61.259765625 0.703125)" xlink:href="#Cmr10-3d"/>
     <use transform="translate(174.0625 0.703125)" xlink:href="#Cmr10-2b"/>
    </g>
   </g>
   <g id="text_7">
    <!-- $n = -$ -->
    <defs>
     <path d="M 7.71875 1.703125 
Q 7.71875 2.296875 7.8125 2.59375 
L 15.28125 32.421875 
Q 16.015625 35.203125 16.015625 37.3125 
Q 16.015625 41.609375 13.09375 41.609375 
Q 9.96875 41.609375 8.453125 37.859375 
Q 6.9375 34.125 5.515625 28.421875 
Q 5.515625 28.125 5.21875 27.953125 
Q 4.9375 27.78125 4.6875 27.78125 
L 3.515625 27.78125 
Q 3.171875 27.78125 2.921875 28.140625 
Q 2.6875 28.515625 2.6875 28.8125 
Q 3.765625 33.15625 4.765625 36.171875 
Q 5.765625 39.203125 7.890625 41.6875 
Q 10.015625 44.1875 13.1875 44.1875 
Q 16.9375 44.1875 19.8125 41.8125 
Q 22.703125 39.453125 22.703125 35.796875 
Q 25.6875 39.703125 29.6875 41.9375 
Q 33.6875 44.1875 38.1875 44.1875 
Q 41.75 44.1875 44.328125 42.96875 
Q 46.921875 41.75 48.359375 39.28125 
Q 49.8125 36.8125 49.8125 33.40625 
Q 49.8125 29.296875 47.96875 23.484375 
Q 46.140625 17.671875 43.40625 10.5 
Q 42 7.234375 42 4.5 
Q 42 1.515625 44.28125 1.515625 
Q 48.1875 1.515625 50.796875 5.703125 
Q 53.421875 9.90625 54.5 14.703125 
Q 54.6875 15.28125 55.328125 15.28125 
L 56.5 15.28125 
Q 56.890625 15.28125 57.15625 15.03125 
Q 57.421875 14.796875 57.421875 14.40625 
Q 57.421875 14.3125 57.328125 14.109375 
Q 55.953125 8.453125 52.5625 3.65625 
Q 49.171875 -1.125 44.09375 -1.125 
Q 40.578125 -1.125 38.078125 1.296875 
Q 35.59375 3.71875 35.59375 7.171875 
Q 35.59375 9.03125 36.375 11.078125 
Q 37.640625 14.359375 39.28125 18.890625 
Q 40.921875 23.4375 41.96875 27.578125 
Q 43.015625 31.734375 43.015625 34.90625 
Q 43.015625 37.703125 41.859375 39.65625 
Q 40.71875 41.609375 37.984375 41.609375 
Q 34.328125 41.609375 31.25 39.984375 
Q 28.171875 38.375 25.875 35.71875 
Q 23.578125 33.0625 21.6875 29.390625 
L 14.890625 2.203125 
Q 14.546875 0.828125 13.34375 -0.140625 
Q 12.15625 -1.125 10.6875 -1.125 
Q 9.46875 -1.125 8.59375 -0.34375 
Q 7.71875 0.4375 7.71875 1.703125 
" id="Cmmi10-6e"/>
    </defs>
    <g transform="translate(299.664 236.1725625)scale(0.22 -0.22)">
     <use transform="translate(0.0 0.8125)" xlink:href="#Cmmi10-6e"/>
     <use transform="translate(77.568359375 0.8125)" xlink:href="#Cmr10-3d"/>
     <use transform="translate(190.37109375 0.8125)" xlink:href="#Cmsy10-a1"/>
    </g>
   </g>
   <g id="text_8">
    <!-- $n = +$ -->
    <g transform="translate(299.664 207.9686875)scale(0.22 -0.22)">
     <use transform="translate(0.0 0.703125)" xlink:href="#Cmmi10-6e"/>
     <use transform="translate(77.568359375 0.703125)" xlink:href="#Cmr10-3d"/>
     <use transform="translate(190.37109375 0.703125)" xlink:href="#Cmr10-2b"/>
    </g>
   </g>
   <g id="text_9">
    <!-- $\downarrow$ -->
    <defs>
     <path d="M 23.875 -18.5 
Q 23.046875 -12.703125 20.109375 -7.9375 
Q 17.1875 -3.171875 12.59375 0.125 
Q 8.015625 3.421875 2.390625 4.6875 
Q 1.703125 4.9375 1.703125 5.609375 
L 1.703125 7.8125 
Q 1.703125 8.15625 2.09375 8.421875 
Q 2.484375 8.6875 2.78125 8.6875 
Q 2.875 8.6875 3.078125 8.59375 
Q 9.28125 7.28125 14.46875 3.5625 
Q 19.671875 -0.140625 23 -5.609375 
L 23 67.578125 
Q 23 68.359375 23.625 68.875 
Q 24.265625 69.390625 25 69.390625 
Q 25.734375 69.390625 26.359375 68.875 
Q 27 68.359375 27 67.578125 
L 27 -5.609375 
Q 30.328125 -0.140625 35.578125 3.5625 
Q 40.828125 7.28125 46.921875 8.59375 
Q 47.125 8.6875 47.21875 8.6875 
Q 47.609375 8.6875 47.953125 8.4375 
Q 48.296875 8.203125 48.296875 7.8125 
L 48.296875 5.609375 
Q 48.296875 5.421875 48.09375 5.09375 
Q 47.90625 4.78125 47.609375 4.6875 
Q 39.203125 2.875 33.25 -3.5625 
Q 27.296875 -10.015625 26.125 -18.5 
Q 25.875 -19.390625 25 -19.390625 
Q 24.125 -19.390625 23.875 -18.5 
" id="Cmsy10-23"/>
    </defs>
    <g transform="translate(71.468 349.929327885)scale(0.22 -0.22)">
     <use transform="translate(17.55859375 0.609375)" xlink:href="#Cmsy10-23"/>
    </g>
   </g>
   <g id="text_10">
    <!-- $\uparrow$ -->
    <defs>
     <path d="M 23 -17.578125 
L 23 55.609375 
Q 20.75 51.90625 17.703125 49.0625 
Q 14.65625 46.234375 10.90625 44.25 
Q 7.171875 42.28125 3.078125 41.40625 
Q 2.875 41.3125 2.78125 41.3125 
Q 1.703125 41.3125 1.703125 42.1875 
L 1.703125 44.390625 
Q 1.703125 45.0625 2.390625 45.3125 
Q 8.015625 46.578125 12.59375 49.875 
Q 17.1875 53.171875 20.109375 57.9375 
Q 23.046875 62.703125 23.875 68.5 
Q 24.078125 68.953125 24.359375 69.171875 
Q 24.65625 69.390625 25 69.390625 
Q 25.34375 69.390625 25.6875 69.109375 
Q 26.03125 68.84375 26.125 68.5 
Q 27.296875 60.015625 33.203125 53.609375 
Q 39.109375 47.21875 47.609375 45.3125 
Q 47.90625 45.21875 48.09375 44.890625 
Q 48.296875 44.578125 48.296875 44.390625 
L 48.296875 42.1875 
Q 48.296875 41.890625 47.953125 41.59375 
Q 47.609375 41.3125 47.21875 41.3125 
Q 47.125 41.3125 46.921875 41.40625 
Q 42.828125 42.28125 39.09375 44.25 
Q 35.359375 46.234375 32.296875 49.0625 
Q 29.25 51.90625 27 55.609375 
L 27 -17.578125 
Q 27 -18.359375 26.359375 -18.875 
Q 25.734375 -19.390625 25 -19.390625 
Q 24.265625 -19.390625 23.625 -18.875 
Q 23 -18.359375 23 -17.578125 
" id="Cmsy10-22"/>
    </defs>
    <g transform="translate(71.468 400.074698802)scale(0.22 -0.22)">
     <use transform="translate(17.55859375 0.609375)" xlink:href="#Cmsy10-22"/>
    </g>
   </g>
   <g id="text_11">
    <!-- $\downarrow$ -->
    <g transform="translate(500.012 400.074698802)scale(0.22 -0.22)">
     <use transform="translate(17.55859375 0.609375)" xlink:href="#Cmsy10-23"/>
    </g>
   </g>
   <g id="text_12">
    <!-- $\uparrow$ -->
    <g transform="translate(500.012 349.929327885)scale(0.22 -0.22)">
     <use transform="translate(17.55859375 0.609375)" xlink:href="#Cmsy10-22"/>
    </g>
   </g>
   <g id="text_13">
    <!-- $\downarrow$ -->
    <g transform="translate(71.468 53.0480471154)scale(0.22 -0.22)">
     <use transform="translate(17.55859375 0.609375)" xlink:href="#Cmsy10-23"/>
    </g>
   </g>
   <g id="text_14">
    <!-- $\uparrow$ -->
    <g transform="translate(71.468 85.2304261983)scale(0.22 -0.22)">
     <use transform="translate(17.55859375 0.609375)" xlink:href="#Cmsy10-22"/>
    </g>
   </g>
   <g id="text_15">
    <!-- $\downarrow$ -->
    <g transform="translate(500.012 85.2304261983)scale(0.22 -0.22)">
     <use transform="translate(17.55859375 0.609375)" xlink:href="#Cmsy10-23"/>
    </g>
   </g>
   <g id="text_16">
    <!-- $\uparrow$ -->
    <g transform="translate(500.012 53.0480471154)scale(0.22 -0.22)">
     <use transform="translate(17.55859375 0.609375)" xlink:href="#Cmsy10-22"/>
    </g>
   </g>
  </g>
 </g>
 <defs>
  <clipPath id="pf0f0d1f7c7">
   <rect height="345.6" width="446.4" x="72.0" y="43.2"/>
  </clipPath>
 </defs>
</svg>
