<?xml version="1.0" encoding="utf-8" standalone="no"?>
<!DOCTYPE svg PUBLIC "-//W3C//DTD SVG 1.1//EN"
  "http://www.w3.org/Graphics/SVG/1.1/DTD/svg11.dtd">
<!-- Created with matplotlib (http://matplotlib.org/) -->
<svg height="444pt" version="1.1" viewBox="0 0 542 444" width="542pt" xmlns="http://www.w3.org/2000/svg" xmlns:xlink="http://www.w3.org/1999/xlink">
 <defs>
  <style type="text/css">
*{stroke-linecap:butt;stroke-linejoin:round;stroke-miterlimit:100000;}
  </style>
 </defs>
 <g id="figure_1">
  <g id="patch_1">
   <path d="M 0 444.341802 
L 542.88 444.341802 
L 542.88 -0 
L 0 -0 
L 0 444.341802 
z
" style="fill:none;"/>
  </g>
  <g id="axes_1">
   <g id="line2d_1">
    <path clip-path="url(#p515e3cd857)" d="M 245.016 383.750412 
L 242.880727 380.949165 
L 240.745455 378.157406 
L 238.610182 375.375641 
L 236.474909 372.604413 
L 234.339636 369.844301 
L 232.204364 367.095924 
L 230.069091 364.359947 
L 227.933818 361.63708 
L 225.798545 358.928088 
L 223.663273 356.23379 
L 221.528 353.555065 
L 219.392727 350.89286 
L 217.257455 348.248193 
L 215.122182 345.622159 
L 212.986909 343.015938 
L 210.851636 340.430801 
L 208.716364 337.868121 
L 206.581091 335.329375 
L 204.445818 332.81616 
L 202.310545 330.3302 
L 200.175273 327.873354 
L 198.04 325.447632 
L 195.904727 323.055201 
L 193.769455 320.698402 
L 191.634182 318.37976 
L 189.498909 316.101998 
L 187.363636 313.868049 
L 185.228364 311.681067 
L 183.093091 309.544441 
L 180.957818 307.461804 
L 178.822545 305.437041 
L 176.687273 303.474295 
L 174.552 301.577966 
L 172.416727 299.752712 
L 170.281455 298.003436 
L 168.146182 296.335265 
L 166.010909 294.753533 
L 163.875636 293.263733 
L 161.740364 291.871474 
L 159.605091 290.582416 
L 157.469818 289.402198 
L 155.334545 288.336347 
L 153.199273 287.390179 
L 151.064 286.568694 
L 148.928727 285.87646 
L 146.793455 285.317501 
L 144.658182 284.895189 
L 142.522909 284.612146 
L 140.387636 284.470169 
L 138.252364 284.470169 
L 136.117091 284.612146 
L 133.981818 284.895189 
L 131.846545 285.317501 
L 129.711273 285.87646 
L 127.576 286.568694 
L 125.440727 287.390179 
L 123.305455 288.336347 
L 121.170182 289.402198 
L 119.034909 290.582416 
L 116.899636 291.871474 
L 114.764364 293.263733 
L 112.629091 294.753533 
L 110.493818 296.335265 
L 108.358545 298.003436 
L 106.223273 299.752712 
L 104.088 301.577966 
L 101.952727 303.474295 
L 99.817455 305.437041 
L 97.682182 307.461804 
L 95.546909 309.544441 
L 93.411636 311.681067 
L 91.276364 313.868049 
L 89.141091 316.101998 
L 87.005818 318.37976 
L 84.870545 320.698402 
L 82.735273 323.055201 
L 80.6 325.447632 
L 78.464727 327.873354 
L 76.329455 330.3302 
L 74.194182 332.81616 
L 72.058909 335.329375 
L 69.923636 337.868121 
L 67.788364 340.430801 
L 65.653091 343.015938 
L 63.517818 345.622159 
L 61.382545 348.248193 
L 59.247273 350.89286 
L 57.112 353.555065 
L 54.976727 356.23379 
L 52.841455 358.928088 
L 50.706182 361.63708 
L 48.570909 364.359947 
L 46.435636 367.095924 
L 44.300364 369.844301 
L 42.165091 372.604413 
L 40.029818 375.375641 
L 37.894545 378.157406 
L 35.759273 380.949165 
L 33.624 383.750412 
" style="fill:none;stroke:#000000;stroke-linecap:square;"/>
   </g>
   <g id="line2d_2">
    <path clip-path="url(#p515e3cd857)" d="M 245.016 415.849927 
L 242.880727 413.211022 
L 240.745455 410.586228 
L 238.610182 407.97621 
L 236.474909 405.381669 
L 234.339636 402.803349 
L 232.204364 400.242037 
L 230.069091 397.698565 
L 227.933818 395.173815 
L 225.798545 392.668719 
L 223.663273 390.184266 
L 221.528 387.721503 
L 219.392727 385.281538 
L 217.257455 382.865544 
L 215.122182 380.474767 
L 212.986909 378.11052 
L 210.851636 375.774199 
L 208.716364 373.467277 
L 206.581091 371.191314 
L 204.445818 368.947958 
L 202.310545 366.738951 
L 200.175273 364.56613 
L 198.04 362.431434 
L 195.904727 360.336904 
L 193.769455 358.284687 
L 191.634182 356.277036 
L 189.498909 354.316316 
L 187.363636 352.404996 
L 185.228364 350.545658 
L 183.093091 348.740984 
L 180.957818 346.99376 
L 178.822545 345.306864 
L 176.687273 343.683263 
L 174.552 342.125996 
L 172.416727 340.638165 
L 170.281455 339.222916 
L 168.146182 337.883421 
L 166.010909 336.622853 
L 163.875636 335.444364 
L 161.740364 334.351054 
L 159.605091 333.345938 
L 157.469818 332.431916 
L 155.334545 331.611736 
L 153.199273 330.887959 
L 151.064 330.262923 
L 148.928727 329.738707 
L 146.793455 329.317101 
L 144.658182 328.999575 
L 142.522909 328.787255 
L 140.387636 328.680903 
L 138.252364 328.680903 
L 136.117091 328.787255 
L 133.981818 328.999575 
L 131.846545 329.317101 
L 129.711273 329.738707 
L 127.576 330.262923 
L 125.440727 330.887959 
L 123.305455 331.611736 
L 121.170182 332.431916 
L 119.034909 333.345938 
L 116.899636 334.351054 
L 114.764364 335.444364 
L 112.629091 336.622853 
L 110.493818 337.883421 
L 108.358545 339.222916 
L 106.223273 340.638165 
L 104.088 342.125996 
L 101.952727 343.683263 
L 99.817455 345.306864 
L 97.682182 346.99376 
L 95.546909 348.740984 
L 93.411636 350.545658 
L 91.276364 352.404996 
L 89.141091 354.316316 
L 87.005818 356.277036 
L 84.870545 358.284687 
L 82.735273 360.336904 
L 80.6 362.431434 
L 78.464727 364.56613 
L 76.329455 366.738951 
L 74.194182 368.947958 
L 72.058909 371.191314 
L 69.923636 373.467277 
L 67.788364 375.774199 
L 65.653091 378.11052 
L 63.517818 380.474767 
L 61.382545 382.865544 
L 59.247273 385.281538 
L 57.112 387.721503 
L 54.976727 390.184266 
L 52.841455 392.668719 
L 50.706182 395.173815 
L 48.570909 397.698565 
L 46.435636 400.242037 
L 44.300364 402.803349 
L 42.165091 405.381669 
L 40.029818 407.97621 
L 37.894545 410.586228 
L 35.759273 413.211022 
L 33.624 415.849927 
" style="fill:none;stroke:#000000;stroke-linecap:square;"/>
   </g>
   <g id="line2d_3">
    <path clip-path="url(#p515e3cd857)" d="M 297.864 415.849927 
L 299.999273 413.211022 
L 302.134545 410.586228 
L 304.269818 407.97621 
L 306.405091 405.381669 
L 308.540364 402.803349 
L 310.675636 400.242037 
L 312.810909 397.698565 
L 314.946182 395.173815 
L 317.081455 392.668719 
L 319.216727 390.184266 
L 321.352 387.721503 
L 323.487273 385.281538 
L 325.622545 382.865544 
L 327.757818 380.474767 
L 329.893091 378.11052 
L 332.028364 375.774199 
L 334.163636 373.467277 
L 336.298909 371.191314 
L 338.434182 368.947958 
L 340.569455 366.738951 
L 342.704727 364.56613 
L 344.84 362.431434 
L 346.975273 360.336904 
L 349.110545 358.284687 
L 351.245818 356.277036 
L 353.381091 354.316316 
L 355.516364 352.404996 
L 357.651636 350.545658 
L 359.786909 348.740984 
L 361.922182 346.99376 
L 364.057455 345.306864 
L 366.192727 343.683263 
L 368.328 342.125996 
L 370.463273 340.638165 
L 372.598545 339.222916 
L 374.733818 337.883421 
L 376.869091 336.622853 
L 379.004364 335.444364 
L 381.139636 334.351054 
L 383.274909 333.345938 
L 385.410182 332.431916 
L 387.545455 331.611736 
L 389.680727 330.887959 
L 391.816 330.262923 
L 393.951273 329.738707 
L 396.086545 329.317101 
L 398.221818 328.999575 
L 400.357091 328.787255 
L 402.492364 328.680903 
L 404.627636 328.680903 
L 406.762909 328.787255 
L 408.898182 328.999575 
L 411.033455 329.317101 
L 413.168727 329.738707 
L 415.304 330.262923 
L 417.439273 330.887959 
L 419.574545 331.611736 
L 421.709818 332.431916 
L 423.845091 333.345938 
L 425.980364 334.351054 
L 428.115636 335.444364 
L 430.250909 336.622853 
L 432.386182 337.883421 
L 434.521455 339.222916 
L 436.656727 340.638165 
L 438.792 342.125996 
L 440.927273 343.683263 
L 443.062545 345.306864 
L 445.197818 346.99376 
L 447.333091 348.740984 
L 449.468364 350.545658 
L 451.603636 352.404996 
L 453.738909 354.316316 
L 455.874182 356.277036 
L 458.009455 358.284687 
L 460.144727 360.336904 
L 462.28 362.431434 
L 464.415273 364.56613 
L 466.550545 366.738951 
L 468.685818 368.947958 
L 470.821091 371.191314 
L 472.956364 373.467277 
L 475.091636 375.774199 
L 477.226909 378.11052 
L 479.362182 380.474767 
L 481.497455 382.865544 
L 483.632727 385.281538 
L 485.768 387.721503 
L 487.903273 390.184266 
L 490.038545 392.668719 
L 492.173818 395.173815 
L 494.309091 397.698565 
L 496.444364 400.242037 
L 498.579636 402.803349 
L 500.714909 405.381669 
L 502.850182 407.97621 
L 504.985455 410.586228 
L 507.120727 413.211022 
L 509.256 415.849927 
" style="fill:none;stroke:#000000;stroke-linecap:square;"/>
   </g>
   <g id="line2d_4">
    <path clip-path="url(#p515e3cd857)" d="M 297.864 383.750412 
L 299.999273 380.949165 
L 302.134545 378.157406 
L 304.269818 375.375641 
L 306.405091 372.604413 
L 308.540364 369.844301 
L 310.675636 367.095924 
L 312.810909 364.359947 
L 314.946182 361.63708 
L 317.081455 358.928088 
L 319.216727 356.23379 
L 321.352 353.555065 
L 323.487273 350.89286 
L 325.622545 348.248193 
L 327.757818 345.622159 
L 329.893091 343.015938 
L 332.028364 340.430801 
L 334.163636 337.868121 
L 336.298909 335.329375 
L 338.434182 332.81616 
L 340.569455 330.3302 
L 342.704727 327.873354 
L 344.84 325.447632 
L 346.975273 323.055201 
L 349.110545 320.698402 
L 351.245818 318.37976 
L 353.381091 316.101998 
L 355.516364 313.868049 
L 357.651636 311.681067 
L 359.786909 309.544441 
L 361.922182 307.461804 
L 364.057455 305.437041 
L 366.192727 303.474295 
L 368.328 301.577966 
L 370.463273 299.752712 
L 372.598545 298.003436 
L 374.733818 296.335265 
L 376.869091 294.753533 
L 379.004364 293.263733 
L 381.139636 291.871474 
L 383.274909 290.582416 
L 385.410182 289.402198 
L 387.545455 288.336347 
L 389.680727 287.390179 
L 391.816 286.568694 
L 393.951273 285.87646 
L 396.086545 285.317501 
L 398.221818 284.895189 
L 400.357091 284.612146 
L 402.492364 284.470169 
L 404.627636 284.470169 
L 406.762909 284.612146 
L 408.898182 284.895189 
L 411.033455 285.317501 
L 413.168727 285.87646 
L 415.304 286.568694 
L 417.439273 287.390179 
L 419.574545 288.336347 
L 421.709818 289.402198 
L 423.845091 290.582416 
L 425.980364 291.871474 
L 428.115636 293.263733 
L 430.250909 294.753533 
L 432.386182 296.335265 
L 434.521455 298.003436 
L 436.656727 299.752712 
L 438.792 301.577966 
L 440.927273 303.474295 
L 443.062545 305.437041 
L 445.197818 307.461804 
L 447.333091 309.544441 
L 449.468364 311.681067 
L 451.603636 313.868049 
L 453.738909 316.101998 
L 455.874182 318.37976 
L 458.009455 320.698402 
L 460.144727 323.055201 
L 462.28 325.447632 
L 464.415273 327.873354 
L 466.550545 330.3302 
L 468.685818 332.81616 
L 470.821091 335.329375 
L 472.956364 337.868121 
L 475.091636 340.430801 
L 477.226909 343.015938 
L 479.362182 345.622159 
L 481.497455 348.248193 
L 483.632727 350.89286 
L 485.768 353.555065 
L 487.903273 356.23379 
L 490.038545 358.928088 
L 492.173818 361.63708 
L 494.309091 364.359947 
L 496.444364 367.095924 
L 498.579636 369.844301 
L 500.714909 372.604413 
L 502.850182 375.375641 
L 504.985455 378.157406 
L 507.120727 380.949165 
L 509.256 383.750412 
" style="fill:none;stroke:#000000;stroke-linecap:square;"/>
   </g>
   <g id="line2d_5">
    <path clip-path="url(#p515e3cd857)" d="M 245.016 53.469988 
L 242.880727 56.271235 
L 240.745455 59.062994 
L 238.610182 61.844759 
L 236.474909 64.615987 
L 234.339636 67.376099 
L 232.204364 70.124476 
L 230.069091 72.860453 
L 227.933818 75.58332 
L 225.798545 78.292312 
L 223.663273 80.98661 
L 221.528 83.665335 
L 219.392727 86.32754 
L 217.257455 88.972207 
L 215.122182 91.598241 
L 212.986909 94.204462 
L 210.851636 96.789599 
L 208.716364 99.352279 
L 206.581091 101.891025 
L 204.445818 104.40424 
L 202.310545 106.8902 
L 200.175273 109.347046 
L 198.04 111.772768 
L 195.904727 114.165199 
L 193.769455 116.521998 
L 191.634182 118.84064 
L 189.498909 121.118402 
L 187.363636 123.352351 
L 185.228364 125.539333 
L 183.093091 127.675959 
L 180.957818 129.758596 
L 178.822545 131.783359 
L 176.687273 133.746105 
L 174.552 135.642434 
L 172.416727 137.467688 
L 170.281455 139.216964 
L 168.146182 140.885135 
L 166.010909 142.466867 
L 163.875636 143.956667 
L 161.740364 145.348926 
L 159.605091 146.637984 
L 157.469818 147.818202 
L 155.334545 148.884053 
L 153.199273 149.830221 
L 151.064 150.651706 
L 148.928727 151.34394 
L 146.793455 151.902899 
L 144.658182 152.325211 
L 142.522909 152.608254 
L 140.387636 152.750231 
L 138.252364 152.750231 
L 136.117091 152.608254 
L 133.981818 152.325211 
L 131.846545 151.902899 
L 129.711273 151.34394 
L 127.576 150.651706 
L 125.440727 149.830221 
L 123.305455 148.884053 
L 121.170182 147.818202 
L 119.034909 146.637984 
L 116.899636 145.348926 
L 114.764364 143.956667 
L 112.629091 142.466867 
L 110.493818 140.885135 
L 108.358545 139.216964 
L 106.223273 137.467688 
L 104.088 135.642434 
L 101.952727 133.746105 
L 99.817455 131.783359 
L 97.682182 129.758596 
L 95.546909 127.675959 
L 93.411636 125.539333 
L 91.276364 123.352351 
L 89.141091 121.118402 
L 87.005818 118.84064 
L 84.870545 116.521998 
L 82.735273 114.165199 
L 80.6 111.772768 
L 78.464727 109.347046 
L 76.329455 106.8902 
L 74.194182 104.40424 
L 72.058909 101.891025 
L 69.923636 99.352279 
L 67.788364 96.789599 
L 65.653091 94.204462 
L 63.517818 91.598241 
L 61.382545 88.972207 
L 59.247273 86.32754 
L 57.112 83.665335 
L 54.976727 80.98661 
L 52.841455 78.292312 
L 50.706182 75.58332 
L 48.570909 72.860453 
L 46.435636 70.124476 
L 44.300364 67.376099 
L 42.165091 64.615987 
L 40.029818 61.844759 
L 37.894545 59.062994 
L 35.759273 56.271235 
L 33.624 53.469988 
" style="fill:none;stroke:#000000;stroke-linecap:square;"/>
   </g>
   <g id="line2d_6">
    <path clip-path="url(#p515e3cd857)" d="M 245.016 65.585673 
L 242.880727 68.224578 
L 240.745455 70.849372 
L 238.610182 73.45939 
L 236.474909 76.053931 
L 234.339636 78.632251 
L 232.204364 81.193563 
L 230.069091 83.737035 
L 227.933818 86.261785 
L 225.798545 88.766881 
L 223.663273 91.251334 
L 221.528 93.714097 
L 219.392727 96.154062 
L 217.257455 98.570056 
L 215.122182 100.960833 
L 212.986909 103.32508 
L 210.851636 105.661401 
L 208.716364 107.968323 
L 206.581091 110.244286 
L 204.445818 112.487642 
L 202.310545 114.696649 
L 200.175273 116.86947 
L 198.04 119.004166 
L 195.904727 121.098696 
L 193.769455 123.150913 
L 191.634182 125.158564 
L 189.498909 127.119284 
L 187.363636 129.030604 
L 185.228364 130.889942 
L 183.093091 132.694616 
L 180.957818 134.44184 
L 178.822545 136.128736 
L 176.687273 137.752337 
L 174.552 139.309604 
L 172.416727 140.797435 
L 170.281455 142.212684 
L 168.146182 143.552179 
L 166.010909 144.812747 
L 163.875636 145.991236 
L 161.740364 147.084546 
L 159.605091 148.089662 
L 157.469818 149.003684 
L 155.334545 149.823864 
L 153.199273 150.547641 
L 151.064 151.172677 
L 148.928727 151.696893 
L 146.793455 152.118499 
L 144.658182 152.436025 
L 142.522909 152.648345 
L 140.387636 152.754697 
L 138.252364 152.754697 
L 136.117091 152.648345 
L 133.981818 152.436025 
L 131.846545 152.118499 
L 129.711273 151.696893 
L 127.576 151.172677 
L 125.440727 150.547641 
L 123.305455 149.823864 
L 121.170182 149.003684 
L 119.034909 148.089662 
L 116.899636 147.084546 
L 114.764364 145.991236 
L 112.629091 144.812747 
L 110.493818 143.552179 
L 108.358545 142.212684 
L 106.223273 140.797435 
L 104.088 139.309604 
L 101.952727 137.752337 
L 99.817455 136.128736 
L 97.682182 134.44184 
L 95.546909 132.694616 
L 93.411636 130.889942 
L 91.276364 129.030604 
L 89.141091 127.119284 
L 87.005818 125.158564 
L 84.870545 123.150913 
L 82.735273 121.098696 
L 80.6 119.004166 
L 78.464727 116.86947 
L 76.329455 114.696649 
L 74.194182 112.487642 
L 72.058909 110.244286 
L 69.923636 107.968323 
L 67.788364 105.661401 
L 65.653091 103.32508 
L 63.517818 100.960833 
L 61.382545 98.570056 
L 59.247273 96.154062 
L 57.112 93.714097 
L 54.976727 91.251334 
L 52.841455 88.766881 
L 50.706182 86.261785 
L 48.570909 83.737035 
L 46.435636 81.193563 
L 44.300364 78.632251 
L 42.165091 76.053931 
L 40.029818 73.45939 
L 37.894545 70.849372 
L 35.759273 68.224578 
L 33.624 65.585673 
" style="fill:none;stroke:#000000;stroke-linecap:square;"/>
   </g>
   <g id="line2d_7">
    <path clip-path="url(#p515e3cd857)" d="M 297.864 65.585673 
L 299.999273 68.224578 
L 302.134545 70.849372 
L 304.269818 73.45939 
L 306.405091 76.053931 
L 308.540364 78.632251 
L 310.675636 81.193563 
L 312.810909 83.737035 
L 314.946182 86.261785 
L 317.081455 88.766881 
L 319.216727 91.251334 
L 321.352 93.714097 
L 323.487273 96.154062 
L 325.622545 98.570056 
L 327.757818 100.960833 
L 329.893091 103.32508 
L 332.028364 105.661401 
L 334.163636 107.968323 
L 336.298909 110.244286 
L 338.434182 112.487642 
L 340.569455 114.696649 
L 342.704727 116.86947 
L 344.84 119.004166 
L 346.975273 121.098696 
L 349.110545 123.150913 
L 351.245818 125.158564 
L 353.381091 127.119284 
L 355.516364 129.030604 
L 357.651636 130.889942 
L 359.786909 132.694616 
L 361.922182 134.44184 
L 364.057455 136.128736 
L 366.192727 137.752337 
L 368.328 139.309604 
L 370.463273 140.797435 
L 372.598545 142.212684 
L 374.733818 143.552179 
L 376.869091 144.812747 
L 379.004364 145.991236 
L 381.139636 147.084546 
L 383.274909 148.089662 
L 385.410182 149.003684 
L 387.545455 149.823864 
L 389.680727 150.547641 
L 391.816 151.172677 
L 393.951273 151.696893 
L 396.086545 152.118499 
L 398.221818 152.436025 
L 400.357091 152.648345 
L 402.492364 152.754697 
L 404.627636 152.754697 
L 406.762909 152.648345 
L 408.898182 152.436025 
L 411.033455 152.118499 
L 413.168727 151.696893 
L 415.304 151.172677 
L 417.439273 150.547641 
L 419.574545 149.823864 
L 421.709818 149.003684 
L 423.845091 148.089662 
L 425.980364 147.084546 
L 428.115636 145.991236 
L 430.250909 144.812747 
L 432.386182 143.552179 
L 434.521455 142.212684 
L 436.656727 140.797435 
L 438.792 139.309604 
L 440.927273 137.752337 
L 443.062545 136.128736 
L 445.197818 134.44184 
L 447.333091 132.694616 
L 449.468364 130.889942 
L 451.603636 129.030604 
L 453.738909 127.119284 
L 455.874182 125.158564 
L 458.009455 123.150913 
L 460.144727 121.098696 
L 462.28 119.004166 
L 464.415273 116.86947 
L 466.550545 114.696649 
L 468.685818 112.487642 
L 470.821091 110.244286 
L 472.956364 107.968323 
L 475.091636 105.661401 
L 477.226909 103.32508 
L 479.362182 100.960833 
L 481.497455 98.570056 
L 483.632727 96.154062 
L 485.768 93.714097 
L 487.903273 91.251334 
L 490.038545 88.766881 
L 492.173818 86.261785 
L 494.309091 83.737035 
L 496.444364 81.193563 
L 498.579636 78.632251 
L 500.714909 76.053931 
L 502.850182 73.45939 
L 504.985455 70.849372 
L 507.120727 68.224578 
L 509.256 65.585673 
" style="fill:none;stroke:#000000;stroke-linecap:square;"/>
   </g>
   <g id="line2d_8">
    <path clip-path="url(#p515e3cd857)" d="M 297.864 53.469988 
L 299.999273 56.271235 
L 302.134545 59.062994 
L 304.269818 61.844759 
L 306.405091 64.615987 
L 308.540364 67.376099 
L 310.675636 70.124476 
L 312.810909 72.860453 
L 314.946182 75.58332 
L 317.081455 78.292312 
L 319.216727 80.98661 
L 321.352 83.665335 
L 323.487273 86.32754 
L 325.622545 88.972207 
L 327.757818 91.598241 
L 329.893091 94.204462 
L 332.028364 96.789599 
L 334.163636 99.352279 
L 336.298909 101.891025 
L 338.434182 104.40424 
L 340.569455 106.8902 
L 342.704727 109.347046 
L 344.84 111.772768 
L 346.975273 114.165199 
L 349.110545 116.521998 
L 351.245818 118.84064 
L 353.381091 121.118402 
L 355.516364 123.352351 
L 357.651636 125.539333 
L 359.786909 127.675959 
L 361.922182 129.758596 
L 364.057455 131.783359 
L 366.192727 133.746105 
L 368.328 135.642434 
L 370.463273 137.467688 
L 372.598545 139.216964 
L 374.733818 140.885135 
L 376.869091 142.466867 
L 379.004364 143.956667 
L 381.139636 145.348926 
L 383.274909 146.637984 
L 385.410182 147.818202 
L 387.545455 148.884053 
L 389.680727 149.830221 
L 391.816 150.651706 
L 393.951273 151.34394 
L 396.086545 151.902899 
L 398.221818 152.325211 
L 400.357091 152.608254 
L 402.492364 152.750231 
L 404.627636 152.750231 
L 406.762909 152.608254 
L 408.898182 152.325211 
L 411.033455 151.902899 
L 413.168727 151.34394 
L 415.304 150.651706 
L 417.439273 149.830221 
L 419.574545 148.884053 
L 421.709818 147.818202 
L 423.845091 146.637984 
L 425.980364 145.348926 
L 428.115636 143.956667 
L 430.250909 142.466867 
L 432.386182 140.885135 
L 434.521455 139.216964 
L 436.656727 137.467688 
L 438.792 135.642434 
L 440.927273 133.746105 
L 443.062545 131.783359 
L 445.197818 129.758596 
L 447.333091 127.675959 
L 449.468364 125.539333 
L 451.603636 123.352351 
L 453.738909 121.118402 
L 455.874182 118.84064 
L 458.009455 116.521998 
L 460.144727 114.165199 
L 462.28 111.772768 
L 464.415273 109.347046 
L 466.550545 106.8902 
L 468.685818 104.40424 
L 470.821091 101.891025 
L 472.956364 99.352279 
L 475.091636 96.789599 
L 477.226909 94.204462 
L 479.362182 91.598241 
L 481.497455 88.972207 
L 483.632727 86.32754 
L 485.768 83.665335 
L 487.903273 80.98661 
L 490.038545 78.292312 
L 492.173818 75.58332 
L 494.309091 72.860453 
L 496.444364 70.124476 
L 498.579636 67.376099 
L 500.714909 64.615987 
L 502.850182 61.844759 
L 504.985455 59.062994 
L 507.120727 56.271235 
L 509.256 53.469988 
" style="fill:none;stroke:#000000;stroke-linecap:square;"/>
   </g>
   <g id="line2d_9">
    <path clip-path="url(#p515e3cd857)" d="M 7.2 306.56 
L 535.68 306.56 
" style="fill:none;stroke:#000000;stroke-dasharray:6.000000,6.000000;stroke-dashoffset:0.0;"/>
   </g>
   <g id="line2d_10">
    <path clip-path="url(#p515e3cd857)" d="M 7.2 229.664 
L 535.68 229.664 
" style="fill:none;stroke:#808080;stroke-linecap:square;stroke-width:0.5;"/>
   </g>
   <g id="line2d_11">
    <path clip-path="url(#p515e3cd857)" d="M 271.44 421.904 
L 271.44 37.424 
" style="fill:none;stroke:#808080;stroke-linecap:square;stroke-width:0.5;"/>
   </g>
   <g id="text_1">
    <!-- $\mu$ -->
    <defs>
     <path d="M 2.78125 -18.796875 
Q 2.78125 -18.21875 2.875 -18.015625 
L 17.578125 41.015625 
Q 18.015625 42.4375 19.15625 43.3125 
Q 20.3125 44.1875 21.78125 44.1875 
Q 23.046875 44.1875 23.921875 43.421875 
Q 24.8125 42.671875 24.8125 41.40625 
Q 24.8125 41.109375 24.78125 40.9375 
Q 24.75 40.765625 24.703125 40.578125 
L 18.796875 17.1875 
Q 17.828125 13.03125 17.828125 10.015625 
Q 17.828125 6.296875 19.578125 3.90625 
Q 21.34375 1.515625 24.90625 1.515625 
Q 32.171875 1.515625 37.703125 10.59375 
Q 37.75 10.6875 37.765625 10.734375 
Q 37.796875 10.796875 37.796875 10.890625 
L 45.015625 39.890625 
Q 45.359375 41.21875 46.578125 42.15625 
Q 47.796875 43.109375 49.21875 43.109375 
Q 50.390625 43.109375 51.296875 42.328125 
Q 52.203125 41.546875 52.203125 40.28125 
Q 52.203125 39.703125 52.09375 39.5 
L 44.921875 10.6875 
Q 44.1875 7.859375 44.1875 5.8125 
Q 44.1875 1.515625 47.125 1.515625 
Q 50.25 1.515625 51.828125 5.375 
Q 53.421875 9.234375 54.59375 14.703125 
Q 54.78125 15.28125 55.421875 15.28125 
L 56.59375 15.28125 
Q 56.984375 15.28125 57.25 14.96875 
Q 57.515625 14.65625 57.515625 14.3125 
Q 55.765625 7.328125 53.6875 3.09375 
Q 51.609375 -1.125 46.921875 -1.125 
Q 43.609375 -1.125 41.046875 0.78125 
Q 38.484375 2.6875 37.703125 5.90625 
Q 35.203125 2.78125 31.859375 0.828125 
Q 28.515625 -1.125 24.8125 -1.125 
Q 18.5625 -1.125 14.984375 1.8125 
L 9.90625 -18.40625 
Q 9.625 -19.828125 8.453125 -20.703125 
Q 7.28125 -21.578125 5.8125 -21.578125 
Q 4.59375 -21.578125 3.6875 -20.8125 
Q 2.78125 -20.0625 2.78125 -18.796875 
" id="Cmmi10-b9"/>
    </defs>
    <g transform="translate(7.2 300.7928)scale(0.22 -0.22)">
     <use transform="translate(0.0 0.8125)" xlink:href="#Cmmi10-b9"/>
    </g>
   </g>
   <g id="text_2">
    <!-- $E(k)$ -->
    <defs>
     <path d="M 5.328125 1.8125 
Q 5.328125 2.390625 5.421875 2.6875 
L 19.921875 60.5 
Q 20.3125 62.203125 20.40625 63.1875 
Q 20.40625 64.796875 13.921875 64.796875 
Q 12.890625 64.796875 12.890625 66.109375 
Q 12.9375 66.359375 13.109375 66.984375 
Q 13.28125 67.625 13.546875 67.96875 
Q 13.8125 68.3125 14.3125 68.3125 
L 27.78125 69.390625 
L 28.078125 69.390625 
Q 28.078125 69.28125 28.421875 69.109375 
Q 28.765625 68.953125 28.8125 68.890625 
Q 29 68.40625 29 68.109375 
L 18.5 26.3125 
Q 22.125 27.828125 27.609375 33.515625 
Q 33.109375 39.203125 36.203125 41.6875 
Q 39.3125 44.1875 44 44.1875 
Q 46.78125 44.1875 48.734375 42.28125 
Q 50.6875 40.375 50.6875 37.59375 
Q 50.6875 35.84375 49.953125 34.34375 
Q 49.21875 32.859375 47.890625 31.921875 
Q 46.578125 31 44.828125 31 
Q 43.21875 31 42.109375 32 
Q 41.015625 33.015625 41.015625 34.625 
Q 41.015625 37.015625 42.703125 38.640625 
Q 44.390625 40.28125 46.78125 40.28125 
Q 45.796875 41.609375 43.796875 41.609375 
Q 40.828125 41.609375 38.0625 39.890625 
Q 35.296875 38.1875 32.09375 34.984375 
Q 28.90625 31.78125 26.265625 29.125 
Q 23.640625 26.46875 21.390625 25.09375 
Q 27.296875 24.421875 31.640625 22 
Q 35.984375 19.578125 35.984375 14.59375 
Q 35.984375 13.578125 35.59375 12.015625 
Q 34.71875 8.25 34.71875 6 
Q 34.71875 1.515625 37.796875 1.515625 
Q 41.40625 1.515625 43.28125 5.46875 
Q 45.171875 9.421875 46.390625 14.703125 
Q 46.578125 15.28125 47.21875 15.28125 
L 48.390625 15.28125 
Q 48.78125 15.28125 49.046875 15.03125 
Q 49.3125 14.796875 49.3125 14.40625 
Q 49.3125 14.3125 49.21875 14.109375 
Q 45.453125 -1.125 37.59375 -1.125 
Q 34.765625 -1.125 32.59375 0.1875 
Q 30.421875 1.515625 29.25 3.78125 
Q 28.078125 6.0625 28.078125 8.890625 
Q 28.078125 10.5 28.515625 12.203125 
Q 28.8125 13.375 28.8125 14.40625 
Q 28.8125 18.265625 25.390625 20.265625 
Q 21.96875 22.265625 17.578125 22.703125 
L 12.5 2.296875 
Q 12.109375 0.78125 10.984375 -0.171875 
Q 9.859375 -1.125 8.40625 -1.125 
Q 7.125 -1.125 6.21875 -0.265625 
Q 5.328125 0.59375 5.328125 1.8125 
" id="Cmmi10-6b"/>
     <path d="M 6.5 -25 
Q 5.609375 -25 5.609375 -24.125 
Q 5.609375 -23.6875 5.8125 -23.484375 
Q 22.90625 -6.78125 22.90625 25 
Q 22.90625 56.78125 6 73.296875 
Q 5.609375 73.53125 5.609375 74.125 
Q 5.609375 74.46875 5.875 74.734375 
Q 6.15625 75 6.5 75 
L 7.421875 75 
Q 7.71875 75 7.90625 74.8125 
Q 15.09375 69.140625 19.875 61.03125 
Q 24.65625 52.9375 26.875 43.75 
Q 29.109375 34.578125 29.109375 25 
Q 29.109375 17.921875 27.90625 11.0625 
Q 26.703125 4.203125 24.09375 -2.453125 
Q 21.484375 -9.125 17.484375 -14.765625 
Q 13.484375 -20.40625 7.90625 -24.8125 
Q 7.71875 -25 7.421875 -25 
z
" id="Cmr10-29"/>
     <path d="M 4.6875 0 
Q 3.71875 0 3.71875 1.3125 
Q 3.765625 1.5625 3.90625 2.171875 
Q 4.046875 2.78125 4.3125 3.140625 
Q 4.59375 3.515625 4.984375 3.515625 
Q 11.078125 3.515625 13.484375 4.203125 
Q 14.796875 4.640625 15.375 6.890625 
L 29.109375 61.8125 
Q 29.296875 62.796875 29.296875 63.1875 
Q 29.296875 64.265625 28.078125 64.40625 
Q 26.21875 64.796875 20.90625 64.796875 
Q 19.921875 64.796875 19.921875 66.109375 
Q 19.96875 66.359375 20.109375 66.96875 
Q 20.265625 67.578125 20.53125 67.9375 
Q 20.796875 68.3125 21.1875 68.3125 
L 75.390625 68.3125 
Q 76.421875 68.3125 76.421875 67 
L 74.03125 46.296875 
Q 74.03125 46.046875 73.65625 45.71875 
Q 73.296875 45.40625 73 45.40625 
L 72.125 45.40625 
Q 71.09375 45.40625 71.09375 46.6875 
Q 71.6875 51.5625 71.6875 53.90625 
Q 71.6875 57.90625 70.3125 60.125 
Q 68.953125 62.359375 66.671875 63.328125 
Q 64.40625 64.3125 61.640625 64.546875 
Q 58.890625 64.796875 54.390625 64.796875 
L 43.015625 64.796875 
Q 40.28125 64.796875 39.40625 64.328125 
Q 38.53125 63.875 37.796875 61.375 
L 31.78125 37.203125 
L 39.59375 37.203125 
Q 44.671875 37.203125 47.265625 37.90625 
Q 49.859375 38.625 51.359375 40.859375 
Q 52.875 43.109375 54.109375 48 
Q 54.203125 48.34375 54.46875 48.609375 
Q 54.734375 48.875 55.078125 48.875 
L 56 48.875 
Q 56.984375 48.875 56.984375 47.609375 
L 50.78125 22.90625 
Q 50.59375 22.015625 49.8125 22.015625 
L 48.875 22.015625 
Q 47.90625 22.015625 47.90625 23.296875 
Q 48.875 27.296875 48.875 29.203125 
Q 48.875 32.125 46.234375 32.90625 
Q 43.609375 33.6875 39.203125 33.6875 
L 30.90625 33.6875 
L 24.125 6.5 
Q 23.6875 5.28125 23.6875 4.296875 
Q 23.6875 3.515625 27.09375 3.515625 
L 39.203125 3.515625 
Q 46.4375 3.515625 50.921875 4.640625 
Q 55.421875 5.765625 58.375 8.21875 
Q 61.328125 10.6875 63.46875 14.5 
Q 65.625 18.3125 68.703125 25.59375 
Q 68.890625 26.21875 69.578125 26.21875 
L 70.515625 26.21875 
Q 70.90625 26.21875 71.1875 25.875 
Q 71.484375 25.53125 71.484375 25.09375 
Q 71.484375 24.90625 71.390625 24.703125 
L 61.078125 0.59375 
Q 60.890625 0 60.296875 0 
z
" id="Cmmi10-45"/>
     <path d="M 31 -24.8125 
Q 25.4375 -20.40625 21.40625 -14.71875 
Q 17.390625 -9.03125 14.8125 -2.578125 
Q 12.25 3.859375 10.984375 10.890625 
Q 9.71875 17.921875 9.71875 25 
Q 9.71875 32.171875 10.984375 39.203125 
Q 12.25 46.234375 14.859375 52.734375 
Q 17.484375 59.234375 21.53125 64.890625 
Q 25.59375 70.5625 31 74.8125 
Q 31 75 31.5 75 
L 32.421875 75 
Q 32.71875 75 32.953125 74.734375 
Q 33.203125 74.46875 33.203125 74.125 
Q 33.203125 73.6875 33.015625 73.484375 
Q 28.125 68.703125 24.875 63.234375 
Q 21.625 57.765625 19.640625 51.578125 
Q 17.671875 45.40625 16.796875 38.78125 
Q 15.921875 32.171875 15.921875 25 
Q 15.921875 -6.78125 32.90625 -23.296875 
Q 33.203125 -23.578125 33.203125 -24.125 
Q 33.203125 -24.359375 32.9375 -24.671875 
Q 32.671875 -25 32.421875 -25 
L 31.5 -25 
Q 31 -25 31 -24.8125 
" id="Cmr10-28"/>
    </defs>
    <g transform="translate(249.0 23.7)scale(0.22 -0.22)">
     <use xlink:href="#Cmmi10-45"/>
     <use transform="translate(73.779296875 0.0)" xlink:href="#Cmr10-28"/>
     <use transform="translate(112.59765625 0.0)" xlink:href="#Cmmi10-6b"/>
     <use transform="translate(164.599609375 0.0)" xlink:href="#Cmr10-29"/>
    </g>
   </g>
   <g id="patch_2">
    <path d="M 144.32 154.765288 
L 144.32 154.765288 
L 134.32 154.765288 
L 134.32 154.765288 
M 139.32 154.765288 
Q 139.32 218.609516 139.32 282.453743 
M 134.32 282.453743 
L 134.32 282.453743 
L 144.32 282.453743 
L 144.32 282.453743 
" style="fill:none;stroke:#000000;stroke-linecap:round;stroke-width:0.5;"/>
   </g>
   <g id="text_3">
    <!-- $\Delta$ -->
    <defs>
     <path d="M 5.421875 0 
Q 4.59375 0 4.59375 0.78125 
Q 4.640625 0.875 4.65625 0.921875 
Q 4.6875 0.984375 4.6875 1.125 
L 39.109375 70.515625 
Q 39.546875 71.578125 40.921875 71.578125 
L 42.28125 71.578125 
Q 43.65625 71.578125 44.09375 70.515625 
L 78.515625 1.125 
Q 78.5625 1.03125 78.578125 0.953125 
Q 78.609375 0.875 78.609375 0.78125 
Q 78.609375 0 77.78125 0 
z
M 12.015625 8.015625 
L 64.703125 8.015625 
L 38.375 61.078125 
z
" id="Cmr10-a2"/>
    </defs>
    <g transform="translate(147.2472 223.8968)scale(0.22 -0.22)">
     <use transform="translate(0.0 0.421875)" xlink:href="#Cmr10-a2"/>
    </g>
   </g>
   <g id="patch_3">
    <path d="M 134.32 326.667877 
L 134.32 326.667877 
L 144.32 326.667877 
L 144.32 326.667877 
M 139.32 326.667877 
Q 139.32 306.561159 139.32 286.45444 
M 144.32 286.45444 
L 144.32 286.45444 
L 134.32 286.45444 
L 134.32 286.45444 
" style="fill:none;stroke:#000000;stroke-linecap:round;stroke-width:0.5;"/>
   </g>
   <g id="text_4">
    <!-- $2 \lambda$ -->
    <defs>
     <path d="M 5.078125 1.703125 
Q 5.078125 3.171875 6.390625 4.5 
L 34.515625 32.078125 
L 24.609375 59.90625 
Q 23.4375 63.09375 22.140625 64.9375 
Q 20.84375 66.796875 18.40625 66.796875 
Q 17.28125 66.796875 17.28125 68.109375 
Q 17.390625 68.703125 17.78125 69.046875 
Q 18.171875 69.390625 18.796875 69.390625 
Q 29.296875 69.390625 31.5 63.1875 
L 51.8125 6.5 
Q 53.125 2.25 54.5 0.78125 
Q 54.984375 0.046875 54.984375 -0.203125 
Q 54.984375 -1.125 54.203125 -1.125 
L 48.78125 -1.125 
Q 46.296875 -0.390625 44.828125 3.21875 
L 35.6875 28.8125 
L 11.53125 0.390625 
Q 9.71875 -1.3125 8.296875 -1.3125 
Q 7.03125 -1.3125 6.046875 -0.4375 
Q 5.078125 0.4375 5.078125 1.703125 
" id="Cmmi10-b8"/>
     <path d="M 4.984375 0 
L 4.984375 2.6875 
Q 4.984375 2.9375 5.171875 3.21875 
L 20.703125 20.40625 
Q 24.21875 24.21875 26.40625 26.796875 
Q 28.609375 29.390625 30.75 32.765625 
Q 32.90625 36.140625 34.15625 39.625 
Q 35.40625 43.109375 35.40625 47.015625 
Q 35.40625 51.125 33.890625 54.859375 
Q 32.375 58.59375 29.375 60.84375 
Q 26.375 63.09375 22.125 63.09375 
Q 17.78125 63.09375 14.3125 60.46875 
Q 10.84375 57.859375 9.421875 53.71875 
Q 9.8125 53.8125 10.5 53.8125 
Q 12.75 53.8125 14.328125 52.296875 
Q 15.921875 50.78125 15.921875 48.390625 
Q 15.921875 46.09375 14.328125 44.5 
Q 12.75 42.921875 10.5 42.921875 
Q 8.15625 42.921875 6.5625 44.546875 
Q 4.984375 46.1875 4.984375 48.390625 
Q 4.984375 52.15625 6.390625 55.4375 
Q 7.8125 58.734375 10.46875 61.296875 
Q 13.140625 63.875 16.484375 65.234375 
Q 19.828125 66.609375 23.578125 66.609375 
Q 29.296875 66.609375 34.21875 64.1875 
Q 39.15625 61.765625 42.03125 57.34375 
Q 44.921875 52.9375 44.921875 47.015625 
Q 44.921875 42.671875 43.015625 38.765625 
Q 41.109375 34.859375 38.125 31.65625 
Q 35.15625 28.46875 30.515625 24.40625 
Q 25.875 20.359375 24.421875 19 
L 13.09375 8.109375 
L 22.703125 8.109375 
Q 29.78125 8.109375 34.546875 8.21875 
Q 39.3125 8.34375 39.59375 8.59375 
Q 40.765625 9.859375 42 17.828125 
L 44.921875 17.828125 
L 42.09375 0 
z
" id="Cmr10-32"/>
    </defs>
    <g transform="translate(147.2472 326.7452)scale(0.22 -0.22)">
     <use transform="translate(0.0 0.609375)" xlink:href="#Cmr10-32"/>
     <use transform="translate(50.0 0.609375)" xlink:href="#Cmmi10-b8"/>
    </g>
   </g>
   <g id="text_5">
    <!-- $\tau = -$ -->
    <defs>
     <path d="M 15.578125 1.515625 
Q 15.578125 2.203125 15.71875 2.59375 
L 26.21875 36.921875 
L 17.1875 36.921875 
Q 13.53125 36.921875 10.34375 34.625 
Q 7.171875 32.328125 5.078125 28.8125 
Q 4.890625 28.421875 4.5 28.421875 
L 3.328125 28.421875 
Q 2.390625 28.421875 2.390625 29.390625 
Q 2.390625 29.59375 2.59375 29.984375 
Q 5.859375 35.546875 9.59375 39.328125 
Q 13.328125 43.109375 18.015625 43.109375 
L 48.6875 43.109375 
Q 49.75 43.109375 50.484375 42.375 
Q 51.21875 41.65625 51.21875 40.578125 
Q 51.21875 39.109375 50.171875 38.015625 
Q 49.125 36.921875 47.609375 36.921875 
L 29.5 36.921875 
L 22.796875 2.390625 
Q 22.40625 0.78125 21.328125 -0.265625 
Q 20.265625 -1.3125 18.609375 -1.3125 
Q 17.328125 -1.3125 16.453125 -0.5 
Q 15.578125 0.296875 15.578125 1.515625 
" id="Cmmi10-bf"/>
     <path d="M 7.515625 13.28125 
Q 6.6875 13.28125 6.140625 13.90625 
Q 5.609375 14.546875 5.609375 15.28125 
Q 5.609375 16.109375 6.140625 16.6875 
Q 6.6875 17.28125 7.515625 17.28125 
L 70.3125 17.28125 
Q 71.046875 17.28125 71.578125 16.6875 
Q 72.125 16.109375 72.125 15.28125 
Q 72.125 14.546875 71.578125 13.90625 
Q 71.046875 13.28125 70.3125 13.28125 
z
M 7.515625 32.71875 
Q 6.6875 32.71875 6.140625 33.296875 
Q 5.609375 33.890625 5.609375 34.71875 
Q 5.609375 35.453125 6.140625 36.078125 
Q 6.6875 36.71875 7.515625 36.71875 
L 70.3125 36.71875 
Q 71.046875 36.71875 71.578125 36.078125 
Q 72.125 35.453125 72.125 34.71875 
Q 72.125 33.890625 71.578125 33.296875 
Q 71.046875 32.71875 70.3125 32.71875 
z
" id="Cmr10-3d"/>
     <path d="M 10.203125 23 
Q 9.375 23 8.828125 23.625 
Q 8.296875 24.265625 8.296875 25 
Q 8.296875 25.734375 8.828125 26.359375 
Q 9.375 27 10.203125 27 
L 67.578125 27 
Q 68.359375 27 68.875 26.359375 
Q 69.390625 25.734375 69.390625 25 
Q 69.390625 24.265625 68.875 23.625 
Q 68.359375 23 67.578125 23 
z
" id="Cmsy10-a1"/>
    </defs>
    <g transform="translate(7.2 225.8192)scale(0.22 -0.22)">
     <use transform="translate(0.0 0.890625)" xlink:href="#Cmmi10-bf"/>
     <use transform="translate(61.259765625 0.890625)" xlink:href="#Cmr10-3d"/>
     <use transform="translate(174.0625 0.890625)" xlink:href="#Cmsy10-a1"/>
    </g>
   </g>
   <g id="text_6">
    <!-- $\tau = +$ -->
    <defs>
     <path d="M 7.515625 23 
Q 6.6875 23 6.140625 23.625 
Q 5.609375 24.265625 5.609375 25 
Q 5.609375 25.734375 6.140625 26.359375 
Q 6.6875 27 7.515625 27 
L 36.921875 27 
L 36.921875 56.5 
Q 36.921875 57.28125 37.5 57.78125 
Q 38.09375 58.296875 38.921875 58.296875 
Q 39.65625 58.296875 40.28125 57.78125 
Q 40.921875 57.28125 40.921875 56.5 
L 40.921875 27 
L 70.3125 27 
Q 71.046875 27 71.578125 26.359375 
Q 72.125 25.734375 72.125 25 
Q 72.125 24.265625 71.578125 23.625 
Q 71.046875 23 70.3125 23 
L 40.921875 23 
L 40.921875 -6.5 
Q 40.921875 -7.28125 40.28125 -7.78125 
Q 39.65625 -8.296875 38.921875 -8.296875 
Q 38.09375 -8.296875 37.5 -7.78125 
Q 36.921875 -7.28125 36.921875 -6.5 
L 36.921875 23 
z
" id="Cmr10-2b"/>
    </defs>
    <g transform="translate(476.28 225.8192)scale(0.22 -0.22)">
     <use transform="translate(0.0 0.703125)" xlink:href="#Cmmi10-bf"/>
     <use transform="translate(61.259765625 0.703125)" xlink:href="#Cmr10-3d"/>
     <use transform="translate(174.0625 0.703125)" xlink:href="#Cmr10-2b"/>
    </g>
   </g>
   <g id="text_7">
    <!-- $n = -$ -->
    <defs>
     <path d="M 7.71875 1.703125 
Q 7.71875 2.296875 7.8125 2.59375 
L 15.28125 32.421875 
Q 16.015625 35.203125 16.015625 37.3125 
Q 16.015625 41.609375 13.09375 41.609375 
Q 9.96875 41.609375 8.453125 37.859375 
Q 6.9375 34.125 5.515625 28.421875 
Q 5.515625 28.125 5.21875 27.953125 
Q 4.9375 27.78125 4.6875 27.78125 
L 3.515625 27.78125 
Q 3.171875 27.78125 2.921875 28.140625 
Q 2.6875 28.515625 2.6875 28.8125 
Q 3.765625 33.15625 4.765625 36.171875 
Q 5.765625 39.203125 7.890625 41.6875 
Q 10.015625 44.1875 13.1875 44.1875 
Q 16.9375 44.1875 19.8125 41.8125 
Q 22.703125 39.453125 22.703125 35.796875 
Q 25.6875 39.703125 29.6875 41.9375 
Q 33.6875 44.1875 38.1875 44.1875 
Q 41.75 44.1875 44.328125 42.96875 
Q 46.921875 41.75 48.359375 39.28125 
Q 49.8125 36.8125 49.8125 33.40625 
Q 49.8125 29.296875 47.96875 23.484375 
Q 46.140625 17.671875 43.40625 10.5 
Q 42 7.234375 42 4.5 
Q 42 1.515625 44.28125 1.515625 
Q 48.1875 1.515625 50.796875 5.703125 
Q 53.421875 9.90625 54.5 14.703125 
Q 54.6875 15.28125 55.328125 15.28125 
L 56.5 15.28125 
Q 56.890625 15.28125 57.15625 15.03125 
Q 57.421875 14.796875 57.421875 14.40625 
Q 57.421875 14.3125 57.328125 14.109375 
Q 55.953125 8.453125 52.5625 3.65625 
Q 49.171875 -1.125 44.09375 -1.125 
Q 40.578125 -1.125 38.078125 1.296875 
Q 35.59375 3.71875 35.59375 7.171875 
Q 35.59375 9.03125 36.375 11.078125 
Q 37.640625 14.359375 39.28125 18.890625 
Q 40.921875 23.4375 41.96875 27.578125 
Q 43.015625 31.734375 43.015625 34.90625 
Q 43.015625 37.703125 41.859375 39.65625 
Q 40.71875 41.609375 37.984375 41.609375 
Q 34.328125 41.609375 31.25 39.984375 
Q 28.171875 38.375 25.875 35.71875 
Q 23.578125 33.0625 21.6875 29.390625 
L 14.890625 2.203125 
Q 14.546875 0.828125 13.34375 -0.140625 
Q 12.15625 -1.125 10.6875 -1.125 
Q 9.46875 -1.125 8.59375 -0.34375 
Q 7.71875 0.4375 7.71875 1.703125 
" id="Cmmi10-6e"/>
    </defs>
    <g transform="translate(276.7248 250.2253625)scale(0.22 -0.22)">
     <use transform="translate(0.0 0.8125)" xlink:href="#Cmmi10-6e"/>
     <use transform="translate(77.568359375 0.8125)" xlink:href="#Cmr10-3d"/>
     <use transform="translate(190.37109375 0.8125)" xlink:href="#Cmsy10-a1"/>
    </g>
   </g>
   <g id="text_8">
    <!-- $n = +$ -->
    <g transform="translate(276.7248 221.2438875)scale(0.22 -0.22)">
     <use transform="translate(0.0 0.703125)" xlink:href="#Cmmi10-6e"/>
     <use transform="translate(77.568359375 0.703125)" xlink:href="#Cmr10-3d"/>
     <use transform="translate(190.37109375 0.703125)" xlink:href="#Cmr10-2b"/>
    </g>
   </g>
   <g id="text_9">
    <!-- $\downarrow$ -->
    <defs>
     <path d="M 23.875 -18.5 
Q 23.046875 -12.703125 20.109375 -7.9375 
Q 17.1875 -3.171875 12.59375 0.125 
Q 8.015625 3.421875 2.390625 4.6875 
Q 1.703125 4.9375 1.703125 5.609375 
L 1.703125 7.8125 
Q 1.703125 8.15625 2.09375 8.421875 
Q 2.484375 8.6875 2.78125 8.6875 
Q 2.875 8.6875 3.078125 8.59375 
Q 9.28125 7.28125 14.46875 3.5625 
Q 19.671875 -0.140625 23 -5.609375 
L 23 67.578125 
Q 23 68.359375 23.625 68.875 
Q 24.265625 69.390625 25 69.390625 
Q 25.734375 69.390625 26.359375 68.875 
Q 27 68.359375 27 67.578125 
L 27 -5.609375 
Q 30.328125 -0.140625 35.578125 3.5625 
Q 40.828125 7.28125 46.921875 8.59375 
Q 47.125 8.6875 47.21875 8.6875 
Q 47.609375 8.6875 47.953125 8.4375 
Q 48.296875 8.203125 48.296875 7.8125 
L 48.296875 5.609375 
Q 48.296875 5.421875 48.09375 5.09375 
Q 47.90625 4.78125 47.609375 4.6875 
Q 39.203125 2.875 33.25 -3.5625 
Q 27.296875 -10.015625 26.125 -18.5 
Q 25.875 -19.390625 25 -19.390625 
Q 24.125 -19.390625 23.875 -18.5 
" id="Cmsy10-23"/>
    </defs>
    <g transform="translate(8.3096 379.175099928)scale(0.22 -0.22)">
     <use transform="translate(17.55859375 0.609375)" xlink:href="#Cmsy10-23"/>
    </g>
   </g>
   <g id="text_10">
    <!-- $\uparrow$ -->
    <defs>
     <path d="M 23 -17.578125 
L 23 55.609375 
Q 20.75 51.90625 17.703125 49.0625 
Q 14.65625 46.234375 10.90625 44.25 
Q 7.171875 42.28125 3.078125 41.40625 
Q 2.875 41.3125 2.78125 41.3125 
Q 1.703125 41.3125 1.703125 42.1875 
L 1.703125 44.390625 
Q 1.703125 45.0625 2.390625 45.3125 
Q 8.015625 46.578125 12.59375 49.875 
Q 17.1875 53.171875 20.109375 57.9375 
Q 23.046875 62.703125 23.875 68.5 
Q 24.078125 68.953125 24.359375 69.171875 
Q 24.65625 69.390625 25 69.390625 
Q 25.34375 69.390625 25.6875 69.109375 
Q 26.03125 68.84375 26.125 68.5 
Q 27.296875 60.015625 33.203125 53.609375 
Q 39.109375 47.21875 47.609375 45.3125 
Q 47.90625 45.21875 48.09375 44.890625 
Q 48.296875 44.578125 48.296875 44.390625 
L 48.296875 42.1875 
Q 48.296875 41.890625 47.953125 41.59375 
Q 47.609375 41.3125 47.21875 41.3125 
Q 47.125 41.3125 46.921875 41.40625 
Q 42.828125 42.28125 39.09375 44.25 
Q 35.359375 46.234375 32.296875 49.0625 
Q 29.25 51.90625 27 55.609375 
L 27 -17.578125 
Q 27 -18.359375 26.359375 -18.875 
Q 25.734375 -19.390625 25 -19.390625 
Q 24.265625 -19.390625 23.625 -18.875 
Q 23 -18.359375 23 -17.578125 
" id="Cmsy10-22"/>
    </defs>
    <g transform="translate(8.3096 432.566489136)scale(0.22 -0.22)">
     <use transform="translate(17.55859375 0.609375)" xlink:href="#Cmsy10-22"/>
    </g>
   </g>
   <g id="text_11">
    <!-- $\downarrow$ -->
    <g transform="translate(515.6504 432.566489136)scale(0.22 -0.22)">
     <use transform="translate(17.55859375 0.609375)" xlink:href="#Cmsy10-23"/>
    </g>
   </g>
   <g id="text_12">
    <!-- $\uparrow$ -->
    <g transform="translate(515.6504 379.175099928)scale(0.22 -0.22)">
     <use transform="translate(17.55859375 0.609375)" xlink:href="#Cmsy10-22"/>
    </g>
   </g>
   <g id="text_13">
    <!-- $\downarrow$ -->
    <g transform="translate(8.3096 48.8946750721)scale(0.22 -0.22)">
     <use transform="translate(17.55859375 0.609375)" xlink:href="#Cmsy10-23"/>
    </g>
   </g>
   <g id="text_14">
    <!-- $\uparrow$ -->
    <g transform="translate(8.3096 82.3022358644)scale(0.22 -0.22)">
     <use transform="translate(17.55859375 0.609375)" xlink:href="#Cmsy10-22"/>
    </g>
   </g>
   <g id="text_15">
    <!-- $\downarrow$ -->
    <g transform="translate(515.6504 82.3022358644)scale(0.22 -0.22)">
     <use transform="translate(17.55859375 0.609375)" xlink:href="#Cmsy10-23"/>
    </g>
   </g>
   <g id="text_16">
    <!-- $\uparrow$ -->
    <g transform="translate(515.6504 48.8946750721)scale(0.22 -0.22)">
     <use transform="translate(17.55859375 0.609375)" xlink:href="#Cmsy10-22"/>
    </g>
   </g>
  </g>
 </g>
 <defs>
  <clipPath id="p515e3cd857">
   <rect height="384.48" width="528.48" x="7.2" y="37.424"/>
  </clipPath>
 </defs>
</svg>
