<?xml version="1.0" encoding="utf-8" standalone="no"?>
<!DOCTYPE svg PUBLIC "-//W3C//DTD SVG 1.1//EN"
  "http://www.w3.org/Graphics/SVG/1.1/DTD/svg11.dtd">
<!-- Created with matplotlib (http://matplotlib.org/) -->
<svg height="432pt" version="1.1" viewBox="0 0 576 432" width="576pt" xmlns="http://www.w3.org/2000/svg" xmlns:xlink="http://www.w3.org/1999/xlink">
 <defs>
  <style type="text/css">
*{stroke-linecap:butt;stroke-linejoin:round;stroke-miterlimit:100000;}
  </style>
 </defs>
 <g id="figure_1">
  <g id="patch_1">
   <path d="M 0 432 
L 576 432 
L 576 0 
L 0 0 
L 0 432 
z
" style="fill:none;"/>
  </g>
  <g id="axes_1">
   <g id="patch_2">
    <path d="M 73.670625 185.208047 
L 549.55125 185.208047 
L 549.55125 24.247969 
L 73.670625 24.247969 
L 73.670625 185.208047 
z
" style="fill:none;"/>
   </g>
   <g id="line2d_1">
    <path clip-path="url(#p7a3c311e97)" d="M 73.670625 64.318226 
L 78.4775 64.45335 
L 83.284375 64.588342 
L 88.09125 64.723239 
L 92.898125 64.858085 
L 97.705 64.992928 
L 102.511875 65.127819 
L 107.31875 65.262819 
L 112.125625 65.397992 
L 116.9325 65.533411 
L 121.739375 65.669158 
L 126.54625 65.805325 
L 131.353125 65.942016 
L 136.16 66.079349 
L 140.966875 66.21746 
L 145.77375 66.356502 
L 150.580625 66.496652 
L 155.3875 66.638114 
L 160.194375 66.781125 
L 165.00125 66.925962 
L 169.808125 67.072947 
L 174.615 67.222462 
L 179.421875 67.37496 
L 184.22875 67.53098 
L 189.035625 67.691171 
L 193.8425 67.85632 
L 198.649375 68.027385 
L 203.45625 68.20555 
L 208.263125 68.392285 
L 213.07 68.589437 
L 217.876875 68.799358 
L 222.68375 69.025074 
L 227.490625 69.270544 
L 232.2975 69.541024 
L 237.104375 69.843627 
L 241.91125 70.188183 
L 246.718125 70.588617 
L 251.525 71.065237 
L 256.331875 71.648711 
L 261.13875 72.387403 
L 265.945625 73.36191 
L 270.7525 74.716849 
L 275.559375 76.740998 
L 280.36625 80.122042 
L 285.173125 87.284961 
M 338.04875 123.830933 
L 342.855625 136.65148 
L 347.6625 144.330037 
L 352.469375 149.715966 
L 357.27625 153.766476 
L 362.083125 156.945783 
L 366.89 159.517239 
L 371.696875 161.644621 
L 376.50375 163.43631 
L 381.310625 164.967373 
L 386.1175 166.291678 
L 390.924375 167.448995 
L 395.73125 168.469385 
L 400.538125 169.376024 
L 405.345 170.187089 
L 410.151875 170.917047 
L 414.95875 171.577564 
L 419.765625 172.178155 
L 424.5725 172.726664 
L 429.379375 173.229612 
L 434.18625 173.692474 
L 438.993125 174.119874 
L 443.8 174.515748 
L 448.606875 174.883471 
L 453.41375 175.225947 
L 458.220625 175.545696 
L 463.0275 175.84491 
L 467.834375 176.125508 
L 472.64125 176.389176 
L 477.448125 176.637402 
L 482.255 176.871504 
L 487.061875 177.092655 
L 491.86875 177.301898 
L 496.675625 177.500171 
L 501.4825 177.688312 
L 506.289375 177.867078 
L 511.09625 178.037152 
L 515.903125 178.19915 
L 520.71 178.353634 
L 525.516875 178.501114 
L 530.32375 178.642052 
L 535.130625 178.776874 
L 539.9375 178.905969 
L 544.744375 179.029691 
L 549.55125 179.148369 
" style="fill:none;stroke:#000000;stroke-linecap:square;stroke-width:2.0;"/>
   </g>
   <g id="line2d_2">
    <path clip-path="url(#p7a3c311e97)" d="M 73.670625 26.300673 
L 78.4775 26.428547 
L 83.284375 26.556577 
L 88.09125 26.684812 
L 92.898125 26.813305 
L 97.705 26.942118 
L 102.511875 27.071316 
L 107.31875 27.200974 
L 112.125625 27.331176 
L 116.9325 27.462014 
L 121.739375 27.593594 
L 126.54625 27.726035 
L 131.353125 27.859471 
L 136.16 27.994056 
L 140.966875 28.129965 
L 145.77375 28.267398 
L 150.580625 28.406586 
L 155.3875 28.547796 
L 160.194375 28.691339 
L 165.00125 28.837576 
L 169.808125 28.986932 
L 174.615 29.139909 
L 179.421875 29.297101 
L 184.22875 29.459221 
L 189.035625 29.627124 
L 193.8425 29.801846 
L 198.649375 29.984655 
L 203.45625 30.177113 
L 208.263125 30.381163 
L 213.07 30.59925 
L 217.876875 30.834485 
L 222.68375 31.090874 
L 227.490625 31.373661 
L 232.2975 31.68981 
L 237.104375 32.048747 
L 241.91125 32.463509 
L 246.718125 32.952564 
L 251.525 33.542857 
L 256.331875 34.275093 
L 261.13875 35.213483 
L 265.945625 36.465064 
L 270.7525 38.221953 
L 275.559375 40.867886 
L 280.36625 45.316911 
L 285.173125 54.792896 
M 338.04875 103.465264 
L 342.855625 120.569247 
L 347.6625 130.810526 
L 352.469375 137.993043 
L 357.27625 143.394237 
L 362.083125 147.633488 
L 366.89 151.062113 
L 371.696875 153.898572 
L 376.50375 156.287415 
L 381.310625 158.328756 
L 386.1175 160.094431 
L 390.924375 161.637472 
L 395.73125 162.997962 
L 400.538125 164.206806 
L 405.345 165.288239 
L 410.151875 166.261549 
L 414.95875 167.14229 
L 419.765625 167.943148 
L 424.5725 168.674579 
L 429.379375 169.345281 
L 434.18625 169.962548 
L 438.993125 170.532545 
L 443.8 171.060523 
L 448.606875 171.550977 
L 453.41375 172.007781 
L 458.220625 172.434292 
L 463.0275 172.833434 
L 467.834375 173.207763 
L 472.64125 173.559529 
L 477.448125 173.890714 
L 482.255 174.203075 
L 487.061875 174.498174 
L 491.86875 174.777405 
L 496.675625 175.042015 
L 501.4825 175.293124 
L 506.289375 175.531739 
L 511.09625 175.758769 
L 515.903125 175.975039 
L 520.71 176.181295 
L 525.516875 176.378217 
L 530.32375 176.566424 
L 535.130625 176.74648 
L 539.9375 176.918904 
L 544.744375 177.08417 
L 549.55125 177.242715 
" style="fill:none;stroke:#000000;stroke-dasharray:6.000000,6.000000;stroke-dashoffset:0.0;stroke-width:2.0;"/>
   </g>
   <g id="line2d_3">
    <path clip-path="url(#p7a3c311e97)" d="M 73.670625 44.897666 
L 78.4775 45.019003 
L 83.284375 45.140413 
L 88.09125 45.261938 
L 92.898125 45.383628 
L 97.705 45.505535 
L 102.511875 45.627719 
L 107.31875 45.750247 
L 112.125625 45.873192 
L 116.9325 45.996638 
L 121.739375 46.120677 
L 126.54625 46.245415 
L 131.353125 46.370971 
L 136.16 46.497482 
L 140.966875 46.625102 
L 145.77375 46.754008 
L 150.580625 46.884405 
L 155.3875 47.016528 
L 160.194375 47.150653 
L 165.00125 47.287098 
L 169.808125 47.42624 
L 174.615 47.56852 
L 179.421875 47.714464 
L 184.22875 47.8647 
L 189.035625 48.019984 
L 193.8425 48.181229 
L 198.649375 48.349555 
L 203.45625 48.526338 
L 208.263125 48.713294 
L 213.07 48.912578 
L 217.876875 49.126933 
L 222.68375 49.359894 
L 227.490625 49.616081 
L 232.2975 49.901636 
L 237.104375 50.224869 
L 241.91125 50.597272 
L 246.718125 51.035123 
L 251.525 51.562173 
L 256.331875 52.214298 
L 261.13875 53.048087 
L 265.945625 54.157868 
L 270.7525 55.71294 
L 275.559375 58.051439 
L 280.36625 61.978767 
L 285.173125 70.335479 
M 338.04875 113.207184 
L 342.855625 128.268108 
L 347.6625 137.286497 
L 352.469375 143.611513 
L 357.27625 148.367941 
L 362.083125 152.101165 
L 366.89 155.120544 
L 371.696875 157.618446 
L 376.50375 159.722162 
L 381.310625 161.519853 
L 386.1175 163.074779 
L 390.924375 164.433642 
L 395.73125 165.631741 
L 400.538125 166.696289 
L 405.345 167.64863 
L 410.151875 168.505751 
L 414.95875 169.281349 
L 419.765625 169.986595 
L 424.5725 170.630699 
L 429.379375 171.221318 
L 434.18625 171.764879 
L 438.993125 172.26681 
L 443.8 172.731734 
L 448.606875 173.163611 
L 453.41375 173.565853 
L 458.220625 173.941416 
L 463.0275 174.292875 
L 467.834375 174.622481 
L 472.64125 174.932215 
L 477.448125 175.223823 
L 482.255 175.498854 
L 487.061875 175.758681 
L 491.86875 176.004533 
L 496.675625 176.237508 
L 501.4825 176.458592 
L 506.289375 176.668672 
L 511.09625 176.86855 
L 515.903125 177.05895 
L 520.71 177.240531 
L 525.516875 177.413891 
L 530.32375 177.579574 
L 535.130625 177.73808 
L 539.9375 177.889863 
L 544.744375 178.035342 
L 549.55125 178.174901 
" style="fill:none;stroke:#000000;stroke-dasharray:1.000000,3.000000;stroke-dashoffset:0.0;stroke-width:2.0;"/>
   </g>
   <g id="patch_3">
    <path d="M 73.670625 185.208047 
L 549.55125 185.208047 
" style="fill:none;stroke:#000000;stroke-linecap:square;stroke-linejoin:miter;"/>
   </g>
   <g id="patch_4">
    <path d="M 73.670625 185.208047 
L 73.670625 24.247969 
" style="fill:none;stroke:#000000;stroke-linecap:square;stroke-linejoin:miter;"/>
   </g>
   <g id="patch_5">
    <path d="M 73.670625 24.247969 
L 549.55125 24.247969 
" style="fill:none;stroke:#000000;stroke-linecap:square;stroke-linejoin:miter;"/>
   </g>
   <g id="patch_6">
    <path d="M 549.55125 185.208047 
L 549.55125 24.247969 
" style="fill:none;stroke:#000000;stroke-linecap:square;stroke-linejoin:miter;"/>
   </g>
   <g id="matplotlib.axis_1">
    <g id="ytick_1">
     <g id="line2d_4">
      <defs>
       <path d="M 0 0 
L 4 0 
" id="mb6f473f33c" style="stroke:#000000;stroke-width:0.5;"/>
      </defs>
      <g>
       <use style="stroke:#000000;stroke-width:0.5;" x="73.670625" xlink:href="#mb6f473f33c" y="185.208046875"/>
      </g>
     </g>
     <g id="line2d_5">
      <defs>
       <path d="M 0 0 
L -4 0 
" id="mb25e9b53f4" style="stroke:#000000;stroke-width:0.5;"/>
      </defs>
      <g>
       <use style="stroke:#000000;stroke-width:0.5;" x="549.55125" xlink:href="#mb25e9b53f4" y="185.208046875"/>
      </g>
     </g>
     <g id="text_1">
      <!-- 0.0 -->
      <defs>
       <path d="M 31.78125 66.40625 
Q 24.171875 66.40625 20.328125 58.90625 
Q 16.5 51.421875 16.5 36.375 
Q 16.5 21.390625 20.328125 13.890625 
Q 24.171875 6.390625 31.78125 6.390625 
Q 39.453125 6.390625 43.28125 13.890625 
Q 47.125 21.390625 47.125 36.375 
Q 47.125 51.421875 43.28125 58.90625 
Q 39.453125 66.40625 31.78125 66.40625 
M 31.78125 74.21875 
Q 44.046875 74.21875 50.515625 64.515625 
Q 56.984375 54.828125 56.984375 36.375 
Q 56.984375 17.96875 50.515625 8.265625 
Q 44.046875 -1.421875 31.78125 -1.421875 
Q 19.53125 -1.421875 13.0625 8.265625 
Q 6.59375 17.96875 6.59375 36.375 
Q 6.59375 54.828125 13.0625 64.515625 
Q 19.53125 74.21875 31.78125 74.21875 
" id="BitstreamVeraSans-Roman-30"/>
       <path d="M 10.6875 12.40625 
L 21 12.40625 
L 21 0 
L 10.6875 0 
z
" id="BitstreamVeraSans-Roman-2e"/>
      </defs>
      <g transform="translate(44.225625 189.623046875)scale(0.16 -0.16)">
       <use xlink:href="#BitstreamVeraSans-Roman-30"/>
       <use x="63.623046875" xlink:href="#BitstreamVeraSans-Roman-2e"/>
       <use x="95.41015625" xlink:href="#BitstreamVeraSans-Roman-30"/>
      </g>
     </g>
    </g>
    <g id="ytick_2">
     <g id="line2d_6">
      <g>
       <use style="stroke:#000000;stroke-width:0.5;" x="73.670625" xlink:href="#mb6f473f33c" y="131.5546875"/>
      </g>
     </g>
     <g id="line2d_7">
      <g>
       <use style="stroke:#000000;stroke-width:0.5;" x="549.55125" xlink:href="#mb25e9b53f4" y="131.5546875"/>
      </g>
     </g>
     <g id="text_2">
      <!-- 0.5 -->
      <defs>
       <path d="M 10.796875 72.90625 
L 49.515625 72.90625 
L 49.515625 64.59375 
L 19.828125 64.59375 
L 19.828125 46.734375 
Q 21.96875 47.46875 24.109375 47.828125 
Q 26.265625 48.1875 28.421875 48.1875 
Q 40.625 48.1875 47.75 41.5 
Q 54.890625 34.8125 54.890625 23.390625 
Q 54.890625 11.625 47.5625 5.09375 
Q 40.234375 -1.421875 26.90625 -1.421875 
Q 22.3125 -1.421875 17.546875 -0.640625 
Q 12.796875 0.140625 7.71875 1.703125 
L 7.71875 11.625 
Q 12.109375 9.234375 16.796875 8.0625 
Q 21.484375 6.890625 26.703125 6.890625 
Q 35.15625 6.890625 40.078125 11.328125 
Q 45.015625 15.765625 45.015625 23.390625 
Q 45.015625 31 40.078125 35.4375 
Q 35.15625 39.890625 26.703125 39.890625 
Q 22.75 39.890625 18.8125 39.015625 
Q 14.890625 38.140625 10.796875 36.28125 
z
" id="BitstreamVeraSans-Roman-35"/>
      </defs>
      <g transform="translate(44.225625 135.9696875)scale(0.16 -0.16)">
       <use xlink:href="#BitstreamVeraSans-Roman-30"/>
       <use x="63.623046875" xlink:href="#BitstreamVeraSans-Roman-2e"/>
       <use x="95.41015625" xlink:href="#BitstreamVeraSans-Roman-35"/>
      </g>
     </g>
    </g>
    <g id="ytick_3">
     <g id="line2d_8">
      <g>
       <use style="stroke:#000000;stroke-width:0.5;" x="73.670625" xlink:href="#mb6f473f33c" y="77.901328125"/>
      </g>
     </g>
     <g id="line2d_9">
      <g>
       <use style="stroke:#000000;stroke-width:0.5;" x="549.55125" xlink:href="#mb25e9b53f4" y="77.901328125"/>
      </g>
     </g>
     <g id="text_3">
      <!-- 1.0 -->
      <defs>
       <path d="M 12.40625 8.296875 
L 28.515625 8.296875 
L 28.515625 63.921875 
L 10.984375 60.40625 
L 10.984375 69.390625 
L 28.421875 72.90625 
L 38.28125 72.90625 
L 38.28125 8.296875 
L 54.390625 8.296875 
L 54.390625 0 
L 12.40625 0 
z
" id="BitstreamVeraSans-Roman-31"/>
      </defs>
      <g transform="translate(44.225625 82.316328125)scale(0.16 -0.16)">
       <use xlink:href="#BitstreamVeraSans-Roman-31"/>
       <use x="63.623046875" xlink:href="#BitstreamVeraSans-Roman-2e"/>
       <use x="95.41015625" xlink:href="#BitstreamVeraSans-Roman-30"/>
      </g>
     </g>
    </g>
    <g id="ytick_4">
     <g id="line2d_10">
      <g>
       <use style="stroke:#000000;stroke-width:0.5;" x="73.670625" xlink:href="#mb6f473f33c" y="24.24796875"/>
      </g>
     </g>
     <g id="line2d_11">
      <g>
       <use style="stroke:#000000;stroke-width:0.5;" x="549.55125" xlink:href="#mb25e9b53f4" y="24.24796875"/>
      </g>
     </g>
     <g id="text_4">
      <!-- 1.5 -->
      <g transform="translate(44.225625 28.66296875)scale(0.16 -0.16)">
       <use xlink:href="#BitstreamVeraSans-Roman-31"/>
       <use x="63.623046875" xlink:href="#BitstreamVeraSans-Roman-2e"/>
       <use x="95.41015625" xlink:href="#BitstreamVeraSans-Roman-35"/>
      </g>
     </g>
    </g>
    <g id="text_5">
     <!-- $\left( c / ℏ \right) \left|P_+\right|$ ($\mathregular{GeV}$) -->
     <defs>
      <path d="M 56.203125 29.59375 
L 56.203125 25.203125 
L 14.890625 25.203125 
Q 15.484375 15.921875 20.484375 11.0625 
Q 25.484375 6.203125 34.421875 6.203125 
Q 39.59375 6.203125 44.453125 7.46875 
Q 49.3125 8.734375 54.109375 11.28125 
L 54.109375 2.78125 
Q 49.265625 0.734375 44.1875 -0.34375 
Q 39.109375 -1.421875 33.890625 -1.421875 
Q 20.796875 -1.421875 13.15625 6.1875 
Q 5.515625 13.8125 5.515625 26.8125 
Q 5.515625 40.234375 12.765625 48.109375 
Q 20.015625 56 32.328125 56 
Q 43.359375 56 49.78125 48.890625 
Q 56.203125 41.796875 56.203125 29.59375 
M 47.21875 32.234375 
Q 47.125 39.59375 43.09375 43.984375 
Q 39.0625 48.390625 32.421875 48.390625 
Q 24.90625 48.390625 20.390625 44.140625 
Q 15.875 39.890625 15.1875 32.171875 
z
" id="BitstreamVeraSans-Roman-65"/>
      <path d="M 59.515625 10.40625 
L 59.515625 29.984375 
L 43.40625 29.984375 
L 43.40625 38.09375 
L 69.28125 38.09375 
L 69.28125 6.78125 
Q 63.578125 2.734375 56.6875 0.65625 
Q 49.8125 -1.421875 42 -1.421875 
Q 24.90625 -1.421875 15.25 8.5625 
Q 5.609375 18.5625 5.609375 36.375 
Q 5.609375 54.25 15.25 64.234375 
Q 24.90625 74.21875 42 74.21875 
Q 49.125 74.21875 55.546875 72.453125 
Q 61.96875 70.703125 67.390625 67.28125 
L 67.390625 56.78125 
Q 61.921875 61.421875 55.765625 63.765625 
Q 49.609375 66.109375 42.828125 66.109375 
Q 29.4375 66.109375 22.71875 58.640625 
Q 16.015625 51.171875 16.015625 36.375 
Q 16.015625 21.625 22.71875 14.15625 
Q 29.4375 6.6875 42.828125 6.6875 
Q 48.046875 6.6875 52.140625 7.59375 
Q 56.25 8.5 59.515625 10.40625 
" id="BitstreamVeraSans-Roman-47"/>
      <path d="M 11.921875 -23.1875 
L 11.921875 73.1875 
Q 11.921875 73.96875 12.5 74.484375 
Q 13.09375 75 13.921875 75 
Q 14.65625 75 15.28125 74.484375 
Q 15.921875 73.96875 15.921875 73.1875 
L 15.921875 -23.1875 
Q 15.921875 -23.96875 15.28125 -24.484375 
Q 14.65625 -25 13.921875 -25 
Q 13.09375 -25 12.5 -24.484375 
Q 11.921875 -23.96875 11.921875 -23.1875 
" id="Cmsy10-6a"/>
      <path d="M 53.203125 11.703125 
L 54.703125 10.703125 
Q 46.796875 -1 39.796875 -1 
Q 34.5 -1 34.5 4.59375 
Q 34.5 6.703125 36.90625 15.59375 
L 40.90625 30 
Q 41.796875 33.40625 41.796875 36.203125 
Q 41.796875 40.59375 38.09375 40.59375 
Q 35.703125 40.59375 32 37.046875 
Q 28.296875 33.5 24.09375 27.296875 
Q 20.703125 22.296875 18.5 16.890625 
Q 16.296875 11.5 13.09375 0 
L 4.703125 0 
L 17.40625 46.90625 
L 8 43.5 
L 8.90625 47.796875 
L 18.59375 51.296875 
L 20.5 57.296875 
Q 20.90625 58.5 20.90625 60.203125 
Q 20.90625 62.40625 15.203125 62.40625 
L 15.203125 63.90625 
Q 23.5 65.59375 30.90625 68.296875 
L 31.703125 68.09375 
Q 30.59375 64.796875 29.09375 59.296875 
L 27.796875 54.703125 
L 42.203125 60 
L 41 55.59375 
L 26.59375 50.40625 
L 19.59375 24.59375 
L 19.703125 24.59375 
Q 30.703125 46 41.59375 46 
Q 50.40625 46 50.40625 37.203125 
Q 50.40625 33.796875 49.296875 30.09375 
L 44.203125 12.203125 
Q 43.09375 8.5 43.09375 6.703125 
Q 43.09375 5 44.40625 5 
Q 47.5 5 53.203125 11.703125 
" id="STIXGeneral-Regular-210f"/>
      <path d="M 8.015625 75.875 
L 15.828125 75.875 
Q 23.140625 64.359375 26.78125 53.3125 
Q 30.421875 42.28125 30.421875 31.390625 
Q 30.421875 20.453125 26.78125 9.375 
Q 23.140625 -1.703125 15.828125 -13.1875 
L 8.015625 -13.1875 
Q 14.5 -2 17.703125 9.0625 
Q 20.90625 20.125 20.90625 31.390625 
Q 20.90625 42.671875 17.703125 53.65625 
Q 14.5 64.65625 8.015625 75.875 
" id="BitstreamVeraSans-Roman-29"/>
      <path d="M 6.5 -25 
Q 5.609375 -25 5.609375 -24.125 
Q 5.609375 -23.6875 5.8125 -23.484375 
Q 22.90625 -6.78125 22.90625 25 
Q 22.90625 56.78125 6 73.296875 
Q 5.609375 73.53125 5.609375 74.125 
Q 5.609375 74.46875 5.875 74.734375 
Q 6.15625 75 6.5 75 
L 7.421875 75 
Q 7.71875 75 7.90625 74.8125 
Q 15.09375 69.140625 19.875 61.03125 
Q 24.65625 52.9375 26.875 43.75 
Q 29.109375 34.578125 29.109375 25 
Q 29.109375 17.921875 27.90625 11.0625 
Q 26.703125 4.203125 24.09375 -2.453125 
Q 21.484375 -9.125 17.484375 -14.765625 
Q 13.484375 -20.40625 7.90625 -24.8125 
Q 7.71875 -25 7.421875 -25 
z
" id="Cmr10-29"/>
      <path d="M 4.890625 0 
Q 3.90625 0 3.90625 1.3125 
Q 3.953125 1.5625 4.09375 2.171875 
Q 4.25 2.78125 4.515625 3.140625 
Q 4.78125 3.515625 5.171875 3.515625 
Q 11.28125 3.515625 13.71875 4.203125 
Q 14.984375 4.640625 15.578125 6.890625 
L 29.296875 61.8125 
Q 29.5 62.796875 29.5 63.1875 
Q 29.5 64.265625 28.328125 64.40625 
Q 26.421875 64.796875 21.09375 64.796875 
Q 20.125 64.796875 20.125 66.109375 
Q 20.171875 66.359375 20.3125 66.96875 
Q 20.453125 67.578125 20.71875 67.9375 
Q 21 68.3125 21.390625 68.3125 
L 55.90625 68.3125 
Q 60.640625 68.3125 65.078125 66.625 
Q 69.53125 64.9375 72.359375 61.46875 
Q 75.203125 58.015625 75.203125 53.078125 
Q 75.203125 46.734375 70.734375 41.75 
Q 66.265625 36.765625 59.59375 33.984375 
Q 52.9375 31.203125 46.6875 31.203125 
L 30.421875 31.203125 
L 24.3125 6.5 
Q 24.125 5.515625 24.125 5.078125 
Q 24.125 4.6875 24.234375 4.421875 
Q 24.359375 4.15625 24.578125 4.078125 
Q 24.8125 4 25.296875 3.90625 
Q 27.203125 3.515625 32.515625 3.515625 
Q 33.5 3.515625 33.5 2.203125 
Q 33.15625 0.78125 32.953125 0.390625 
Q 32.765625 0 31.78125 0 
z
M 30.90625 34.1875 
L 44.921875 34.1875 
Q 54.640625 34.1875 59.71875 39.40625 
Q 62.3125 42 63.9375 46.875 
Q 65.578125 51.765625 65.578125 55.71875 
Q 65.578125 60.640625 61.8125 62.71875 
Q 58.0625 64.796875 52.484375 64.796875 
L 42.921875 64.796875 
Q 40.1875 64.796875 39.296875 64.328125 
Q 38.421875 63.875 37.703125 61.375 
z
" id="Cmmi10-50"/>
      <path d="M 5.609375 -23 
Q 5.609375 -22.703125 5.71875 -22.609375 
L 40.484375 73.78125 
Q 40.671875 74.359375 41.15625 74.671875 
Q 41.65625 75 42.28125 75 
Q 43.171875 75 43.71875 74.453125 
Q 44.28125 73.921875 44.28125 73 
L 44.28125 72.609375 
L 9.515625 -23.78125 
Q 8.9375 -25 7.625 -25 
Q 6.78125 -25 6.1875 -24.40625 
Q 5.609375 -23.828125 5.609375 -23 
" id="Cmmi10-3d"/>
      <path d="M 31 75.875 
Q 24.46875 64.65625 21.28125 53.65625 
Q 18.109375 42.671875 18.109375 31.390625 
Q 18.109375 20.125 21.3125 9.0625 
Q 24.515625 -2 31 -13.1875 
L 23.1875 -13.1875 
Q 15.875 -1.703125 12.234375 9.375 
Q 8.59375 20.453125 8.59375 31.390625 
Q 8.59375 42.28125 12.203125 53.3125 
Q 15.828125 64.359375 23.1875 75.875 
z
" id="BitstreamVeraSans-Roman-28"/>
      <path d="M 11.71875 11.921875 
Q 11.71875 7.5625 13.9375 4.53125 
Q 16.15625 1.515625 20.3125 1.515625 
Q 26.265625 1.515625 31.75 4.25 
Q 37.25 6.984375 40.71875 11.8125 
Q 41.015625 12.109375 41.5 12.109375 
Q 42 12.109375 42.5 11.546875 
Q 43.015625 10.984375 43.015625 10.5 
Q 43.015625 10.109375 42.828125 9.90625 
Q 39.15625 4.78125 32.953125 1.828125 
Q 26.765625 -1.125 20.125 -1.125 
Q 15.328125 -1.125 11.671875 1.140625 
Q 8.015625 3.421875 6 7.21875 
Q 4 11.03125 4 15.828125 
Q 4 22.5625 7.765625 29.203125 
Q 11.53125 35.84375 17.78125 40.015625 
Q 24.03125 44.1875 30.90625 44.1875 
Q 35.40625 44.1875 38.984375 42.015625 
Q 42.578125 39.84375 42.578125 35.59375 
Q 42.578125 32.859375 40.984375 30.921875 
Q 39.40625 29 36.71875 29 
Q 35.109375 29 34 30 
Q 32.90625 31 32.90625 32.625 
Q 32.90625 34.96875 34.609375 36.625 
Q 36.328125 38.28125 38.625 38.28125 
L 38.8125 38.28125 
Q 37.640625 39.984375 35.421875 40.796875 
Q 33.203125 41.609375 30.8125 41.609375 
Q 24.953125 41.609375 20.546875 36.59375 
Q 16.15625 31.59375 13.9375 24.625 
Q 11.71875 17.671875 11.71875 11.921875 
" id="Cmmi10-63"/>
      <path d="M 31 -24.8125 
Q 25.4375 -20.40625 21.40625 -14.71875 
Q 17.390625 -9.03125 14.8125 -2.578125 
Q 12.25 3.859375 10.984375 10.890625 
Q 9.71875 17.921875 9.71875 25 
Q 9.71875 32.171875 10.984375 39.203125 
Q 12.25 46.234375 14.859375 52.734375 
Q 17.484375 59.234375 21.53125 64.890625 
Q 25.59375 70.5625 31 74.8125 
Q 31 75 31.5 75 
L 32.421875 75 
Q 32.71875 75 32.953125 74.734375 
Q 33.203125 74.46875 33.203125 74.125 
Q 33.203125 73.6875 33.015625 73.484375 
Q 28.125 68.703125 24.875 63.234375 
Q 21.625 57.765625 19.640625 51.578125 
Q 17.671875 45.40625 16.796875 38.78125 
Q 15.921875 32.171875 15.921875 25 
Q 15.921875 -6.78125 32.90625 -23.296875 
Q 33.203125 -23.578125 33.203125 -24.125 
Q 33.203125 -24.359375 32.9375 -24.671875 
Q 32.671875 -25 32.421875 -25 
L 31.5 -25 
Q 31 -25 31 -24.8125 
" id="Cmr10-28"/>
      <path id="BitstreamVeraSans-Roman-20"/>
      <path d="M 28.609375 0 
L 0.78125 72.90625 
L 11.078125 72.90625 
L 34.1875 11.53125 
L 57.328125 72.90625 
L 67.578125 72.90625 
L 39.796875 0 
z
" id="BitstreamVeraSans-Roman-56"/>
      <path d="M 7.515625 23 
Q 6.6875 23 6.140625 23.625 
Q 5.609375 24.265625 5.609375 25 
Q 5.609375 25.734375 6.140625 26.359375 
Q 6.6875 27 7.515625 27 
L 36.921875 27 
L 36.921875 56.5 
Q 36.921875 57.28125 37.5 57.78125 
Q 38.09375 58.296875 38.921875 58.296875 
Q 39.65625 58.296875 40.28125 57.78125 
Q 40.921875 57.28125 40.921875 56.5 
L 40.921875 27 
L 70.3125 27 
Q 71.046875 27 71.578125 26.359375 
Q 72.125 25.734375 72.125 25 
Q 72.125 24.265625 71.578125 23.625 
Q 71.046875 23 70.3125 23 
L 40.921875 23 
L 40.921875 -6.5 
Q 40.921875 -7.28125 40.28125 -7.78125 
Q 39.65625 -8.296875 38.921875 -8.296875 
Q 38.09375 -8.296875 37.5 -7.78125 
Q 36.921875 -7.28125 36.921875 -6.5 
L 36.921875 23 
z
" id="Cmr10-2b"/>
     </defs>
     <g transform="translate(35.225625 164.408007812)rotate(-90.0)scale(0.16 -0.16)">
      <use transform="translate(0.0 0.125)" xlink:href="#Cmr10-28"/>
      <use transform="translate(38.818359375 0.125)" xlink:href="#Cmmi10-63"/>
      <use transform="translate(82.03125 0.125)" xlink:href="#Cmmi10-3d"/>
      <use transform="translate(132.03125 0.125)" xlink:href="#STIXGeneral-Regular-210f"/>
      <use transform="translate(189.93124389648438 0.125)" xlink:href="#Cmr10-29"/>
      <use transform="translate(228.74960327148438 0.09218749999999432)scale(0.9112656250000001)" xlink:href="#Cmsy10-6a"/>
      <use transform="translate(253.97805786132812 0.125)" xlink:href="#Cmmi10-50"/>
      <use transform="translate(330.4780578613281 -16.881249999999994)scale(0.7)" xlink:href="#Cmr10-2b"/>
      <use transform="translate(403.52630004882815 0.09218749999999432)scale(0.9112656250000001)" xlink:href="#Cmsy10-6a"/>
      <use transform="translate(428.7547546386719 0.125)" xlink:href="#BitstreamVeraSans-Roman-20"/>
      <use transform="translate(460.5418640136719 0.125)" xlink:href="#BitstreamVeraSans-Roman-28"/>
      <use transform="translate(499.5555358886719 0.125)" xlink:href="#BitstreamVeraSans-Roman-47"/>
      <use transform="translate(577.0457702636719 0.125)" xlink:href="#BitstreamVeraSans-Roman-65"/>
      <use transform="translate(638.5692077636719 0.125)" xlink:href="#BitstreamVeraSans-Roman-56"/>
      <use transform="translate(706.9774108886719 0.125)" xlink:href="#BitstreamVeraSans-Roman-29"/>
     </g>
    </g>
   </g>
   <g id="legend_1">
    <g id="patch_7">
     <path d="M 406.83125 128.407969 
L 539.95125 128.407969 
L 539.95125 33.847969 
L 406.83125 33.847969 
L 406.83125 128.407969 
z
" style="fill:none;opacity:0;"/>
    </g>
    <g id="line2d_12">
     <path d="M 420.27125 49.807969 
L 447.15125 49.807969 
" style="fill:none;stroke:#000000;stroke-linecap:square;stroke-width:2.0;"/>
    </g>
    <g id="line2d_13"/>
    <g id="text_6">
     <!-- $\mathregular{MoSe_2}$ -->
     <defs>
      <path d="M 9.8125 72.90625 
L 24.515625 72.90625 
L 43.109375 23.296875 
L 61.8125 72.90625 
L 76.515625 72.90625 
L 76.515625 0 
L 66.890625 0 
L 66.890625 64.015625 
L 48.09375 14.015625 
L 38.1875 14.015625 
L 19.390625 64.015625 
L 19.390625 0 
L 9.8125 0 
z
" id="BitstreamVeraSans-Roman-4d"/>
      <path d="M 19.1875 8.296875 
L 53.609375 8.296875 
L 53.609375 0 
L 7.328125 0 
L 7.328125 8.296875 
Q 12.9375 14.109375 22.625 23.890625 
Q 32.328125 33.6875 34.8125 36.53125 
Q 39.546875 41.84375 41.421875 45.53125 
Q 43.3125 49.21875 43.3125 52.78125 
Q 43.3125 58.59375 39.234375 62.25 
Q 35.15625 65.921875 28.609375 65.921875 
Q 23.96875 65.921875 18.8125 64.3125 
Q 13.671875 62.703125 7.8125 59.421875 
L 7.8125 69.390625 
Q 13.765625 71.78125 18.9375 73 
Q 24.125 74.21875 28.421875 74.21875 
Q 39.75 74.21875 46.484375 68.546875 
Q 53.21875 62.890625 53.21875 53.421875 
Q 53.21875 48.921875 51.53125 44.890625 
Q 49.859375 40.875 45.40625 35.40625 
Q 44.1875 33.984375 37.640625 27.21875 
Q 31.109375 20.453125 19.1875 8.296875 
" id="BitstreamVeraSans-Roman-32"/>
      <path d="M 30.609375 48.390625 
Q 23.390625 48.390625 19.1875 42.75 
Q 14.984375 37.109375 14.984375 27.296875 
Q 14.984375 17.484375 19.15625 11.84375 
Q 23.34375 6.203125 30.609375 6.203125 
Q 37.796875 6.203125 41.984375 11.859375 
Q 46.1875 17.53125 46.1875 27.296875 
Q 46.1875 37.015625 41.984375 42.703125 
Q 37.796875 48.390625 30.609375 48.390625 
M 30.609375 56 
Q 42.328125 56 49.015625 48.375 
Q 55.71875 40.765625 55.71875 27.296875 
Q 55.71875 13.875 49.015625 6.21875 
Q 42.328125 -1.421875 30.609375 -1.421875 
Q 18.84375 -1.421875 12.171875 6.21875 
Q 5.515625 13.875 5.515625 27.296875 
Q 5.515625 40.765625 12.171875 48.375 
Q 18.84375 56 30.609375 56 
" id="BitstreamVeraSans-Roman-6f"/>
      <path d="M 53.515625 70.515625 
L 53.515625 60.890625 
Q 47.90625 63.578125 42.921875 64.890625 
Q 37.9375 66.21875 33.296875 66.21875 
Q 25.25 66.21875 20.875 63.09375 
Q 16.5 59.96875 16.5 54.203125 
Q 16.5 49.359375 19.40625 46.890625 
Q 22.3125 44.4375 30.421875 42.921875 
L 36.375 41.703125 
Q 47.40625 39.59375 52.65625 34.296875 
Q 57.90625 29 57.90625 20.125 
Q 57.90625 9.515625 50.796875 4.046875 
Q 43.703125 -1.421875 29.984375 -1.421875 
Q 24.8125 -1.421875 18.96875 -0.25 
Q 13.140625 0.921875 6.890625 3.21875 
L 6.890625 13.375 
Q 12.890625 10.015625 18.65625 8.296875 
Q 24.421875 6.59375 29.984375 6.59375 
Q 38.421875 6.59375 43.015625 9.90625 
Q 47.609375 13.234375 47.609375 19.390625 
Q 47.609375 24.75 44.3125 27.78125 
Q 41.015625 30.8125 33.5 32.328125 
L 27.484375 33.5 
Q 16.453125 35.6875 11.515625 40.375 
Q 6.59375 45.0625 6.59375 53.421875 
Q 6.59375 63.09375 13.40625 68.65625 
Q 20.21875 74.21875 32.171875 74.21875 
Q 37.3125 74.21875 42.625 73.28125 
Q 47.953125 72.359375 53.515625 70.515625 
" id="BitstreamVeraSans-Roman-53"/>
     </defs>
     <g transform="translate(468.27125 56.52796875)scale(0.192 -0.192)">
      <use transform="translate(0.0 0.78125)" xlink:href="#BitstreamVeraSans-Roman-4d"/>
      <use transform="translate(86.279296875 0.78125)" xlink:href="#BitstreamVeraSans-Roman-6f"/>
      <use transform="translate(147.4609375 0.78125)" xlink:href="#BitstreamVeraSans-Roman-53"/>
      <use transform="translate(210.9375 0.78125)" xlink:href="#BitstreamVeraSans-Roman-65"/>
      <use transform="translate(277.9734375 -20.21875)scale(0.7)" xlink:href="#BitstreamVeraSans-Roman-32"/>
     </g>
    </g>
    <g id="line2d_14">
     <path d="M 420.27125 79.407969 
L 447.15125 79.407969 
" style="fill:none;stroke:#000000;stroke-dasharray:6.000000,6.000000;stroke-dashoffset:0.0;stroke-width:2.0;"/>
    </g>
    <g id="line2d_15"/>
    <g id="text_7">
     <!-- $\mathregular{WS_2}$ -->
     <defs>
      <path d="M 3.328125 72.90625 
L 13.28125 72.90625 
L 28.609375 11.28125 
L 43.890625 72.90625 
L 54.984375 72.90625 
L 70.3125 11.28125 
L 85.59375 72.90625 
L 95.609375 72.90625 
L 77.296875 0 
L 64.890625 0 
L 49.515625 63.28125 
L 33.984375 0 
L 21.578125 0 
z
" id="BitstreamVeraSans-Roman-57"/>
     </defs>
     <g transform="translate(468.27125 86.12796875)scale(0.192 -0.192)">
      <use transform="translate(0.0 0.78125)" xlink:href="#BitstreamVeraSans-Roman-57"/>
      <use transform="translate(98.876953125 0.78125)" xlink:href="#BitstreamVeraSans-Roman-53"/>
      <use transform="translate(167.866015625 -20.21875)scale(0.7)" xlink:href="#BitstreamVeraSans-Roman-32"/>
     </g>
    </g>
    <g id="line2d_16">
     <path d="M 420.27125 109.007969 
L 447.15125 109.007969 
" style="fill:none;stroke:#000000;stroke-dasharray:1.000000,3.000000;stroke-dashoffset:0.0;stroke-width:2.0;"/>
    </g>
    <g id="line2d_17"/>
    <g id="text_8">
     <!-- $\mathregular{WSe_2}$ -->
     <g transform="translate(468.27125 115.72796875)scale(0.192 -0.192)">
      <use transform="translate(0.0 0.78125)" xlink:href="#BitstreamVeraSans-Roman-57"/>
      <use transform="translate(98.876953125 0.78125)" xlink:href="#BitstreamVeraSans-Roman-53"/>
      <use transform="translate(162.353515625 0.78125)" xlink:href="#BitstreamVeraSans-Roman-65"/>
      <use transform="translate(229.389453125 -20.21875)scale(0.7)" xlink:href="#BitstreamVeraSans-Roman-32"/>
     </g>
    </g>
   </g>
  </g>
  <g id="axes_2">
   <g id="patch_8">
    <path d="M 73.670625 377.384062 
L 549.55125 377.384062 
L 549.55125 216.423984 
L 73.670625 216.423984 
L 73.670625 377.384062 
z
" style="fill:none;"/>
   </g>
   <g id="line2d_18">
    <path clip-path="url(#p76e3dd872a)" d="M 73.670625 367.393234 
L 78.4775 366.427902 
L 83.284375 365.466656 
L 88.09125 364.50947 
L 92.898125 363.556322 
L 97.705 362.607187 
L 102.511875 361.662044 
L 107.31875 360.720871 
L 112.125625 359.783648 
L 116.9325 358.850357 
L 121.739375 357.920982 
L 126.54625 356.995508 
L 131.353125 356.073921 
L 136.16 355.156214 
L 140.966875 354.242379 
L 145.77375 353.332416 
L 150.580625 352.426326 
L 155.3875 351.52412 
L 160.194375 350.625814 
L 165.00125 349.731434 
L 169.808125 348.841017 
L 174.615 347.954614 
L 179.421875 347.072296 
L 184.22875 346.194153 
L 189.035625 345.320308 
L 193.8425 344.450919 
L 198.649375 343.586191 
L 203.45625 342.726396 
L 208.263125 341.871887 
L 213.07 341.023131 
L 217.876875 340.180749 
L 222.68375 339.345571 
L 227.490625 338.518725 
L 232.2975 337.701761 
L 237.104375 336.896848 
L 241.91125 336.107073 
L 246.718125 335.336942 
L 251.525 334.59321 
L 256.331875 333.886355 
L 261.13875 333.233328 
L 265.945625 332.663073 
L 270.7525 332.228755 
L 275.559375 332.038884 
L 280.36625 332.357033 
L 285.173125 334.127274 
M 338.04875 350.271183 
L 342.855625 356.578647 
L 347.6625 360.294811 
L 352.469375 362.879234 
L 357.27625 364.812344 
L 362.083125 366.324032 
L 366.89 367.543469 
L 371.696875 368.5504 
L 376.50375 369.397294 
L 381.310625 370.120325 
L 386.1175 370.745351 
L 390.924375 371.291401 
L 395.73125 371.772817 
L 400.538125 372.200633 
L 405.345 372.583481 
L 410.151875 372.928221 
L 414.95875 373.240374 
L 419.765625 373.524439 
L 424.5725 373.784115 
L 429.379375 374.02248 
L 434.18625 374.24211 
L 438.993125 374.44518 
L 443.8 374.633541 
L 448.606875 374.808777 
L 453.41375 374.972252 
L 458.220625 375.125146 
L 463.0275 375.268487 
L 467.834375 375.403173 
L 472.64125 375.529994 
L 477.448125 375.649646 
L 482.255 375.762744 
L 487.061875 375.869837 
L 491.86875 375.971413 
L 496.675625 376.067908 
L 501.4825 376.159715 
L 506.289375 376.247185 
L 511.09625 376.330639 
L 515.903125 376.410363 
L 520.71 376.486619 
L 525.516875 376.559644 
L 530.32375 376.629655 
L 535.130625 376.69685 
L 539.9375 376.761408 
L 544.744375 376.823496 
L 549.55125 376.883266 
" style="fill:none;stroke:#000000;stroke-linecap:square;stroke-width:2.0;"/>
   </g>
   <g id="line2d_19">
    <path clip-path="url(#p76e3dd872a)" d="M 73.670625 279.853959 
L 78.4775 278.962567 
L 83.284375 278.074343 
L 88.09125 277.189299 
L 92.898125 276.307452 
L 97.705 275.428823 
L 102.511875 274.553436 
L 107.31875 273.681321 
L 112.125625 272.812515 
L 116.9325 271.94706 
L 121.739375 271.085007 
L 126.54625 270.226417 
L 131.353125 269.371361 
L 136.16 268.519923 
L 140.966875 267.672202 
L 145.77375 266.828316 
L 150.580625 265.988404 
L 155.3875 265.152631 
L 160.194375 264.321193 
L 165.00125 263.494322 
L 169.808125 262.672299 
L 174.615 261.855458 
L 179.421875 261.044205 
L 184.22875 260.23903 
L 189.035625 259.440533 
L 193.8425 258.64945 
L 198.649375 257.866693 
L 203.45625 257.093399 
L 208.263125 256.330998 
L 213.07 255.581312 
L 217.876875 254.84668 
L 222.68375 254.130149 
L 227.490625 253.435742 
L 232.2975 252.768858 
L 237.104375 252.13687 
L 241.91125 251.550068 
L 246.718125 251.02316 
L 251.525 250.57779 
L 256.331875 250.246938 
L 261.13875 250.08306 
L 265.945625 250.174313 
L 270.7525 250.680184 
L 275.559375 251.921639 
L 280.36625 254.668524 
L 285.173125 261.651155 
M 338.04875 304.843948 
L 342.855625 320.681505 
L 347.6625 330.101001 
L 352.469375 336.68413 
L 357.27625 341.623557 
L 362.083125 345.49438 
L 366.89 348.621518 
L 371.696875 351.206416 
L 376.50375 353.382056 
L 381.310625 355.240367 
L 386.1175 356.84721 
L 390.924375 358.251143 
L 395.73125 359.488826 
L 400.538125 360.588497 
L 405.345 361.57228 
L 410.151875 362.457773 
L 414.95875 363.259156 
L 419.765625 363.987987 
L 424.5725 364.653787 
L 429.379375 365.264473 
L 434.18625 365.826681 
L 438.993125 366.34602 
L 443.8 366.827261 
L 448.606875 367.27449 
L 453.41375 367.691226 
L 458.220625 368.080518 
L 463.0275 368.445021 
L 467.834375 368.787057 
L 472.64125 369.108666 
L 477.448125 369.411646 
L 482.255 369.697592 
L 487.061875 369.967922 
L 491.86875 370.223897 
L 496.675625 370.46665 
L 501.4825 370.697195 
L 506.289375 370.916445 
L 511.09625 371.125226 
L 515.903125 371.324282 
L 520.71 371.514291 
L 525.516875 371.695868 
L 530.32375 371.869574 
L 535.130625 372.035921 
L 539.9375 372.195378 
L 544.744375 372.348374 
L 549.55125 372.495305 
" style="fill:none;stroke:#000000;stroke-dasharray:6.000000,6.000000;stroke-dashoffset:0.0;stroke-width:2.0;"/>
   </g>
   <g id="line2d_20">
    <path clip-path="url(#p76e3dd872a)" d="M 73.670625 270.193155 
L 78.4775 269.343978 
L 83.284375 268.498159 
L 88.09125 267.655712 
L 92.898125 266.816655 
L 97.705 265.981009 
L 102.511875 265.148801 
L 107.31875 264.320064 
L 112.125625 263.494836 
L 116.9325 262.673164 
L 121.739375 261.855103 
L 126.54625 261.040719 
L 131.353125 260.23009 
L 136.16 259.423306 
L 140.966875 258.620475 
L 145.77375 257.821726 
L 150.580625 257.027209 
L 155.3875 256.237102 
L 160.194375 255.451617 
L 165.00125 254.671009 
L 169.808125 253.895579 
L 174.615 253.125689 
L 179.421875 252.361778 
L 184.22875 251.604376 
L 189.035625 250.854129 
L 193.8425 250.111832 
L 198.649375 249.378467 
L 203.45625 248.655256 
L 208.263125 247.943741 
L 213.07 247.245874 
L 217.876875 246.564169 
L 222.68375 245.901892 
L 227.490625 245.263354 
L 232.2975 244.654332 
L 237.104375 244.082711 
L 241.91125 243.559484 
L 246.718125 243.100351 
L 251.525 242.728394 
L 256.331875 242.478751 
L 261.13875 242.407268 
L 265.945625 242.607714 
L 270.7525 243.249592 
L 275.559375 244.673758 
L 280.36625 247.697183 
L 285.173125 255.21565 
M 338.04875 300.810245 
L 342.855625 317.460292 
L 347.6625 327.36949 
L 352.469375 334.297268 
L 357.27625 339.496476 
L 362.083125 343.571547 
L 366.89 346.864102 
L 371.696875 349.586001 
L 376.50375 351.877134 
L 381.310625 353.83422 
L 386.1175 355.526565 
L 390.924375 357.005271 
L 395.73125 358.308925 
L 400.538125 359.467249 
L 405.345 360.503535 
L 410.151875 361.436309 
L 414.95875 362.2805 
L 419.765625 363.04828 
L 424.5725 363.749672 
L 429.379375 364.393013 
L 434.18625 364.985293 
L 438.993125 365.532416 
L 443.8 366.039409 
L 448.606875 366.510573 
L 453.41375 366.949616 
L 458.220625 367.35975 
L 463.0275 367.74377 
L 467.834375 368.104122 
L 472.64125 368.442953 
L 477.448125 368.762161 
L 482.255 369.063424 
L 487.061875 369.348234 
L 491.86875 369.617922 
L 496.675625 369.87368 
L 501.4825 370.116577 
L 506.289375 370.347575 
L 511.09625 370.567542 
L 515.903125 370.777265 
L 520.71 370.977456 
L 525.516875 371.168764 
L 530.32375 371.35178 
L 535.130625 371.527042 
L 539.9375 371.695046 
L 544.744375 371.856244 
L 549.55125 372.011051 
" style="fill:none;stroke:#000000;stroke-dasharray:1.000000,3.000000;stroke-dashoffset:0.0;stroke-width:2.0;"/>
   </g>
   <g id="patch_9">
    <path d="M 73.670625 377.384062 
L 549.55125 377.384062 
" style="fill:none;stroke:#000000;stroke-linecap:square;stroke-linejoin:miter;"/>
   </g>
   <g id="patch_10">
    <path d="M 73.670625 377.384062 
L 73.670625 216.423984 
" style="fill:none;stroke:#000000;stroke-linecap:square;stroke-linejoin:miter;"/>
   </g>
   <g id="patch_11">
    <path d="M 73.670625 216.423984 
L 549.55125 216.423984 
" style="fill:none;stroke:#000000;stroke-linecap:square;stroke-linejoin:miter;"/>
   </g>
   <g id="patch_12">
    <path d="M 549.55125 377.384062 
L 549.55125 216.423984 
" style="fill:none;stroke:#000000;stroke-linecap:square;stroke-linejoin:miter;"/>
   </g>
   <g id="matplotlib.axis_2">
    <g id="xtick_1">
     <g id="line2d_21">
      <defs>
       <path d="M 0 0 
L 0 -4 
" id="me16921fb38" style="stroke:#000000;stroke-width:0.5;"/>
      </defs>
      <g>
       <use style="stroke:#000000;stroke-width:0.5;" x="73.670625" xlink:href="#me16921fb38" y="377.3840625"/>
      </g>
     </g>
     <g id="line2d_22">
      <defs>
       <path d="M 0 0 
L 0 4 
" id="m9e31b568e1" style="stroke:#000000;stroke-width:0.5;"/>
      </defs>
      <g>
       <use style="stroke:#000000;stroke-width:0.5;" x="73.670625" xlink:href="#m9e31b568e1" y="216.423984375"/>
      </g>
     </g>
     <g id="text_9">
      <!-- −10 -->
      <defs>
       <path d="M 10.59375 35.5 
L 73.1875 35.5 
L 73.1875 27.203125 
L 10.59375 27.203125 
z
" id="BitstreamVeraSans-Roman-2212"/>
      </defs>
      <g transform="translate(56.786875 393.5415625)scale(0.16 -0.16)">
       <use xlink:href="#BitstreamVeraSans-Roman-2212"/>
       <use x="83.7890625" xlink:href="#BitstreamVeraSans-Roman-31"/>
       <use x="147.412109375" xlink:href="#BitstreamVeraSans-Roman-30"/>
      </g>
     </g>
    </g>
    <g id="xtick_2">
     <g id="line2d_23">
      <g>
       <use style="stroke:#000000;stroke-width:0.5;" x="192.64078125" xlink:href="#me16921fb38" y="377.3840625"/>
      </g>
     </g>
     <g id="line2d_24">
      <g>
       <use style="stroke:#000000;stroke-width:0.5;" x="192.64078125" xlink:href="#m9e31b568e1" y="216.423984375"/>
      </g>
     </g>
     <g id="text_10">
      <!-- −5 -->
      <g transform="translate(180.84703125 393.5415625)scale(0.16 -0.16)">
       <use xlink:href="#BitstreamVeraSans-Roman-2212"/>
       <use x="83.7890625" xlink:href="#BitstreamVeraSans-Roman-35"/>
      </g>
     </g>
    </g>
    <g id="xtick_3">
     <g id="line2d_25">
      <g>
       <use style="stroke:#000000;stroke-width:0.5;" x="311.6109375" xlink:href="#me16921fb38" y="377.3840625"/>
      </g>
     </g>
     <g id="line2d_26">
      <g>
       <use style="stroke:#000000;stroke-width:0.5;" x="311.6109375" xlink:href="#m9e31b568e1" y="216.423984375"/>
      </g>
     </g>
     <g id="text_11">
      <!-- 0 -->
      <g transform="translate(306.5209375 393.5415625)scale(0.16 -0.16)">
       <use xlink:href="#BitstreamVeraSans-Roman-30"/>
      </g>
     </g>
    </g>
    <g id="xtick_4">
     <g id="line2d_27">
      <g>
       <use style="stroke:#000000;stroke-width:0.5;" x="430.58109375" xlink:href="#me16921fb38" y="377.3840625"/>
      </g>
     </g>
     <g id="line2d_28">
      <g>
       <use style="stroke:#000000;stroke-width:0.5;" x="430.58109375" xlink:href="#m9e31b568e1" y="216.423984375"/>
      </g>
     </g>
     <g id="text_12">
      <!-- 5 -->
      <g transform="translate(425.49109375 393.5415625)scale(0.16 -0.16)">
       <use xlink:href="#BitstreamVeraSans-Roman-35"/>
      </g>
     </g>
    </g>
    <g id="xtick_5">
     <g id="line2d_29">
      <g>
       <use style="stroke:#000000;stroke-width:0.5;" x="549.55125" xlink:href="#me16921fb38" y="377.3840625"/>
      </g>
     </g>
     <g id="line2d_30">
      <g>
       <use style="stroke:#000000;stroke-width:0.5;" x="549.55125" xlink:href="#m9e31b568e1" y="216.423984375"/>
      </g>
     </g>
     <g id="text_13">
      <!-- 10 -->
      <g transform="translate(539.37125 393.5415625)scale(0.16 -0.16)">
       <use xlink:href="#BitstreamVeraSans-Roman-31"/>
       <use x="63.623046875" xlink:href="#BitstreamVeraSans-Roman-30"/>
      </g>
     </g>
    </g>
    <g id="text_14">
     <!-- $\lambda_{\mathbf{k}} / \Delta_0$ -->
     <defs>
      <path d="M 5.421875 0 
Q 4.59375 0 4.59375 0.78125 
Q 4.640625 0.875 4.65625 0.921875 
Q 4.6875 0.984375 4.6875 1.125 
L 39.109375 70.515625 
Q 39.546875 71.578125 40.921875 71.578125 
L 42.28125 71.578125 
Q 43.65625 71.578125 44.09375 70.515625 
L 78.515625 1.125 
Q 78.5625 1.03125 78.578125 0.953125 
Q 78.609375 0.875 78.609375 0.78125 
Q 78.609375 0 77.78125 0 
z
M 12.015625 8.015625 
L 64.703125 8.015625 
L 38.375 61.078125 
z
" id="Cmr10-a2"/>
      <path d="M 25 -2.203125 
Q 12.75 -2.203125 8.328125 7.875 
Q 3.90625 17.96875 3.90625 31.890625 
Q 3.90625 40.578125 5.484375 48.234375 
Q 7.078125 55.90625 11.78125 61.25 
Q 16.5 66.609375 25 66.609375 
Q 31.59375 66.609375 35.78125 63.375 
Q 39.984375 60.15625 42.1875 55.046875 
Q 44.390625 49.953125 45.1875 44.109375 
Q 46 38.28125 46 31.890625 
Q 46 23.296875 44.40625 15.796875 
Q 42.828125 8.296875 38.1875 3.046875 
Q 33.546875 -2.203125 25 -2.203125 
M 25 0.390625 
Q 30.5625 0.390625 33.296875 6.09375 
Q 36.03125 11.8125 36.671875 18.75 
Q 37.3125 25.6875 37.3125 33.5 
Q 37.3125 41.015625 36.671875 47.359375 
Q 36.03125 53.71875 33.3125 58.859375 
Q 30.609375 64.015625 25 64.015625 
Q 19.34375 64.015625 16.609375 58.828125 
Q 13.875 53.65625 13.234375 47.328125 
Q 12.59375 41.015625 12.59375 33.5 
Q 12.59375 27.9375 12.859375 23 
Q 13.140625 18.0625 14.3125 12.8125 
Q 15.484375 7.5625 18.09375 3.96875 
Q 20.703125 0.390625 25 0.390625 
" id="Cmr10-30"/>
      <path d="M 5.078125 1.703125 
Q 5.078125 3.171875 6.390625 4.5 
L 34.515625 32.078125 
L 24.609375 59.90625 
Q 23.4375 63.09375 22.140625 64.9375 
Q 20.84375 66.796875 18.40625 66.796875 
Q 17.28125 66.796875 17.28125 68.109375 
Q 17.390625 68.703125 17.78125 69.046875 
Q 18.171875 69.390625 18.796875 69.390625 
Q 29.296875 69.390625 31.5 63.1875 
L 51.8125 6.5 
Q 53.125 2.25 54.5 0.78125 
Q 54.984375 0.046875 54.984375 -0.203125 
Q 54.984375 -1.125 54.203125 -1.125 
L 48.78125 -1.125 
Q 46.296875 -0.390625 44.828125 3.21875 
L 35.6875 28.8125 
L 11.53125 0.390625 
Q 9.71875 -1.3125 8.296875 -1.3125 
Q 7.03125 -1.3125 6.046875 -0.4375 
Q 5.078125 0.4375 5.078125 1.703125 
" id="Cmmi10-b8"/>
      <path d="M 1.421875 0 
L 1.421875 5.078125 
L 8.296875 5.078125 
L 8.296875 60.6875 
Q 8.296875 62.546875 6.34375 63.015625 
Q 4.390625 63.484375 1.421875 63.484375 
L 1.421875 68.609375 
L 19.484375 69.390625 
L 19.484375 25.296875 
L 33.59375 38.484375 
Q 33.59375 38.921875 31.875 39.109375 
Q 30.171875 39.3125 29.109375 39.3125 
L 29.109375 44.390625 
L 48.78125 44.390625 
L 48.78125 39.3125 
Q 42 39.3125 41.015625 38.375 
L 29.78125 27.875 
L 44.484375 6 
Q 45.515625 5.078125 51.125 5.078125 
L 51.125 0 
L 28.71875 0 
L 28.71875 5.078125 
Q 32.421875 5.078125 32.421875 5.90625 
L 22.3125 20.90625 
L 19 17.828125 
L 19 5.078125 
L 25.78125 5.078125 
L 25.78125 0 
z
" id="Cmb10-6b"/>
     </defs>
     <g transform="translate(289.1309375 413.8690625)scale(0.16 -0.16)">
      <use xlink:href="#Cmmi10-b8"/>
      <use transform="translate(58.30078125 -17.006249999999994)scale(0.7)" xlink:href="#Cmb10-6b"/>
      <use transform="translate(101.5580078125 0.0)" xlink:href="#Cmmi10-3d"/>
      <use transform="translate(151.5580078125 0.0)" xlink:href="#Cmr10-a2"/>
      <use transform="translate(239.3229296875 -17.006249999999994)scale(0.7)" xlink:href="#Cmr10-30"/>
     </g>
    </g>
   </g>
   <g id="matplotlib.axis_3">
    <g id="ytick_5">
     <g id="line2d_31">
      <g>
       <use style="stroke:#000000;stroke-width:0.5;" x="73.670625" xlink:href="#mb6f473f33c" y="377.3840625"/>
      </g>
     </g>
     <g id="line2d_32">
      <g>
       <use style="stroke:#000000;stroke-width:0.5;" x="549.55125" xlink:href="#mb25e9b53f4" y="377.3840625"/>
      </g>
     </g>
     <g id="text_15">
      <!-- 0.00 -->
      <g transform="translate(34.045625 381.7990625)scale(0.16 -0.16)">
       <use xlink:href="#BitstreamVeraSans-Roman-30"/>
       <use x="63.623046875" xlink:href="#BitstreamVeraSans-Roman-2e"/>
       <use x="95.41015625" xlink:href="#BitstreamVeraSans-Roman-30"/>
       <use x="159.033203125" xlink:href="#BitstreamVeraSans-Roman-30"/>
      </g>
     </g>
    </g>
    <g id="ytick_6">
     <g id="line2d_33">
      <g>
       <use style="stroke:#000000;stroke-width:0.5;" x="73.670625" xlink:href="#mb6f473f33c" y="337.144042969"/>
      </g>
     </g>
     <g id="line2d_34">
      <g>
       <use style="stroke:#000000;stroke-width:0.5;" x="549.55125" xlink:href="#mb25e9b53f4" y="337.144042969"/>
      </g>
     </g>
     <g id="text_16">
      <!-- 0.05 -->
      <g transform="translate(34.045625 341.559042969)scale(0.16 -0.16)">
       <use xlink:href="#BitstreamVeraSans-Roman-30"/>
       <use x="63.623046875" xlink:href="#BitstreamVeraSans-Roman-2e"/>
       <use x="95.41015625" xlink:href="#BitstreamVeraSans-Roman-30"/>
       <use x="159.033203125" xlink:href="#BitstreamVeraSans-Roman-35"/>
      </g>
     </g>
    </g>
    <g id="ytick_7">
     <g id="line2d_35">
      <g>
       <use style="stroke:#000000;stroke-width:0.5;" x="73.670625" xlink:href="#mb6f473f33c" y="296.904023437"/>
      </g>
     </g>
     <g id="line2d_36">
      <g>
       <use style="stroke:#000000;stroke-width:0.5;" x="549.55125" xlink:href="#mb25e9b53f4" y="296.904023437"/>
      </g>
     </g>
     <g id="text_17">
      <!-- 0.10 -->
      <g transform="translate(34.045625 301.319023437)scale(0.16 -0.16)">
       <use xlink:href="#BitstreamVeraSans-Roman-30"/>
       <use x="63.623046875" xlink:href="#BitstreamVeraSans-Roman-2e"/>
       <use x="95.41015625" xlink:href="#BitstreamVeraSans-Roman-31"/>
       <use x="159.033203125" xlink:href="#BitstreamVeraSans-Roman-30"/>
      </g>
     </g>
    </g>
    <g id="ytick_8">
     <g id="line2d_37">
      <g>
       <use style="stroke:#000000;stroke-width:0.5;" x="73.670625" xlink:href="#mb6f473f33c" y="256.664003906"/>
      </g>
     </g>
     <g id="line2d_38">
      <g>
       <use style="stroke:#000000;stroke-width:0.5;" x="549.55125" xlink:href="#mb25e9b53f4" y="256.664003906"/>
      </g>
     </g>
     <g id="text_18">
      <!-- 0.15 -->
      <g transform="translate(34.045625 261.079003906)scale(0.16 -0.16)">
       <use xlink:href="#BitstreamVeraSans-Roman-30"/>
       <use x="63.623046875" xlink:href="#BitstreamVeraSans-Roman-2e"/>
       <use x="95.41015625" xlink:href="#BitstreamVeraSans-Roman-31"/>
       <use x="159.033203125" xlink:href="#BitstreamVeraSans-Roman-35"/>
      </g>
     </g>
    </g>
    <g id="ytick_9">
     <g id="line2d_39">
      <g>
       <use style="stroke:#000000;stroke-width:0.5;" x="73.670625" xlink:href="#mb6f473f33c" y="216.423984375"/>
      </g>
     </g>
     <g id="line2d_40">
      <g>
       <use style="stroke:#000000;stroke-width:0.5;" x="549.55125" xlink:href="#mb25e9b53f4" y="216.423984375"/>
      </g>
     </g>
     <g id="text_19">
      <!-- 0.20 -->
      <g transform="translate(34.045625 220.838984375)scale(0.16 -0.16)">
       <use xlink:href="#BitstreamVeraSans-Roman-30"/>
       <use x="63.623046875" xlink:href="#BitstreamVeraSans-Roman-2e"/>
       <use x="95.41015625" xlink:href="#BitstreamVeraSans-Roman-32"/>
       <use x="159.033203125" xlink:href="#BitstreamVeraSans-Roman-30"/>
      </g>
     </g>
    </g>
    <g id="text_20">
     <!-- $\left( c / ℏ \right) \left|P_-\right|$ ($\mathregular{GeV}$) -->
     <defs>
      <path d="M 10.203125 23 
Q 9.375 23 8.828125 23.625 
Q 8.296875 24.265625 8.296875 25 
Q 8.296875 25.734375 8.828125 26.359375 
Q 9.375 27 10.203125 27 
L 67.578125 27 
Q 68.359375 27 68.875 26.359375 
Q 69.390625 25.734375 69.390625 25 
Q 69.390625 24.265625 68.875 23.625 
Q 68.359375 23 67.578125 23 
z
" id="Cmsy10-a1"/>
     </defs>
     <g transform="translate(25.045625 356.344023437)rotate(-90.0)scale(0.16 -0.16)">
      <use transform="translate(0.0 0.125)" xlink:href="#Cmr10-28"/>
      <use transform="translate(38.818359375 0.125)" xlink:href="#Cmmi10-63"/>
      <use transform="translate(82.03125 0.125)" xlink:href="#Cmmi10-3d"/>
      <use transform="translate(132.03125 0.125)" xlink:href="#STIXGeneral-Regular-210f"/>
      <use transform="translate(189.93124389648438 0.125)" xlink:href="#Cmr10-29"/>
      <use transform="translate(228.74960327148438 4.446875000000006)scale(0.8531875)" xlink:href="#Cmsy10-6a"/>
      <use transform="translate(252.36883544921875 0.125)" xlink:href="#Cmmi10-50"/>
      <use transform="translate(328.86883544921875 -16.881249999999994)scale(0.7)" xlink:href="#Cmsy10-a1"/>
      <use transform="translate(401.9170776367188 4.446875000000006)scale(0.8531875)" xlink:href="#Cmsy10-6a"/>
      <use transform="translate(425.53630981445315 0.125)" xlink:href="#BitstreamVeraSans-Roman-20"/>
      <use transform="translate(457.32341918945315 0.125)" xlink:href="#BitstreamVeraSans-Roman-28"/>
      <use transform="translate(496.33709106445315 0.125)" xlink:href="#BitstreamVeraSans-Roman-47"/>
      <use transform="translate(573.8273254394531 0.125)" xlink:href="#BitstreamVeraSans-Roman-65"/>
      <use transform="translate(635.3507629394531 0.125)" xlink:href="#BitstreamVeraSans-Roman-56"/>
      <use transform="translate(703.7589660644531 0.125)" xlink:href="#BitstreamVeraSans-Roman-29"/>
     </g>
    </g>
   </g>
  </g>
 </g>
 <defs>
  <clipPath id="p7a3c311e97">
   <rect height="160.960078125" width="475.880625" x="73.670625" y="24.24796875"/>
  </clipPath>
  <clipPath id="p76e3dd872a">
   <rect height="160.960078125" width="475.880625" x="73.670625" y="216.423984375"/>
  </clipPath>
 </defs>
</svg>
