<svg id="Layer_1" data-name="Layer 1" xmlns="http://www.w3.org/2000/svg" viewBox="0 0 476.19 91.84"><defs><style>.cls-1{fill:#fff;}</style></defs><title>ucr_logo_white</title><path class="cls-1" d="M529.16,346.43V356.6c0,1.67,1.2,3.07,3.45,3.07s3.45-1.4,3.45-3.07V346.43h1.6v10c0,2.87-2.07,4.55-5,4.55s-5-1.67-5-4.55v-10h1.6Z" transform="translate(-370.21 -346.23)"/><path class="cls-1" d="M544.47,360.83v-14.4h2.29L553,357.52h0.08V346.43h1.44v14.4h-1.32L546,348h0v12.84h-1.44Z" transform="translate(-370.21 -346.23)"/><path class="cls-1" d="M563.34,346.43v14.4h-1.6v-14.4h1.6Z" transform="translate(-370.21 -346.23)"/><path class="cls-1" d="M568.74,346.43h1.59l3.55,11.8h0l3.57-11.8h1.62l-4.47,14.4h-1.46Z" transform="translate(-370.21 -346.23)"/><path class="cls-1" d="M592.77,346.43v1.36h-7v4.83h5V354h-5v5.5h7.44v1.36h-9v-14.4h8.63Z" transform="translate(-370.21 -346.23)"/><path class="cls-1" d="M598.67,360.83v-14.4h4.63c3.11,0,4.81,1.4,4.81,3.79a3.73,3.73,0,0,1-2.87,3.75l3.05,6.86h-1.73l-2.91-6.54h-3.37v6.54h-1.6Zm1.6-7.9h2.89c2.19,0,3.35-.82,3.35-2.63s-1.32-2.51-3.37-2.51h-2.87v5.14Z" transform="translate(-370.21 -346.23)"/><path class="cls-1" d="M621.42,350.1a3.27,3.27,0,0,0-3.35-2.51c-1.68,0-2.67.8-2.69,2.23,0,3.15,8.1,2.35,8.1,7,0,2.09-1.18,4.23-4.85,4.23-3.15,0-4.39-2-5.14-3.75l1.46-.52a3.93,3.93,0,0,0,3.77,2.91c2.11,0,3.17-1.12,3.17-2.59,0-3.67-8.1-2.59-8.1-7.14,0-2.07,1.74-3.71,4.33-3.71a4.72,4.72,0,0,1,4.75,3.55Z" transform="translate(-370.21 -346.23)"/><path class="cls-1" d="M631.29,346.43v14.4H629.7v-14.4h1.59Z" transform="translate(-370.21 -346.23)"/><path class="cls-1" d="M642.68,347.79v13h-1.6v-13h-4.31v-1.36H647v1.36h-4.31Z" transform="translate(-370.21 -346.23)"/><path class="cls-1" d="M654.68,354.77l-4.43-8.33H652l3.47,6.6,3.47-6.6h1.75l-4.43,8.33v6.06h-1.59v-6.06Z" transform="translate(-370.21 -346.23)"/><path class="cls-1" d="M678.77,346.23c3.53,0,5.62,2.59,5.62,7.4s-2.09,7.4-5.62,7.4-5.62-2.59-5.62-7.4S675.24,346.23,678.77,346.23Zm0,13.44c2.53,0,4-2,4-6s-1.5-6-4-6-4,2-4,6S676.24,359.67,678.77,359.67Z" transform="translate(-370.21 -346.23)"/><path class="cls-1" d="M698.47,346.43v1.36h-6.94v4.83h5.14V354h-5.14v6.86h-1.59v-14.4h8.53Z" transform="translate(-370.21 -346.23)"/><path class="cls-1" d="M721.54,356.52c-0.64,2.67-2.11,4.51-5.06,4.51-3.23,0-5.5-2.35-5.5-7.4,0-4.69,2-7.4,5.5-7.4,2.67,0,4.23,1.56,4.87,4.19l-1.48.44c-0.52-2-1.44-3.27-3.59-3.27s-3.71,1.91-3.71,6,1.63,6,4,6c2.21,0,3.07-1.67,3.51-3.43Z" transform="translate(-370.21 -346.23)"/><path class="cls-1" d="M725.31,360.83l4.43-14.4h2.37l4.43,14.4h-1.67l-1.36-4.51h-5.16L727,360.83h-1.67Zm3.43-5.86h4.37L731,347.55h-0.22Z" transform="translate(-370.21 -346.23)"/><path class="cls-1" d="M741.68,360.83v-14.4h1.6v13h6.82v1.36h-8.42Z" transform="translate(-370.21 -346.23)"/><path class="cls-1" d="M757.24,346.43v14.4h-1.6v-14.4h1.6Z" transform="translate(-370.21 -346.23)"/><path class="cls-1" d="M772.81,346.43v1.36h-6.94v4.83H771V354h-5.14v6.86h-1.6v-14.4h8.53Z" transform="translate(-370.21 -346.23)"/><path class="cls-1" d="M782.52,346.23c3.53,0,5.62,2.59,5.62,7.4S786,361,782.52,361s-5.62-2.59-5.62-7.4S779,346.23,782.52,346.23Zm0,13.44c2.53,0,4-2,4-6s-1.5-6-4-6-4,2-4,6S780,359.67,782.52,359.67Z" transform="translate(-370.21 -346.23)"/><path class="cls-1" d="M793.68,360.83v-14.4h4.63c3.11,0,4.81,1.4,4.81,3.79a3.73,3.73,0,0,1-2.87,3.75l3.05,6.86h-1.73l-2.91-6.54h-3.37v6.54h-1.6Zm1.6-7.9h2.89c2.19,0,3.35-.82,3.35-2.63s-1.32-2.51-3.37-2.51h-2.87v5.14Z" transform="translate(-370.21 -346.23)"/><path class="cls-1" d="M809.66,360.83v-14.4H812l6.28,11.09h0.08V346.43h1.44v14.4h-1.32L811.13,348h0v12.84h-1.44Z" transform="translate(-370.21 -346.23)"/><path class="cls-1" d="M828.52,346.43v14.4h-1.6v-14.4h1.6Z" transform="translate(-370.21 -346.23)"/><path class="cls-1" d="M834,360.83l4.43-14.4h2.37l4.43,14.4h-1.67l-1.36-4.51h-5.16l-1.36,4.51H834Zm3.43-5.86h4.37l-2.07-7.42h-0.22Z" transform="translate(-370.21 -346.23)"/><path class="cls-1" d="M527.57,437.08V365.52h12.29v71.56H527.57Z" transform="translate(-370.21 -346.23)"/><path class="cls-1" d="M578.37,365.52h12.09l-15,71.56H563.2l-15-71.56h12.09l8.92,49.65h0.2Z" transform="translate(-370.21 -346.23)"/><path class="cls-1" d="M598.52,437.08V365.52h32.91v10.7H610.81v18.44h15.86v10.7H610.81v21h22v10.7h-34.3Z" transform="translate(-370.21 -346.23)"/><path class="cls-1" d="M654.67,437.08H642.38V365.52h17.25c13.77,0,20.81,5.85,20.81,21.11,0,11.5-4.46,16.15-8.62,18l10.41,32.41H669.74L661,407.45a60.1,60.1,0,0,1-6.34.29v29.34Zm0-39.44H659c6.64,0,9.12-2.48,9.12-11s-2.48-11-9.12-11h-4.36v22Z" transform="translate(-370.21 -346.23)"/><path class="cls-1" d="M713.4,383.17c-0.49-6.15-3.77-7.93-6.54-7.93-4,0-6.14,2.58-6.14,7,0,12.19,25,18,25,37.46,0,11.8-7.93,18.34-19.43,18.34s-17.94-9.12-18.43-19.82l11.69-1.68c0.5,7.24,3.37,10.8,7.34,10.8,4.26,0,7.14-2.28,7.14-6.54,0-14.17-25-17.94-25-38.45,0-11.4,6.94-17.84,19-17.84,10,0,16,7.24,17,17.35Z" transform="translate(-370.21 -346.23)"/><path class="cls-1" d="M736.33,437.08V365.52h12.29v71.56H736.33Z" transform="translate(-370.21 -346.23)"/><path class="cls-1" d="M762.34,365.52h18.24c12.69,0,19.42,6.94,19.42,21.61v28.34c0,14.67-6.74,21.61-19.42,21.61H762.34V365.52ZM774.63,427h4.26c6.54,0,8.82-2.48,8.82-10V385.64c0-7.53-2.28-10-8.82-10h-4.26V427Z" transform="translate(-370.21 -346.23)"/><path class="cls-1" d="M812.11,437.08V365.52H845v10.7H824.4v18.44h15.86v10.7H824.4v21h22v10.7H812.11Z" transform="translate(-370.21 -346.23)"/><path class="cls-1" d="M370.21,365.45h12.15v53.41c0,5.19,2.06,7.74,6.47,7.74s6.47-2.55,6.47-7.74V365.45h12.15v52.92c0,12.15-7.06,18.82-18.62,18.82s-18.62-6.66-18.62-18.82V365.45Z" transform="translate(-370.21 -346.23)"/><path class="cls-1" d="M443.71,389.07v-5.49c0-6-2.74-8.53-5.88-8.53-4.9,0-6.47,2.55-6.47,7.84v35.86c0,5.29,1.57,7.84,6.47,7.84,4.41,0,5.88-2.55,5.88-7.15v-8.53h12.15v8.13c0,10-5.88,18.13-18,18.13-12.74,0-18.62-8.13-18.62-18.13V382.6c0-10,5.88-18.13,18.62-18.13,12.15,0,18,8.82,18,19.4v5.19H443.71Z" transform="translate(-370.21 -346.23)"/><path class="cls-1" d="M483.63,346.28H468v90.87h15.6V346.28ZM505.41,396c5.28-2.39,10.94-8.3,10.94-22.9,0-19.38-8.93-26.81-26.42-26.81h-5.74l2.52,15.78,9.34-14.38-5.73,17.22,15.51-9.42-12.64,13,22.12-2.59L494.21,373l20.27,7.2-21.29-2.71,12.64,13-15.51-9.43,5.73,17.22-9.25-14.24-2.61,15.81a73.35,73.35,0,0,0,7.49-.37l11.08,37.63h15.85Z" transform="translate(-370.21 -346.23)"/></svg>