<?xml version="1.0" encoding="utf-8" standalone="no"?>
<!DOCTYPE svg PUBLIC "-//W3C//DTD SVG 1.1//EN"
  "http://www.w3.org/Graphics/SVG/1.1/DTD/svg11.dtd">
<!-- Created with matplotlib (http://matplotlib.org/) -->
<svg height="432pt" version="1.1" viewBox="0 0 576 432" width="576pt" xmlns="http://www.w3.org/2000/svg" xmlns:xlink="http://www.w3.org/1999/xlink">
 <defs>
  <style type="text/css">
*{stroke-linecap:butt;stroke-linejoin:round;stroke-miterlimit:100000;}
  </style>
 </defs>
 <g id="figure_1">
  <g id="patch_1">
   <path d="M 0 432 
L 576 432 
L 576 0 
L 0 0 
L 0 432 
z
" style="fill:none;"/>
  </g>
  <g id="axes_1">
   <g id="line2d_1">
    <path clip-path="url(#pe9be53dad2)" d="M 283.140062 350.169224 
L 281.278906 347.606593 
L 279.417749 345.052641 
L 277.556593 342.507833 
L 275.695436 339.972664 
L 273.83428 337.447663 
L 271.973123 334.933399 
L 270.111967 332.430478 
L 268.25081 329.93955 
L 266.389653 327.461316 
L 264.528497 324.996523 
L 262.66734 322.545978 
L 260.806184 320.110545 
L 258.945027 317.691156 
L 257.083871 315.288812 
L 255.222714 312.904594 
L 253.361557 310.539665 
L 251.500401 308.195279 
L 249.639244 305.872788 
L 247.778088 303.573655 
L 245.916931 301.299453 
L 244.055775 299.051887 
L 242.194618 296.832792 
L 240.333461 294.644153 
L 238.472305 292.488111 
L 236.611148 290.366976 
L 234.749992 288.283239 
L 232.888835 286.239582 
L 231.027679 284.238891 
L 229.166522 282.284267 
L 227.305366 280.379034 
L 225.444209 278.526744 
L 223.583052 276.731188 
L 221.721896 274.996393 
L 219.860739 273.326618 
L 217.999583 271.726348 
L 216.138426 270.200276 
L 214.27727 268.753279 
L 212.416113 267.390383 
L 210.554956 266.116719 
L 208.6938 264.937466 
L 206.832643 263.857781 
L 204.971487 262.882721 
L 203.11033 262.01715 
L 201.249174 261.265641 
L 199.388017 260.632373 
L 197.52686 260.121027 
L 195.665704 259.734688 
L 193.804547 259.475756 
L 191.943391 259.345872 
L 190.082234 259.345872 
L 188.221078 259.475756 
L 186.359921 259.734688 
L 184.498765 260.121027 
L 182.637608 260.632373 
L 180.776451 261.265641 
L 178.915295 262.01715 
L 177.054138 262.882721 
L 175.192982 263.857781 
L 173.331825 264.937466 
L 171.470669 266.116719 
L 169.609512 267.390383 
L 167.748355 268.753279 
L 165.887199 270.200276 
L 164.026042 271.726348 
L 162.164886 273.326618 
L 160.303729 274.996393 
L 158.442573 276.731188 
L 156.581416 278.526744 
L 154.720259 280.379034 
L 152.859103 282.284267 
L 150.997946 284.238891 
L 149.13679 286.239582 
L 147.275633 288.283239 
L 145.414477 290.366976 
L 143.55332 292.488111 
L 141.692164 294.644153 
L 139.831007 296.832792 
L 137.96985 299.051887 
L 136.108694 301.299453 
L 134.247537 303.573655 
L 132.386381 305.872788 
L 130.525224 308.195279 
L 128.664068 310.539665 
L 126.802911 312.904594 
L 124.941754 315.288812 
L 123.080598 317.691156 
L 121.219441 320.110545 
L 119.358285 322.545978 
L 117.497128 324.996523 
L 115.635972 327.461316 
L 113.774815 329.93955 
L 111.913658 332.430478 
L 110.052502 334.933399 
L 108.191345 337.447663 
L 106.330189 339.972664 
L 104.469032 342.507833 
L 102.607876 345.052641 
L 100.746719 347.606593 
L 98.885562 350.169224 
" style="fill:none;stroke:#000000;stroke-linecap:square;"/>
   </g>
   <g id="line2d_2">
    <path clip-path="url(#pe9be53dad2)" d="M 283.140062 379.534437 
L 281.278906 377.12032 
L 279.417749 374.719111 
L 277.556593 372.331419 
L 275.695436 369.957887 
L 273.83428 367.599194 
L 271.973123 365.256059 
L 270.111967 362.929245 
L 268.25081 360.619558 
L 266.389653 358.327852 
L 264.528497 356.05503 
L 262.66734 353.802049 
L 260.806184 351.569925 
L 258.945027 349.359731 
L 257.083871 347.172605 
L 255.222714 345.00975 
L 253.361557 342.872441 
L 251.500401 340.762027 
L 249.639244 338.679935 
L 247.778088 336.627673 
L 245.916931 334.606833 
L 244.055775 332.619098 
L 242.194618 330.66624 
L 240.333461 328.750126 
L 238.472305 326.872721 
L 236.611148 325.036086 
L 234.749992 323.242383 
L 232.888835 321.493874 
L 231.027679 319.792918 
L 229.166522 318.141969 
L 227.305366 316.543577 
L 225.444209 315.000375 
L 223.583052 313.515076 
L 221.721896 312.09046 
L 219.860739 310.729365 
L 217.999583 309.43467 
L 216.138426 308.209275 
L 214.27727 307.056086 
L 212.416113 305.977983 
L 210.554956 304.977803 
L 208.6938 304.058305 
L 206.832643 303.222141 
L 204.971487 302.471825 
L 203.11033 301.809701 
L 201.249174 301.237907 
L 199.388017 300.758345 
L 197.52686 300.372652 
L 195.665704 300.082174 
L 193.804547 299.88794 
L 191.943391 299.790647 
L 190.082234 299.790647 
L 188.221078 299.88794 
L 186.359921 300.082174 
L 184.498765 300.372652 
L 182.637608 300.758345 
L 180.776451 301.237907 
L 178.915295 301.809701 
L 177.054138 302.471825 
L 175.192982 303.222141 
L 173.331825 304.058305 
L 171.470669 304.977803 
L 169.609512 305.977983 
L 167.748355 307.056086 
L 165.887199 308.209275 
L 164.026042 309.43467 
L 162.164886 310.729365 
L 160.303729 312.09046 
L 158.442573 313.515076 
L 156.581416 315.000375 
L 154.720259 316.543577 
L 152.859103 318.141969 
L 150.997946 319.792918 
L 149.13679 321.493874 
L 147.275633 323.242383 
L 145.414477 325.036086 
L 143.55332 326.872721 
L 141.692164 328.750126 
L 139.831007 330.66624 
L 137.96985 332.619098 
L 136.108694 334.606833 
L 134.247537 336.627673 
L 132.386381 338.679935 
L 130.525224 340.762027 
L 128.664068 342.872441 
L 126.802911 345.00975 
L 124.941754 347.172605 
L 123.080598 349.359731 
L 121.219441 351.569925 
L 119.358285 353.802049 
L 117.497128 356.05503 
L 115.635972 358.327852 
L 113.774815 360.619558 
L 111.913658 362.929245 
L 110.052502 365.256059 
L 108.191345 367.599194 
L 106.330189 369.957887 
L 104.469032 372.331419 
L 102.607876 374.719111 
L 100.746719 377.12032 
L 98.885562 379.534437 
" style="fill:none;stroke:#000000;stroke-linecap:square;"/>
   </g>
   <g id="line2d_3">
    <path clip-path="url(#pe9be53dad2)" d="M 329.203687 379.534437 
L 331.064844 377.12032 
L 332.926001 374.719111 
L 334.787157 372.331419 
L 336.648314 369.957887 
L 338.50947 367.599194 
L 340.370627 365.256059 
L 342.231783 362.929245 
L 344.09294 360.619558 
L 345.954097 358.327852 
L 347.815253 356.05503 
L 349.67641 353.802049 
L 351.537566 351.569925 
L 353.398723 349.359731 
L 355.259879 347.172605 
L 357.121036 345.00975 
L 358.982193 342.872441 
L 360.843349 340.762027 
L 362.704506 338.679935 
L 364.565662 336.627673 
L 366.426819 334.606833 
L 368.287975 332.619098 
L 370.149132 330.66624 
L 372.010289 328.750126 
L 373.871445 326.872721 
L 375.732602 325.036086 
L 377.593758 323.242383 
L 379.454915 321.493874 
L 381.316071 319.792918 
L 383.177228 318.141969 
L 385.038384 316.543577 
L 386.899541 315.000375 
L 388.760698 313.515076 
L 390.621854 312.09046 
L 392.483011 310.729365 
L 394.344167 309.43467 
L 396.205324 308.209275 
L 398.06648 307.056086 
L 399.927637 305.977983 
L 401.788794 304.977803 
L 403.64995 304.058305 
L 405.511107 303.222141 
L 407.372263 302.471825 
L 409.23342 301.809701 
L 411.094576 301.237907 
L 412.955733 300.758345 
L 414.81689 300.372652 
L 416.678046 300.082174 
L 418.539203 299.88794 
L 420.400359 299.790647 
L 422.261516 299.790647 
L 424.122672 299.88794 
L 425.983829 300.082174 
L 427.844985 300.372652 
L 429.706142 300.758345 
L 431.567299 301.237907 
L 433.428455 301.809701 
L 435.289612 302.471825 
L 437.150768 303.222141 
L 439.011925 304.058305 
L 440.873081 304.977803 
L 442.734238 305.977983 
L 444.595395 307.056086 
L 446.456551 308.209275 
L 448.317708 309.43467 
L 450.178864 310.729365 
L 452.040021 312.09046 
L 453.901177 313.515076 
L 455.762334 315.000375 
L 457.623491 316.543577 
L 459.484647 318.141969 
L 461.345804 319.792918 
L 463.20696 321.493874 
L 465.068117 323.242383 
L 466.929273 325.036086 
L 468.79043 326.872721 
L 470.651586 328.750126 
L 472.512743 330.66624 
L 474.3739 332.619098 
L 476.235056 334.606833 
L 478.096213 336.627673 
L 479.957369 338.679935 
L 481.818526 340.762027 
L 483.679682 342.872441 
L 485.540839 345.00975 
L 487.401996 347.172605 
L 489.263152 349.359731 
L 491.124309 351.569925 
L 492.985465 353.802049 
L 494.846622 356.05503 
L 496.707778 358.327852 
L 498.568935 360.619558 
L 500.430092 362.929245 
L 502.291248 365.256059 
L 504.152405 367.599194 
L 506.013561 369.957887 
L 507.874718 372.331419 
L 509.735874 374.719111 
L 511.597031 377.12032 
L 513.458187 379.534437 
" style="fill:none;stroke:#000000;stroke-linecap:square;"/>
   </g>
   <g id="line2d_4">
    <path clip-path="url(#pe9be53dad2)" d="M 329.203687 350.169224 
L 331.064844 347.606593 
L 332.926001 345.052641 
L 334.787157 342.507833 
L 336.648314 339.972664 
L 338.50947 337.447663 
L 340.370627 334.933399 
L 342.231783 332.430478 
L 344.09294 329.93955 
L 345.954097 327.461316 
L 347.815253 324.996523 
L 349.67641 322.545978 
L 351.537566 320.110545 
L 353.398723 317.691156 
L 355.259879 315.288812 
L 357.121036 312.904594 
L 358.982193 310.539665 
L 360.843349 308.195279 
L 362.704506 305.872788 
L 364.565662 303.573655 
L 366.426819 301.299453 
L 368.287975 299.051887 
L 370.149132 296.832792 
L 372.010289 294.644153 
L 373.871445 292.488111 
L 375.732602 290.366976 
L 377.593758 288.283239 
L 379.454915 286.239582 
L 381.316071 284.238891 
L 383.177228 282.284267 
L 385.038384 280.379034 
L 386.899541 278.526744 
L 388.760698 276.731188 
L 390.621854 274.996393 
L 392.483011 273.326618 
L 394.344167 271.726348 
L 396.205324 270.200276 
L 398.06648 268.753279 
L 399.927637 267.390383 
L 401.788794 266.116719 
L 403.64995 264.937466 
L 405.511107 263.857781 
L 407.372263 262.882721 
L 409.23342 262.01715 
L 411.094576 261.265641 
L 412.955733 260.632373 
L 414.81689 260.121027 
L 416.678046 259.734688 
L 418.539203 259.475756 
L 420.400359 259.345872 
L 422.261516 259.345872 
L 424.122672 259.475756 
L 425.983829 259.734688 
L 427.844985 260.121027 
L 429.706142 260.632373 
L 431.567299 261.265641 
L 433.428455 262.01715 
L 435.289612 262.882721 
L 437.150768 263.857781 
L 439.011925 264.937466 
L 440.873081 266.116719 
L 442.734238 267.390383 
L 444.595395 268.753279 
L 446.456551 270.200276 
L 448.317708 271.726348 
L 450.178864 273.326618 
L 452.040021 274.996393 
L 453.901177 276.731188 
L 455.762334 278.526744 
L 457.623491 280.379034 
L 459.484647 282.284267 
L 461.345804 284.238891 
L 463.20696 286.239582 
L 465.068117 288.283239 
L 466.929273 290.366976 
L 468.79043 292.488111 
L 470.651586 294.644153 
L 472.512743 296.832792 
L 474.3739 299.051887 
L 476.235056 301.299453 
L 478.096213 303.573655 
L 479.957369 305.872788 
L 481.818526 308.195279 
L 483.679682 310.539665 
L 485.540839 312.904594 
L 487.401996 315.288812 
L 489.263152 317.691156 
L 491.124309 320.110545 
L 492.985465 322.545978 
L 494.846622 324.996523 
L 496.707778 327.461316 
L 498.568935 329.93955 
L 500.430092 332.430478 
L 502.291248 334.933399 
L 504.152405 337.447663 
L 506.013561 339.972664 
L 507.874718 342.507833 
L 509.735874 345.052641 
L 511.597031 347.606593 
L 513.458187 350.169224 
" style="fill:none;stroke:#000000;stroke-linecap:square;"/>
   </g>
   <g id="line2d_5">
    <path clip-path="url(#pe9be53dad2)" d="M 283.140062 48.022752 
L 281.278906 50.585383 
L 279.417749 53.139335 
L 277.556593 55.684143 
L 275.695436 58.219312 
L 273.83428 60.744313 
L 271.973123 63.258577 
L 270.111967 65.761499 
L 268.25081 68.252426 
L 266.389653 70.73066 
L 264.528497 73.195453 
L 262.66734 75.645998 
L 260.806184 78.081431 
L 258.945027 80.500821 
L 257.083871 82.903164 
L 255.222714 85.287382 
L 253.361557 87.652311 
L 251.500401 89.996698 
L 249.639244 92.319188 
L 247.778088 94.618322 
L 245.916931 96.892523 
L 244.055775 99.140089 
L 242.194618 101.359184 
L 240.333461 103.547823 
L 238.472305 105.703865 
L 236.611148 107.825 
L 234.749992 109.908738 
L 232.888835 111.952395 
L 231.027679 113.953085 
L 229.166522 115.907709 
L 227.305366 117.812943 
L 225.444209 119.665232 
L 223.583052 121.460788 
L 221.721896 123.195583 
L 219.860739 124.865358 
L 217.999583 126.465628 
L 216.138426 127.9917 
L 214.27727 129.438698 
L 212.416113 130.801593 
L 210.554956 132.075257 
L 208.6938 133.25451 
L 206.832643 134.334195 
L 204.971487 135.309255 
L 203.11033 136.174826 
L 201.249174 136.926335 
L 199.388017 137.559603 
L 197.52686 138.070949 
L 195.665704 138.457288 
L 193.804547 138.716221 
L 191.943391 138.846104 
L 190.082234 138.846104 
L 188.221078 138.716221 
L 186.359921 138.457288 
L 184.498765 138.070949 
L 182.637608 137.559603 
L 180.776451 136.926335 
L 178.915295 136.174826 
L 177.054138 135.309255 
L 175.192982 134.334195 
L 173.331825 133.25451 
L 171.470669 132.075257 
L 169.609512 130.801593 
L 167.748355 129.438698 
L 165.887199 127.9917 
L 164.026042 126.465628 
L 162.164886 124.865358 
L 160.303729 123.195583 
L 158.442573 121.460788 
L 156.581416 119.665232 
L 154.720259 117.812943 
L 152.859103 115.907709 
L 150.997946 113.953085 
L 149.13679 111.952395 
L 147.275633 109.908738 
L 145.414477 107.825 
L 143.55332 105.703865 
L 141.692164 103.547823 
L 139.831007 101.359184 
L 137.96985 99.140089 
L 136.108694 96.892523 
L 134.247537 94.618322 
L 132.386381 92.319188 
L 130.525224 89.996698 
L 128.664068 87.652311 
L 126.802911 85.287382 
L 124.941754 82.903164 
L 123.080598 80.500821 
L 121.219441 78.081431 
L 119.358285 75.645998 
L 117.497128 73.195453 
L 115.635972 70.73066 
L 113.774815 68.252426 
L 111.913658 65.761499 
L 110.052502 63.258577 
L 108.191345 60.744313 
L 106.330189 58.219312 
L 104.469032 55.684143 
L 102.607876 53.139335 
L 100.746719 50.585383 
L 98.885562 48.022752 
" style="fill:none;stroke:#000000;stroke-linecap:square;"/>
   </g>
   <g id="line2d_6">
    <path clip-path="url(#pe9be53dad2)" d="M 283.140062 59.106399 
L 281.278906 61.520517 
L 279.417749 63.921725 
L 277.556593 66.309417 
L 275.695436 68.68295 
L 273.83428 71.041643 
L 271.973123 73.384777 
L 270.111967 75.711591 
L 268.25081 78.021278 
L 266.389653 80.312985 
L 264.528497 82.585807 
L 262.66734 84.838787 
L 260.806184 87.070911 
L 258.945027 89.281105 
L 257.083871 91.468232 
L 255.222714 93.631087 
L 253.361557 95.768395 
L 251.500401 97.878809 
L 249.639244 99.960901 
L 247.778088 102.013163 
L 245.916931 104.034003 
L 244.055775 106.021738 
L 242.194618 107.974596 
L 240.333461 109.89071 
L 238.472305 111.768116 
L 236.611148 113.60475 
L 234.749992 115.398453 
L 232.888835 117.146962 
L 231.027679 118.847919 
L 229.166522 120.498867 
L 227.305366 122.097259 
L 225.444209 123.640461 
L 223.583052 125.125761 
L 221.721896 126.550376 
L 219.860739 127.911471 
L 217.999583 129.206167 
L 216.138426 130.431561 
L 214.27727 131.584751 
L 212.416113 132.662853 
L 210.554956 133.663033 
L 208.6938 134.582532 
L 206.832643 135.418695 
L 204.971487 136.169011 
L 203.11033 136.831135 
L 201.249174 137.40293 
L 199.388017 137.882492 
L 197.52686 138.268184 
L 195.665704 138.558663 
L 193.804547 138.752897 
L 191.943391 138.85019 
L 190.082234 138.85019 
L 188.221078 138.752897 
L 186.359921 138.558663 
L 184.498765 138.268184 
L 182.637608 137.882492 
L 180.776451 137.40293 
L 178.915295 136.831135 
L 177.054138 136.169011 
L 175.192982 135.418695 
L 173.331825 134.582532 
L 171.470669 133.663033 
L 169.609512 132.662853 
L 167.748355 131.584751 
L 165.887199 130.431561 
L 164.026042 129.206167 
L 162.164886 127.911471 
L 160.303729 126.550376 
L 158.442573 125.125761 
L 156.581416 123.640461 
L 154.720259 122.097259 
L 152.859103 120.498867 
L 150.997946 118.847919 
L 149.13679 117.146962 
L 147.275633 115.398453 
L 145.414477 113.60475 
L 143.55332 111.768116 
L 141.692164 109.89071 
L 139.831007 107.974596 
L 137.96985 106.021738 
L 136.108694 104.034003 
L 134.247537 102.013163 
L 132.386381 99.960901 
L 130.525224 97.878809 
L 128.664068 95.768395 
L 126.802911 93.631087 
L 124.941754 91.468232 
L 123.080598 89.281105 
L 121.219441 87.070911 
L 119.358285 84.838787 
L 117.497128 82.585807 
L 115.635972 80.312985 
L 113.774815 78.021278 
L 111.913658 75.711591 
L 110.052502 73.384777 
L 108.191345 71.041643 
L 106.330189 68.68295 
L 104.469032 66.309417 
L 102.607876 63.921725 
L 100.746719 61.520517 
L 98.885562 59.106399 
" style="fill:none;stroke:#000000;stroke-linecap:square;"/>
   </g>
   <g id="line2d_7">
    <path clip-path="url(#pe9be53dad2)" d="M 329.203687 59.106399 
L 331.064844 61.520517 
L 332.926001 63.921725 
L 334.787157 66.309417 
L 336.648314 68.68295 
L 338.50947 71.041643 
L 340.370627 73.384777 
L 342.231783 75.711591 
L 344.09294 78.021278 
L 345.954097 80.312985 
L 347.815253 82.585807 
L 349.67641 84.838787 
L 351.537566 87.070911 
L 353.398723 89.281105 
L 355.259879 91.468232 
L 357.121036 93.631087 
L 358.982193 95.768395 
L 360.843349 97.878809 
L 362.704506 99.960901 
L 364.565662 102.013163 
L 366.426819 104.034003 
L 368.287975 106.021738 
L 370.149132 107.974596 
L 372.010289 109.89071 
L 373.871445 111.768116 
L 375.732602 113.60475 
L 377.593758 115.398453 
L 379.454915 117.146962 
L 381.316071 118.847919 
L 383.177228 120.498867 
L 385.038384 122.097259 
L 386.899541 123.640461 
L 388.760698 125.125761 
L 390.621854 126.550376 
L 392.483011 127.911471 
L 394.344167 129.206167 
L 396.205324 130.431561 
L 398.06648 131.584751 
L 399.927637 132.662853 
L 401.788794 133.663033 
L 403.64995 134.582532 
L 405.511107 135.418695 
L 407.372263 136.169011 
L 409.23342 136.831135 
L 411.094576 137.40293 
L 412.955733 137.882492 
L 414.81689 138.268184 
L 416.678046 138.558663 
L 418.539203 138.752897 
L 420.400359 138.85019 
L 422.261516 138.85019 
L 424.122672 138.752897 
L 425.983829 138.558663 
L 427.844985 138.268184 
L 429.706142 137.882492 
L 431.567299 137.40293 
L 433.428455 136.831135 
L 435.289612 136.169011 
L 437.150768 135.418695 
L 439.011925 134.582532 
L 440.873081 133.663033 
L 442.734238 132.662853 
L 444.595395 131.584751 
L 446.456551 130.431561 
L 448.317708 129.206167 
L 450.178864 127.911471 
L 452.040021 126.550376 
L 453.901177 125.125761 
L 455.762334 123.640461 
L 457.623491 122.097259 
L 459.484647 120.498867 
L 461.345804 118.847919 
L 463.20696 117.146962 
L 465.068117 115.398453 
L 466.929273 113.60475 
L 468.79043 111.768116 
L 470.651586 109.89071 
L 472.512743 107.974596 
L 474.3739 106.021738 
L 476.235056 104.034003 
L 478.096213 102.013163 
L 479.957369 99.960901 
L 481.818526 97.878809 
L 483.679682 95.768395 
L 485.540839 93.631087 
L 487.401996 91.468232 
L 489.263152 89.281105 
L 491.124309 87.070911 
L 492.985465 84.838787 
L 494.846622 82.585807 
L 496.707778 80.312985 
L 498.568935 78.021278 
L 500.430092 75.711591 
L 502.291248 73.384777 
L 504.152405 71.041643 
L 506.013561 68.68295 
L 507.874718 66.309417 
L 509.735874 63.921725 
L 511.597031 61.520517 
L 513.458187 59.106399 
" style="fill:none;stroke:#000000;stroke-linecap:square;"/>
   </g>
   <g id="line2d_8">
    <path clip-path="url(#pe9be53dad2)" d="M 329.203687 48.022752 
L 331.064844 50.585383 
L 332.926001 53.139335 
L 334.787157 55.684143 
L 336.648314 58.219312 
L 338.50947 60.744313 
L 340.370627 63.258577 
L 342.231783 65.761499 
L 344.09294 68.252426 
L 345.954097 70.73066 
L 347.815253 73.195453 
L 349.67641 75.645998 
L 351.537566 78.081431 
L 353.398723 80.500821 
L 355.259879 82.903164 
L 357.121036 85.287382 
L 358.982193 87.652311 
L 360.843349 89.996698 
L 362.704506 92.319188 
L 364.565662 94.618322 
L 366.426819 96.892523 
L 368.287975 99.140089 
L 370.149132 101.359184 
L 372.010289 103.547823 
L 373.871445 105.703865 
L 375.732602 107.825 
L 377.593758 109.908738 
L 379.454915 111.952395 
L 381.316071 113.953085 
L 383.177228 115.907709 
L 385.038384 117.812943 
L 386.899541 119.665232 
L 388.760698 121.460788 
L 390.621854 123.195583 
L 392.483011 124.865358 
L 394.344167 126.465628 
L 396.205324 127.9917 
L 398.06648 129.438698 
L 399.927637 130.801593 
L 401.788794 132.075257 
L 403.64995 133.25451 
L 405.511107 134.334195 
L 407.372263 135.309255 
L 409.23342 136.174826 
L 411.094576 136.926335 
L 412.955733 137.559603 
L 414.81689 138.070949 
L 416.678046 138.457288 
L 418.539203 138.716221 
L 420.400359 138.846104 
L 422.261516 138.846104 
L 424.122672 138.716221 
L 425.983829 138.457288 
L 427.844985 138.070949 
L 429.706142 137.559603 
L 431.567299 136.926335 
L 433.428455 136.174826 
L 435.289612 135.309255 
L 437.150768 134.334195 
L 439.011925 133.25451 
L 440.873081 132.075257 
L 442.734238 130.801593 
L 444.595395 129.438698 
L 446.456551 127.9917 
L 448.317708 126.465628 
L 450.178864 124.865358 
L 452.040021 123.195583 
L 453.901177 121.460788 
L 455.762334 119.665232 
L 457.623491 117.812943 
L 459.484647 115.907709 
L 461.345804 113.953085 
L 463.20696 111.952395 
L 465.068117 109.908738 
L 466.929273 107.825 
L 468.79043 105.703865 
L 470.651586 103.547823 
L 472.512743 101.359184 
L 474.3739 99.140089 
L 476.235056 96.892523 
L 478.096213 94.618322 
L 479.957369 92.319188 
L 481.818526 89.996698 
L 483.679682 87.652311 
L 485.540839 85.287382 
L 487.401996 82.903164 
L 489.263152 80.500821 
L 491.124309 78.081431 
L 492.985465 75.645998 
L 494.846622 73.195453 
L 496.707778 70.73066 
L 498.568935 68.252426 
L 500.430092 65.761499 
L 502.291248 63.258577 
L 504.152405 60.744313 
L 506.013561 58.219312 
L 507.874718 55.684143 
L 509.735874 53.139335 
L 511.597031 50.585383 
L 513.458187 48.022752 
" style="fill:none;stroke:#000000;stroke-linecap:square;"/>
   </g>
   <g id="line2d_9">
    <path clip-path="url(#pe9be53dad2)" d="M 75.85375 279.554047 
L 536.49 279.554047 
" style="fill:none;stroke:#000000;stroke-dasharray:6.000000,6.000000;stroke-dashoffset:0.0;"/>
   </g>
   <g id="line2d_10">
    <path clip-path="url(#pe9be53dad2)" d="M 75.85375 209.208203 
L 536.49 209.208203 
" style="fill:none;stroke:#808080;stroke-linecap:square;stroke-width:0.5;"/>
   </g>
   <g id="line2d_11">
    <path clip-path="url(#pe9be53dad2)" d="M 306.171875 385.072812 
L 306.171875 33.343594 
" style="fill:none;stroke:#808080;stroke-linecap:square;stroke-width:0.5;"/>
   </g>
   <g id="text_1">
    <!-- $\mu$ -->
    <defs>
     <path d="M 2.78125 -18.796875 
Q 2.78125 -18.21875 2.875 -18.015625 
L 17.578125 41.015625 
Q 18.015625 42.4375 19.15625 43.3125 
Q 20.3125 44.1875 21.78125 44.1875 
Q 23.046875 44.1875 23.921875 43.421875 
Q 24.8125 42.671875 24.8125 41.40625 
Q 24.8125 41.109375 24.78125 40.9375 
Q 24.75 40.765625 24.703125 40.578125 
L 18.796875 17.1875 
Q 17.828125 13.03125 17.828125 10.015625 
Q 17.828125 6.296875 19.578125 3.90625 
Q 21.34375 1.515625 24.90625 1.515625 
Q 32.171875 1.515625 37.703125 10.59375 
Q 37.75 10.6875 37.765625 10.734375 
Q 37.796875 10.796875 37.796875 10.890625 
L 45.015625 39.890625 
Q 45.359375 41.21875 46.578125 42.15625 
Q 47.796875 43.109375 49.21875 43.109375 
Q 50.390625 43.109375 51.296875 42.328125 
Q 52.203125 41.546875 52.203125 40.28125 
Q 52.203125 39.703125 52.09375 39.5 
L 44.921875 10.6875 
Q 44.1875 7.859375 44.1875 5.8125 
Q 44.1875 1.515625 47.125 1.515625 
Q 50.25 1.515625 51.828125 5.375 
Q 53.421875 9.234375 54.59375 14.703125 
Q 54.78125 15.28125 55.421875 15.28125 
L 56.59375 15.28125 
Q 56.984375 15.28125 57.25 14.96875 
Q 57.515625 14.65625 57.515625 14.3125 
Q 55.765625 7.328125 53.6875 3.09375 
Q 51.609375 -1.125 46.921875 -1.125 
Q 43.609375 -1.125 41.046875 0.78125 
Q 38.484375 2.6875 37.703125 5.90625 
Q 35.203125 2.78125 31.859375 0.828125 
Q 28.515625 -1.125 24.8125 -1.125 
Q 18.5625 -1.125 14.984375 1.8125 
L 9.90625 -18.40625 
Q 9.625 -19.828125 8.453125 -20.703125 
Q 7.28125 -21.578125 5.8125 -21.578125 
Q 4.59375 -21.578125 3.6875 -20.8125 
Q 2.78125 -20.0625 2.78125 -18.796875 
" id="Cmmi10-b9"/>
    </defs>
    <g transform="translate(75.85375 274.278108594)scale(0.22 -0.22)">
     <use transform="translate(0.0 0.8125)" xlink:href="#Cmmi10-b9"/>
    </g>
   </g>
   <g id="text_2">
    <!-- $E(k)$ -->
    <defs>
     <path d="M 31 -24.8125 
Q 25.4375 -20.40625 21.40625 -14.71875 
Q 17.390625 -9.03125 14.8125 -2.578125 
Q 12.25 3.859375 10.984375 10.890625 
Q 9.71875 17.921875 9.71875 25 
Q 9.71875 32.171875 10.984375 39.203125 
Q 12.25 46.234375 14.859375 52.734375 
Q 17.484375 59.234375 21.53125 64.890625 
Q 25.59375 70.5625 31 74.8125 
Q 31 75 31.5 75 
L 32.421875 75 
Q 32.71875 75 32.953125 74.734375 
Q 33.203125 74.46875 33.203125 74.125 
Q 33.203125 73.6875 33.015625 73.484375 
Q 28.125 68.703125 24.875 63.234375 
Q 21.625 57.765625 19.640625 51.578125 
Q 17.671875 45.40625 16.796875 38.78125 
Q 15.921875 32.171875 15.921875 25 
Q 15.921875 -6.78125 32.90625 -23.296875 
Q 33.203125 -23.578125 33.203125 -24.125 
Q 33.203125 -24.359375 32.9375 -24.671875 
Q 32.671875 -25 32.421875 -25 
L 31.5 -25 
Q 31 -25 31 -24.8125 
" id="Cmr10-28"/>
     <path d="M 5.328125 1.8125 
Q 5.328125 2.390625 5.421875 2.6875 
L 19.921875 60.5 
Q 20.3125 62.203125 20.40625 63.1875 
Q 20.40625 64.796875 13.921875 64.796875 
Q 12.890625 64.796875 12.890625 66.109375 
Q 12.9375 66.359375 13.109375 66.984375 
Q 13.28125 67.625 13.546875 67.96875 
Q 13.8125 68.3125 14.3125 68.3125 
L 27.78125 69.390625 
L 28.078125 69.390625 
Q 28.078125 69.28125 28.421875 69.109375 
Q 28.765625 68.953125 28.8125 68.890625 
Q 29 68.40625 29 68.109375 
L 18.5 26.3125 
Q 22.125 27.828125 27.609375 33.515625 
Q 33.109375 39.203125 36.203125 41.6875 
Q 39.3125 44.1875 44 44.1875 
Q 46.78125 44.1875 48.734375 42.28125 
Q 50.6875 40.375 50.6875 37.59375 
Q 50.6875 35.84375 49.953125 34.34375 
Q 49.21875 32.859375 47.890625 31.921875 
Q 46.578125 31 44.828125 31 
Q 43.21875 31 42.109375 32 
Q 41.015625 33.015625 41.015625 34.625 
Q 41.015625 37.015625 42.703125 38.640625 
Q 44.390625 40.28125 46.78125 40.28125 
Q 45.796875 41.609375 43.796875 41.609375 
Q 40.828125 41.609375 38.0625 39.890625 
Q 35.296875 38.1875 32.09375 34.984375 
Q 28.90625 31.78125 26.265625 29.125 
Q 23.640625 26.46875 21.390625 25.09375 
Q 27.296875 24.421875 31.640625 22 
Q 35.984375 19.578125 35.984375 14.59375 
Q 35.984375 13.578125 35.59375 12.015625 
Q 34.71875 8.25 34.71875 6 
Q 34.71875 1.515625 37.796875 1.515625 
Q 41.40625 1.515625 43.28125 5.46875 
Q 45.171875 9.421875 46.390625 14.703125 
Q 46.578125 15.28125 47.21875 15.28125 
L 48.390625 15.28125 
Q 48.78125 15.28125 49.046875 15.03125 
Q 49.3125 14.796875 49.3125 14.40625 
Q 49.3125 14.3125 49.21875 14.109375 
Q 45.453125 -1.125 37.59375 -1.125 
Q 34.765625 -1.125 32.59375 0.1875 
Q 30.421875 1.515625 29.25 3.78125 
Q 28.078125 6.0625 28.078125 8.890625 
Q 28.078125 10.5 28.515625 12.203125 
Q 28.8125 13.375 28.8125 14.40625 
Q 28.8125 18.265625 25.390625 20.265625 
Q 21.96875 22.265625 17.578125 22.703125 
L 12.5 2.296875 
Q 12.109375 0.78125 10.984375 -0.171875 
Q 9.859375 -1.125 8.40625 -1.125 
Q 7.125 -1.125 6.21875 -0.265625 
Q 5.328125 0.59375 5.328125 1.8125 
" id="Cmmi10-6b"/>
     <path d="M 4.6875 0 
Q 3.71875 0 3.71875 1.3125 
Q 3.765625 1.5625 3.90625 2.171875 
Q 4.046875 2.78125 4.3125 3.140625 
Q 4.59375 3.515625 4.984375 3.515625 
Q 11.078125 3.515625 13.484375 4.203125 
Q 14.796875 4.640625 15.375 6.890625 
L 29.109375 61.8125 
Q 29.296875 62.796875 29.296875 63.1875 
Q 29.296875 64.265625 28.078125 64.40625 
Q 26.21875 64.796875 20.90625 64.796875 
Q 19.921875 64.796875 19.921875 66.109375 
Q 19.96875 66.359375 20.109375 66.96875 
Q 20.265625 67.578125 20.53125 67.9375 
Q 20.796875 68.3125 21.1875 68.3125 
L 75.390625 68.3125 
Q 76.421875 68.3125 76.421875 67 
L 74.03125 46.296875 
Q 74.03125 46.046875 73.65625 45.71875 
Q 73.296875 45.40625 73 45.40625 
L 72.125 45.40625 
Q 71.09375 45.40625 71.09375 46.6875 
Q 71.6875 51.5625 71.6875 53.90625 
Q 71.6875 57.90625 70.3125 60.125 
Q 68.953125 62.359375 66.671875 63.328125 
Q 64.40625 64.3125 61.640625 64.546875 
Q 58.890625 64.796875 54.390625 64.796875 
L 43.015625 64.796875 
Q 40.28125 64.796875 39.40625 64.328125 
Q 38.53125 63.875 37.796875 61.375 
L 31.78125 37.203125 
L 39.59375 37.203125 
Q 44.671875 37.203125 47.265625 37.90625 
Q 49.859375 38.625 51.359375 40.859375 
Q 52.875 43.109375 54.109375 48 
Q 54.203125 48.34375 54.46875 48.609375 
Q 54.734375 48.875 55.078125 48.875 
L 56 48.875 
Q 56.984375 48.875 56.984375 47.609375 
L 50.78125 22.90625 
Q 50.59375 22.015625 49.8125 22.015625 
L 48.875 22.015625 
Q 47.90625 22.015625 47.90625 23.296875 
Q 48.875 27.296875 48.875 29.203125 
Q 48.875 32.125 46.234375 32.90625 
Q 43.609375 33.6875 39.203125 33.6875 
L 30.90625 33.6875 
L 24.125 6.5 
Q 23.6875 5.28125 23.6875 4.296875 
Q 23.6875 3.515625 27.09375 3.515625 
L 39.203125 3.515625 
Q 46.4375 3.515625 50.921875 4.640625 
Q 55.421875 5.765625 58.375 8.21875 
Q 61.328125 10.6875 63.46875 14.5 
Q 65.625 18.3125 68.703125 25.59375 
Q 68.890625 26.21875 69.578125 26.21875 
L 70.515625 26.21875 
Q 70.90625 26.21875 71.1875 25.875 
Q 71.484375 25.53125 71.484375 25.09375 
Q 71.484375 24.90625 71.390625 24.703125 
L 61.078125 0.59375 
Q 60.890625 0 60.296875 0 
z
" id="Cmmi10-45"/>
     <path d="M 6.5 -25 
Q 5.609375 -25 5.609375 -24.125 
Q 5.609375 -23.6875 5.8125 -23.484375 
Q 22.90625 -6.78125 22.90625 25 
Q 22.90625 56.78125 6 73.296875 
Q 5.609375 73.53125 5.609375 74.125 
Q 5.609375 74.46875 5.875 74.734375 
Q 6.15625 75 6.5 75 
L 7.421875 75 
Q 7.71875 75 7.90625 74.8125 
Q 15.09375 69.140625 19.875 61.03125 
Q 24.65625 52.9375 26.875 43.75 
Q 29.109375 34.578125 29.109375 25 
Q 29.109375 17.921875 27.90625 11.0625 
Q 26.703125 4.203125 24.09375 -2.453125 
Q 21.484375 -9.125 17.484375 -14.765625 
Q 13.484375 -20.40625 7.90625 -24.8125 
Q 7.71875 -25 7.421875 -25 
z
" id="Cmr10-29"/>
    </defs>
    <g transform="translate(283.731875 21.2571328125)scale(0.22 -0.22)">
     <use xlink:href="#Cmmi10-45"/>
     <use transform="translate(73.779296875 0.0)" xlink:href="#Cmr10-28"/>
     <use transform="translate(112.59765625 0.0)" xlink:href="#Cmmi10-6b"/>
     <use transform="translate(164.599609375 0.0)" xlink:href="#Cmr10-29"/>
    </g>
   </g>
   <g id="patch_2">
    <path d="M 196.012812 140.86598 
L 196.012812 140.86598 
L 186.012812 140.86598 
L 186.012812 140.86598 
M 191.012812 140.86598 
Q 191.012812 199.098189 191.012812 257.330398 
M 186.012812 257.330398 
L 186.012812 257.330398 
L 196.012812 257.330398 
L 196.012812 257.330398 
" style="fill:none;stroke:#000000;stroke-linecap:round;stroke-width:0.5;"/>
   </g>
   <g id="text_3">
    <!-- $\Delta$ -->
    <defs>
     <path d="M 5.421875 0 
Q 4.59375 0 4.59375 0.78125 
Q 4.640625 0.875 4.65625 0.921875 
Q 4.6875 0.984375 4.6875 1.125 
L 39.109375 70.515625 
Q 39.546875 71.578125 40.921875 71.578125 
L 42.28125 71.578125 
Q 43.65625 71.578125 44.09375 70.515625 
L 78.515625 1.125 
Q 78.5625 1.03125 78.578125 0.953125 
Q 78.609375 0.875 78.609375 0.78125 
Q 78.609375 0 77.78125 0 
z
M 12.015625 8.015625 
L 64.703125 8.015625 
L 38.375 61.078125 
z
" id="Cmr10-a2"/>
    </defs>
    <g transform="translate(197.92235625 203.932264844)scale(0.22 -0.22)">
     <use transform="translate(0.0 0.421875)" xlink:href="#Cmr10-a2"/>
    </g>
   </g>
   <g id="patch_3">
    <path d="M 186.012812 297.778747 
L 186.012812 297.778747 
L 196.012812 297.778747 
L 196.012812 297.778747 
M 191.012812 297.778747 
Q 191.012812 279.556244 191.012812 261.33374 
M 196.012812 261.33374 
L 196.012812 261.33374 
L 186.012812 261.33374 
L 186.012812 261.33374 
" style="fill:none;stroke:#000000;stroke-linecap:round;stroke-width:0.5;"/>
   </g>
   <g id="text_4">
    <!-- $2 \lambda$ -->
    <defs>
     <path d="M 4.984375 0 
L 4.984375 2.6875 
Q 4.984375 2.9375 5.171875 3.21875 
L 20.703125 20.40625 
Q 24.21875 24.21875 26.40625 26.796875 
Q 28.609375 29.390625 30.75 32.765625 
Q 32.90625 36.140625 34.15625 39.625 
Q 35.40625 43.109375 35.40625 47.015625 
Q 35.40625 51.125 33.890625 54.859375 
Q 32.375 58.59375 29.375 60.84375 
Q 26.375 63.09375 22.125 63.09375 
Q 17.78125 63.09375 14.3125 60.46875 
Q 10.84375 57.859375 9.421875 53.71875 
Q 9.8125 53.8125 10.5 53.8125 
Q 12.75 53.8125 14.328125 52.296875 
Q 15.921875 50.78125 15.921875 48.390625 
Q 15.921875 46.09375 14.328125 44.5 
Q 12.75 42.921875 10.5 42.921875 
Q 8.15625 42.921875 6.5625 44.546875 
Q 4.984375 46.1875 4.984375 48.390625 
Q 4.984375 52.15625 6.390625 55.4375 
Q 7.8125 58.734375 10.46875 61.296875 
Q 13.140625 63.875 16.484375 65.234375 
Q 19.828125 66.609375 23.578125 66.609375 
Q 29.296875 66.609375 34.21875 64.1875 
Q 39.15625 61.765625 42.03125 57.34375 
Q 44.921875 52.9375 44.921875 47.015625 
Q 44.921875 42.671875 43.015625 38.765625 
Q 41.109375 34.859375 38.125 31.65625 
Q 35.15625 28.46875 30.515625 24.40625 
Q 25.875 20.359375 24.421875 19 
L 13.09375 8.109375 
L 22.703125 8.109375 
Q 29.78125 8.109375 34.546875 8.21875 
Q 39.3125 8.34375 39.59375 8.59375 
Q 40.765625 9.859375 42 17.828125 
L 44.921875 17.828125 
L 42.09375 0 
z
" id="Cmr10-32"/>
     <path d="M 5.078125 1.703125 
Q 5.078125 3.171875 6.390625 4.5 
L 34.515625 32.078125 
L 24.609375 59.90625 
Q 23.4375 63.09375 22.140625 64.9375 
Q 20.84375 66.796875 18.40625 66.796875 
Q 17.28125 66.796875 17.28125 68.109375 
Q 17.390625 68.703125 17.78125 69.046875 
Q 18.171875 69.390625 18.796875 69.390625 
Q 29.296875 69.390625 31.5 63.1875 
L 51.8125 6.5 
Q 53.125 2.25 54.5 0.78125 
Q 54.984375 0.046875 54.984375 -0.203125 
Q 54.984375 -1.125 54.203125 -1.125 
L 48.78125 -1.125 
Q 46.296875 -0.390625 44.828125 3.21875 
L 35.6875 28.8125 
L 11.53125 0.390625 
Q 9.71875 -1.3125 8.296875 -1.3125 
Q 7.03125 -1.3125 6.046875 -0.4375 
Q 5.078125 0.4375 5.078125 1.703125 
" id="Cmmi10-b8"/>
    </defs>
    <g transform="translate(197.92235625 298.019830859)scale(0.22 -0.22)">
     <use transform="translate(0.0 0.609375)" xlink:href="#Cmr10-32"/>
     <use transform="translate(50.0 0.609375)" xlink:href="#Cmmi10-b8"/>
    </g>
   </g>
   <g id="text_5">
    <!-- $\tau = -$ -->
    <defs>
     <path d="M 7.515625 13.28125 
Q 6.6875 13.28125 6.140625 13.90625 
Q 5.609375 14.546875 5.609375 15.28125 
Q 5.609375 16.109375 6.140625 16.6875 
Q 6.6875 17.28125 7.515625 17.28125 
L 70.3125 17.28125 
Q 71.046875 17.28125 71.578125 16.6875 
Q 72.125 16.109375 72.125 15.28125 
Q 72.125 14.546875 71.578125 13.90625 
Q 71.046875 13.28125 70.3125 13.28125 
z
M 7.515625 32.71875 
Q 6.6875 32.71875 6.140625 33.296875 
Q 5.609375 33.890625 5.609375 34.71875 
Q 5.609375 35.453125 6.140625 36.078125 
Q 6.6875 36.71875 7.515625 36.71875 
L 70.3125 36.71875 
Q 71.046875 36.71875 71.578125 36.078125 
Q 72.125 35.453125 72.125 34.71875 
Q 72.125 33.890625 71.578125 33.296875 
Q 71.046875 32.71875 70.3125 32.71875 
z
" id="Cmr10-3d"/>
     <path d="M 10.203125 23 
Q 9.375 23 8.828125 23.625 
Q 8.296875 24.265625 8.296875 25 
Q 8.296875 25.734375 8.828125 26.359375 
Q 9.375 27 10.203125 27 
L 67.578125 27 
Q 68.359375 27 68.875 26.359375 
Q 69.390625 25.734375 69.390625 25 
Q 69.390625 24.265625 68.875 23.625 
Q 68.359375 23 67.578125 23 
z
" id="Cmsy10-a1"/>
     <path d="M 15.578125 1.515625 
Q 15.578125 2.203125 15.71875 2.59375 
L 26.21875 36.921875 
L 17.1875 36.921875 
Q 13.53125 36.921875 10.34375 34.625 
Q 7.171875 32.328125 5.078125 28.8125 
Q 4.890625 28.421875 4.5 28.421875 
L 3.328125 28.421875 
Q 2.390625 28.421875 2.390625 29.390625 
Q 2.390625 29.59375 2.59375 29.984375 
Q 5.859375 35.546875 9.59375 39.328125 
Q 13.328125 43.109375 18.015625 43.109375 
L 48.6875 43.109375 
Q 49.75 43.109375 50.484375 42.375 
Q 51.21875 41.65625 51.21875 40.578125 
Q 51.21875 39.109375 50.171875 38.015625 
Q 49.125 36.921875 47.609375 36.921875 
L 29.5 36.921875 
L 22.796875 2.390625 
Q 22.40625 0.78125 21.328125 -0.265625 
Q 20.265625 -1.3125 18.609375 -1.3125 
Q 17.328125 -1.3125 16.453125 -0.5 
Q 15.578125 0.296875 15.578125 1.515625 
" id="Cmmi10-bf"/>
    </defs>
    <g transform="translate(75.85375 205.690910937)scale(0.22 -0.22)">
     <use transform="translate(0.0 0.890625)" xlink:href="#Cmmi10-bf"/>
     <use transform="translate(61.259765625 0.890625)" xlink:href="#Cmr10-3d"/>
     <use transform="translate(174.0625 0.890625)" xlink:href="#Cmsy10-a1"/>
    </g>
   </g>
   <g id="text_6">
    <!-- $\tau = +$ -->
    <defs>
     <path d="M 7.515625 23 
Q 6.6875 23 6.140625 23.625 
Q 5.609375 24.265625 5.609375 25 
Q 5.609375 25.734375 6.140625 26.359375 
Q 6.6875 27 7.515625 27 
L 36.921875 27 
L 36.921875 56.5 
Q 36.921875 57.28125 37.5 57.78125 
Q 38.09375 58.296875 38.921875 58.296875 
Q 39.65625 58.296875 40.28125 57.78125 
Q 40.921875 57.28125 40.921875 56.5 
L 40.921875 27 
L 70.3125 27 
Q 71.046875 27 71.578125 26.359375 
Q 72.125 25.734375 72.125 25 
Q 72.125 24.265625 71.578125 23.625 
Q 71.046875 23 70.3125 23 
L 40.921875 23 
L 40.921875 -6.5 
Q 40.921875 -7.28125 40.28125 -7.78125 
Q 39.65625 -8.296875 38.921875 -8.296875 
Q 38.09375 -8.296875 37.5 -7.78125 
Q 36.921875 -7.28125 36.921875 -6.5 
L 36.921875 23 
z
" id="Cmr10-2b"/>
    </defs>
    <g transform="translate(477.09 205.690910937)scale(0.22 -0.22)">
     <use transform="translate(0.0 0.703125)" xlink:href="#Cmmi10-bf"/>
     <use transform="translate(61.259765625 0.703125)" xlink:href="#Cmr10-3d"/>
     <use transform="translate(174.0625 0.703125)" xlink:href="#Cmr10-2b"/>
    </g>
   </g>
   <g id="text_7">
    <!-- $n = -$ -->
    <defs>
     <path d="M 7.71875 1.703125 
Q 7.71875 2.296875 7.8125 2.59375 
L 15.28125 32.421875 
Q 16.015625 35.203125 16.015625 37.3125 
Q 16.015625 41.609375 13.09375 41.609375 
Q 9.96875 41.609375 8.453125 37.859375 
Q 6.9375 34.125 5.515625 28.421875 
Q 5.515625 28.125 5.21875 27.953125 
Q 4.9375 27.78125 4.6875 27.78125 
L 3.515625 27.78125 
Q 3.171875 27.78125 2.921875 28.140625 
Q 2.6875 28.515625 2.6875 28.8125 
Q 3.765625 33.15625 4.765625 36.171875 
Q 5.765625 39.203125 7.890625 41.6875 
Q 10.015625 44.1875 13.1875 44.1875 
Q 16.9375 44.1875 19.8125 41.8125 
Q 22.703125 39.453125 22.703125 35.796875 
Q 25.6875 39.703125 29.6875 41.9375 
Q 33.6875 44.1875 38.1875 44.1875 
Q 41.75 44.1875 44.328125 42.96875 
Q 46.921875 41.75 48.359375 39.28125 
Q 49.8125 36.8125 49.8125 33.40625 
Q 49.8125 29.296875 47.96875 23.484375 
Q 46.140625 17.671875 43.40625 10.5 
Q 42 7.234375 42 4.5 
Q 42 1.515625 44.28125 1.515625 
Q 48.1875 1.515625 50.796875 5.703125 
Q 53.421875 9.90625 54.5 14.703125 
Q 54.6875 15.28125 55.328125 15.28125 
L 56.5 15.28125 
Q 56.890625 15.28125 57.15625 15.03125 
Q 57.421875 14.796875 57.421875 14.40625 
Q 57.421875 14.3125 57.328125 14.109375 
Q 55.953125 8.453125 52.5625 3.65625 
Q 49.171875 -1.125 44.09375 -1.125 
Q 40.578125 -1.125 38.078125 1.296875 
Q 35.59375 3.71875 35.59375 7.171875 
Q 35.59375 9.03125 36.375 11.078125 
Q 37.640625 14.359375 39.28125 18.890625 
Q 40.921875 23.4375 41.96875 27.578125 
Q 43.015625 31.734375 43.015625 34.90625 
Q 43.015625 37.703125 41.859375 39.65625 
Q 40.71875 41.609375 37.984375 41.609375 
Q 34.328125 41.609375 31.25 39.984375 
Q 28.171875 38.375 25.875 35.71875 
Q 23.578125 33.0625 21.6875 29.390625 
L 14.890625 2.203125 
Q 14.546875 0.828125 13.34375 -0.140625 
Q 12.15625 -1.125 10.6875 -1.125 
Q 9.46875 -1.125 8.59375 -0.34375 
Q 7.71875 0.4375 7.71875 1.703125 
" id="Cmmi10-6e"/>
    </defs>
    <g transform="translate(310.7782375 229.442057812)scale(0.22 -0.22)">
     <use transform="translate(0.0 0.8125)" xlink:href="#Cmmi10-6e"/>
     <use transform="translate(77.568359375 0.8125)" xlink:href="#Cmr10-3d"/>
     <use transform="translate(190.37109375 0.8125)" xlink:href="#Cmsy10-a1"/>
    </g>
   </g>
   <g id="text_8">
    <!-- $n = +$ -->
    <g transform="translate(310.7782375 201.115598437)scale(0.22 -0.22)">
     <use transform="translate(0.0 0.703125)" xlink:href="#Cmmi10-6e"/>
     <use transform="translate(77.568359375 0.703125)" xlink:href="#Cmr10-3d"/>
     <use transform="translate(190.37109375 0.703125)" xlink:href="#Cmr10-2b"/>
    </g>
   </g>
   <g id="text_9">
    <!-- $\downarrow$ -->
    <defs>
     <path d="M 23.875 -18.5 
Q 23.046875 -12.703125 20.109375 -7.9375 
Q 17.1875 -3.171875 12.59375 0.125 
Q 8.015625 3.421875 2.390625 4.6875 
Q 1.703125 4.9375 1.703125 5.609375 
L 1.703125 7.8125 
Q 1.703125 8.15625 2.09375 8.421875 
Q 2.484375 8.6875 2.78125 8.6875 
Q 2.875 8.6875 3.078125 8.59375 
Q 9.28125 7.28125 14.46875 3.5625 
Q 19.671875 -0.140625 23 -5.609375 
L 23 67.578125 
Q 23 68.359375 23.625 68.875 
Q 24.265625 69.390625 25 69.390625 
Q 25.734375 69.390625 26.359375 68.875 
Q 27 68.359375 27 67.578125 
L 27 -5.609375 
Q 30.328125 -0.140625 35.578125 3.5625 
Q 40.828125 7.28125 46.921875 8.59375 
Q 47.125 8.6875 47.21875 8.6875 
Q 47.609375 8.6875 47.953125 8.4375 
Q 48.296875 8.203125 48.296875 7.8125 
L 48.296875 5.609375 
Q 48.296875 5.421875 48.09375 5.09375 
Q 47.90625 4.78125 47.609375 4.6875 
Q 39.203125 2.875 33.25 -3.5625 
Q 27.296875 -10.015625 26.125 -18.5 
Q 25.875 -19.390625 25 -19.390625 
Q 24.125 -19.390625 23.875 -18.5 
" id="Cmsy10-23"/>
    </defs>
    <g transform="translate(75.606475 345.593911909)scale(0.22 -0.22)">
     <use transform="translate(17.55859375 0.609375)" xlink:href="#Cmsy10-23"/>
    </g>
   </g>
   <g id="text_10">
    <!-- $\uparrow$ -->
    <defs>
     <path d="M 23 -17.578125 
L 23 55.609375 
Q 20.75 51.90625 17.703125 49.0625 
Q 14.65625 46.234375 10.90625 44.25 
Q 7.171875 42.28125 3.078125 41.40625 
Q 2.875 41.3125 2.78125 41.3125 
Q 1.703125 41.3125 1.703125 42.1875 
L 1.703125 44.390625 
Q 1.703125 45.0625 2.390625 45.3125 
Q 8.015625 46.578125 12.59375 49.875 
Q 17.1875 53.171875 20.109375 57.9375 
Q 23.046875 62.703125 23.875 68.5 
Q 24.078125 68.953125 24.359375 69.171875 
Q 24.65625 69.390625 25 69.390625 
Q 25.34375 69.390625 25.6875 69.109375 
Q 26.03125 68.84375 26.125 68.5 
Q 27.296875 60.015625 33.203125 53.609375 
Q 39.109375 47.21875 47.609375 45.3125 
Q 47.90625 45.21875 48.09375 44.890625 
Q 48.296875 44.578125 48.296875 44.390625 
L 48.296875 42.1875 
Q 48.296875 41.890625 47.953125 41.59375 
Q 47.609375 41.3125 47.21875 41.3125 
Q 47.125 41.3125 46.921875 41.40625 
Q 42.828125 42.28125 39.09375 44.25 
Q 35.359375 46.234375 32.296875 49.0625 
Q 29.25 51.90625 27 55.609375 
L 27 -17.578125 
Q 27 -18.359375 26.359375 -18.875 
Q 25.734375 -19.390625 25 -19.390625 
Q 24.265625 -19.390625 23.625 -18.875 
Q 23 -18.359375 23 -17.578125 
" id="Cmsy10-22"/>
    </defs>
    <g transform="translate(75.606475 396.250999806)scale(0.22 -0.22)">
     <use transform="translate(17.55859375 0.609375)" xlink:href="#Cmsy10-22"/>
    </g>
   </g>
   <g id="text_11">
    <!-- $\downarrow$ -->
    <g transform="translate(517.817275 396.250999806)scale(0.22 -0.22)">
     <use transform="translate(17.55859375 0.609375)" xlink:href="#Cmsy10-23"/>
    </g>
   </g>
   <g id="text_12">
    <!-- $\uparrow$ -->
    <g transform="translate(517.817275 345.593911909)scale(0.22 -0.22)">
     <use transform="translate(17.55859375 0.609375)" xlink:href="#Cmsy10-22"/>
    </g>
   </g>
   <g id="text_13">
    <!-- $\downarrow$ -->
    <g transform="translate(75.606475 43.447439263)scale(0.22 -0.22)">
     <use transform="translate(17.55859375 0.609375)" xlink:href="#Cmsy10-23"/>
    </g>
   </g>
   <g id="text_14">
    <!-- $\uparrow$ -->
    <g transform="translate(75.606475 75.8229615224)scale(0.22 -0.22)">
     <use transform="translate(17.55859375 0.609375)" xlink:href="#Cmsy10-22"/>
    </g>
   </g>
   <g id="text_15">
    <!-- $\downarrow$ -->
    <g transform="translate(517.817275 75.8229615224)scale(0.22 -0.22)">
     <use transform="translate(17.55859375 0.609375)" xlink:href="#Cmsy10-23"/>
    </g>
   </g>
   <g id="text_16">
    <!-- $\uparrow$ -->
    <g transform="translate(517.817275 43.447439263)scale(0.22 -0.22)">
     <use transform="translate(17.55859375 0.609375)" xlink:href="#Cmsy10-22"/>
    </g>
   </g>
  </g>
 </g>
 <defs>
  <clipPath id="pe9be53dad2">
   <rect height="351.72921875" width="460.63625" x="75.85375" y="33.34359375"/>
  </clipPath>
 </defs>
</svg>
