<?xml version="1.0" encoding="utf-8" standalone="no"?>
<!DOCTYPE svg PUBLIC "-//W3C//DTD SVG 1.1//EN"
  "http://www.w3.org/Graphics/SVG/1.1/DTD/svg11.dtd">
<!-- Created with matplotlib (http://matplotlib.org/) -->
<svg height="415pt" version="1.1" viewBox="0 0 561 415" width="561pt" xmlns="http://www.w3.org/2000/svg" xmlns:xlink="http://www.w3.org/1999/xlink">
 <defs>
  <style type="text/css">
*{stroke-linecap:butt;stroke-linejoin:round;stroke-miterlimit:100000;}
  </style>
 </defs>
 <g id="figure_1">
  <g id="patch_1">
   <path d="M 0 415.763594 
L 561.245625 415.763594 
L 561.245625 0 
L 0 0 
L 0 415.763594 
z
" style="fill:none;"/>
  </g>
  <g id="axes_1">
   <g id="patch_2">
    <path d="M 67.985 175.902578 
L 543.865625 175.902578 
L 543.865625 14.9425 
L 67.985 14.9425 
L 67.985 175.902578 
z
" style="fill:none;"/>
   </g>
   <g id="line2d_1">
    <path clip-path="url(#p7d6135a138)" d="M 67.985 55.012757 
L 72.791875 55.147882 
L 77.59875 55.282873 
L 82.405625 55.41777 
L 87.2125 55.552616 
L 92.019375 55.687459 
L 96.82625 55.822351 
L 101.633125 55.95735 
L 106.44 56.092523 
L 111.246875 56.227942 
L 116.05375 56.363689 
L 120.860625 56.499856 
L 125.6675 56.636547 
L 130.474375 56.773881 
L 135.28125 56.911991 
L 140.088125 57.051033 
L 144.895 57.191183 
L 149.701875 57.332645 
L 154.50875 57.475657 
L 159.315625 57.620493 
L 164.1225 57.767478 
L 168.929375 57.916993 
L 173.73625 58.069491 
L 178.543125 58.225511 
L 183.35 58.385702 
L 188.156875 58.550851 
L 192.96375 58.721917 
L 197.770625 58.900082 
L 202.5775 59.086816 
L 207.384375 59.283968 
L 212.19125 59.493889 
L 216.998125 59.719605 
L 221.805 59.965075 
L 226.611875 60.235555 
L 231.41875 60.538158 
L 236.225625 60.882714 
L 241.0325 61.283148 
L 245.839375 61.759768 
L 250.64625 62.343242 
L 255.453125 63.081935 
L 260.26 64.056441 
L 265.066875 65.41138 
L 269.87375 67.435529 
L 274.680625 70.816573 
L 279.4875 77.979492 
M 332.363125 114.525464 
L 337.17 127.346012 
L 341.976875 135.024568 
L 346.78375 140.410497 
L 351.590625 144.461007 
L 356.3975 147.640314 
L 361.204375 150.21177 
L 366.01125 152.339153 
L 370.818125 154.130841 
L 375.625 155.661904 
L 380.431875 156.986209 
L 385.23875 158.143527 
L 390.045625 159.163916 
L 394.8525 160.070556 
L 399.659375 160.88162 
L 404.46625 161.611578 
L 409.273125 162.272095 
L 414.08 162.872686 
L 418.886875 163.421195 
L 423.69375 163.924144 
L 428.500625 164.387005 
L 433.3075 164.814405 
L 438.114375 165.21028 
L 442.92125 165.578002 
L 447.728125 165.920479 
L 452.535 166.240227 
L 457.341875 166.539441 
L 462.14875 166.820039 
L 466.955625 167.083707 
L 471.7625 167.331933 
L 476.569375 167.566036 
L 481.37625 167.787186 
L 486.183125 167.99643 
L 490.99 168.194702 
L 495.796875 168.382843 
L 500.60375 168.56161 
L 505.410625 168.731683 
L 510.2175 168.893682 
L 515.024375 169.048166 
L 519.83125 169.195645 
L 524.638125 169.336583 
L 529.445 169.471406 
L 534.251875 169.6005 
L 539.05875 169.724222 
L 543.865625 169.8429 
" style="fill:none;stroke:#000000;stroke-linecap:square;stroke-width:2.0;"/>
   </g>
   <g id="line2d_2">
    <path clip-path="url(#p7d6135a138)" d="M 67.985 16.995204 
L 72.791875 17.123078 
L 77.59875 17.251108 
L 82.405625 17.379343 
L 87.2125 17.507837 
L 92.019375 17.636649 
L 96.82625 17.765847 
L 101.633125 17.895506 
L 106.44 18.025707 
L 111.246875 18.156545 
L 116.05375 18.288125 
L 120.860625 18.420566 
L 125.6675 18.554002 
L 130.474375 18.688587 
L 135.28125 18.824496 
L 140.088125 18.961929 
L 144.895 19.101117 
L 149.701875 19.242327 
L 154.50875 19.38587 
L 159.315625 19.532107 
L 164.1225 19.681463 
L 168.929375 19.83444 
L 173.73625 19.991633 
L 178.543125 20.153752 
L 183.35 20.321655 
L 188.156875 20.496377 
L 192.96375 20.679186 
L 197.770625 20.871644 
L 202.5775 21.075694 
L 207.384375 21.293781 
L 212.19125 21.529016 
L 216.998125 21.785406 
L 221.805 22.068192 
L 226.611875 22.384341 
L 231.41875 22.743279 
L 236.225625 23.15804 
L 241.0325 23.647095 
L 245.839375 24.237388 
L 250.64625 24.969624 
L 255.453125 25.908015 
L 260.26 27.159595 
L 265.066875 28.916484 
L 269.87375 31.562417 
L 274.680625 36.011442 
L 279.4875 45.487428 
M 332.363125 94.159795 
L 337.17 111.263779 
L 341.976875 121.505058 
L 346.78375 128.687574 
L 351.590625 134.088768 
L 356.3975 138.328019 
L 361.204375 141.756645 
L 366.01125 144.593104 
L 370.818125 146.981946 
L 375.625 149.023287 
L 380.431875 150.788962 
L 385.23875 152.332003 
L 390.045625 153.692494 
L 394.8525 154.901338 
L 399.659375 155.98277 
L 404.46625 156.95608 
L 409.273125 157.836821 
L 414.08 158.637679 
L 418.886875 159.369111 
L 423.69375 160.039812 
L 428.500625 160.657079 
L 433.3075 161.227077 
L 438.114375 161.755055 
L 442.92125 162.245508 
L 447.728125 162.702312 
L 452.535 163.128823 
L 457.341875 163.527965 
L 462.14875 163.902295 
L 466.955625 164.25406 
L 471.7625 164.585245 
L 476.569375 164.897606 
L 481.37625 165.192705 
L 486.183125 165.471937 
L 490.99 165.736547 
L 495.796875 165.987655 
L 500.60375 166.22627 
L 505.410625 166.453301 
L 510.2175 166.669571 
L 515.024375 166.875827 
L 519.83125 167.072748 
L 524.638125 167.260955 
L 529.445 167.441011 
L 534.251875 167.613435 
L 539.05875 167.778702 
L 543.865625 167.937246 
" style="fill:none;stroke:#000000;stroke-dasharray:6.000000,6.000000;stroke-dashoffset:0.0;stroke-width:2.0;"/>
   </g>
   <g id="line2d_3">
    <path clip-path="url(#p7d6135a138)" d="M 67.985 35.592198 
L 72.791875 35.713535 
L 77.59875 35.834944 
L 82.405625 35.956469 
L 87.2125 36.078159 
L 92.019375 36.200066 
L 96.82625 36.322251 
L 101.633125 36.444778 
L 106.44 36.567723 
L 111.246875 36.691169 
L 116.05375 36.815208 
L 120.860625 36.939946 
L 125.6675 37.065503 
L 130.474375 37.192013 
L 135.28125 37.319633 
L 140.088125 37.448539 
L 144.895 37.578936 
L 149.701875 37.71106 
L 154.50875 37.845184 
L 159.315625 37.98163 
L 164.1225 38.120771 
L 168.929375 38.263051 
L 173.73625 38.408995 
L 178.543125 38.559232 
L 183.35 38.714515 
L 188.156875 38.875761 
L 192.96375 39.044086 
L 197.770625 39.22087 
L 202.5775 39.407825 
L 207.384375 39.60711 
L 212.19125 39.821465 
L 216.998125 40.054425 
L 221.805 40.310613 
L 226.611875 40.596167 
L 231.41875 40.919401 
L 236.225625 41.291803 
L 241.0325 41.729655 
L 245.839375 42.256704 
L 250.64625 42.908829 
L 255.453125 43.742618 
L 260.26 44.852399 
L 265.066875 46.407471 
L 269.87375 48.74597 
L 274.680625 52.673298 
L 279.4875 61.03001 
M 332.363125 103.901715 
L 337.17 118.962639 
L 341.976875 127.981029 
L 346.78375 134.306044 
L 351.590625 139.062472 
L 356.3975 142.795697 
L 361.204375 145.815075 
L 366.01125 148.312977 
L 370.818125 150.416693 
L 375.625 152.214385 
L 380.431875 153.769311 
L 385.23875 155.128174 
L 390.045625 156.326272 
L 394.8525 157.390821 
L 399.659375 158.343162 
L 404.46625 159.200282 
L 409.273125 159.97588 
L 414.08 160.681126 
L 418.886875 161.32523 
L 423.69375 161.91585 
L 428.500625 162.45941 
L 433.3075 162.961341 
L 438.114375 163.426265 
L 442.92125 163.858143 
L 447.728125 164.260384 
L 452.535 164.635947 
L 457.341875 164.987406 
L 462.14875 165.317012 
L 466.955625 165.626746 
L 471.7625 165.918355 
L 476.569375 166.193385 
L 481.37625 166.453212 
L 486.183125 166.699064 
L 490.99 166.932039 
L 495.796875 167.153123 
L 500.60375 167.363203 
L 505.410625 167.563081 
L 510.2175 167.753481 
L 515.024375 167.935062 
L 519.83125 168.108422 
L 524.638125 168.274105 
L 529.445 168.432611 
L 534.251875 168.584394 
L 539.05875 168.729873 
L 543.865625 168.869432 
" style="fill:none;stroke:#000000;stroke-dasharray:1.000000,3.000000;stroke-dashoffset:0.0;stroke-width:2.0;"/>
   </g>
   <g id="patch_3">
    <path d="M 67.985 175.902578 
L 543.865625 175.902578 
" style="fill:none;stroke:#000000;stroke-linecap:square;stroke-linejoin:miter;"/>
   </g>
   <g id="patch_4">
    <path d="M 67.985 14.9425 
L 543.865625 14.9425 
" style="fill:none;stroke:#000000;stroke-linecap:square;stroke-linejoin:miter;"/>
   </g>
   <g id="patch_5">
    <path d="M 67.985 175.902578 
L 67.985 14.9425 
" style="fill:none;stroke:#000000;stroke-linecap:square;stroke-linejoin:miter;"/>
   </g>
   <g id="patch_6">
    <path d="M 543.865625 175.902578 
L 543.865625 14.9425 
" style="fill:none;stroke:#000000;stroke-linecap:square;stroke-linejoin:miter;"/>
   </g>
   <g id="matplotlib.axis_1">
    <g id="ytick_1">
     <g id="line2d_4">
      <defs>
       <path d="M 0 0 
L 4 0 
" id="m2ecec2d79d" style="stroke:#000000;stroke-width:0.5;"/>
      </defs>
      <g>
       <use style="stroke:#000000;stroke-width:0.5;" x="67.985" xlink:href="#m2ecec2d79d" y="175.902578125"/>
      </g>
     </g>
     <g id="line2d_5">
      <defs>
       <path d="M 0 0 
L -4 0 
" id="m91d844aefc" style="stroke:#000000;stroke-width:0.5;"/>
      </defs>
      <g>
       <use style="stroke:#000000;stroke-width:0.5;" x="543.865625" xlink:href="#m91d844aefc" y="175.902578125"/>
      </g>
     </g>
     <g id="text_1">
      <!-- 0.0 -->
      <defs>
       <path d="M 31.78125 66.40625 
Q 24.171875 66.40625 20.328125 58.90625 
Q 16.5 51.421875 16.5 36.375 
Q 16.5 21.390625 20.328125 13.890625 
Q 24.171875 6.390625 31.78125 6.390625 
Q 39.453125 6.390625 43.28125 13.890625 
Q 47.125 21.390625 47.125 36.375 
Q 47.125 51.421875 43.28125 58.90625 
Q 39.453125 66.40625 31.78125 66.40625 
M 31.78125 74.21875 
Q 44.046875 74.21875 50.515625 64.515625 
Q 56.984375 54.828125 56.984375 36.375 
Q 56.984375 17.96875 50.515625 8.265625 
Q 44.046875 -1.421875 31.78125 -1.421875 
Q 19.53125 -1.421875 13.0625 8.265625 
Q 6.59375 17.96875 6.59375 36.375 
Q 6.59375 54.828125 13.0625 64.515625 
Q 19.53125 74.21875 31.78125 74.21875 
" id="BitstreamVeraSans-Roman-30"/>
       <path d="M 10.6875 12.40625 
L 21 12.40625 
L 21 0 
L 10.6875 0 
z
" id="BitstreamVeraSans-Roman-2e"/>
      </defs>
      <g transform="translate(38.54 180.317578125)scale(0.16 -0.16)">
       <use xlink:href="#BitstreamVeraSans-Roman-30"/>
       <use x="63.623046875" xlink:href="#BitstreamVeraSans-Roman-2e"/>
       <use x="95.41015625" xlink:href="#BitstreamVeraSans-Roman-30"/>
      </g>
     </g>
    </g>
    <g id="ytick_2">
     <g id="line2d_6">
      <g>
       <use style="stroke:#000000;stroke-width:0.5;" x="67.985" xlink:href="#m2ecec2d79d" y="122.24921875"/>
      </g>
     </g>
     <g id="line2d_7">
      <g>
       <use style="stroke:#000000;stroke-width:0.5;" x="543.865625" xlink:href="#m91d844aefc" y="122.24921875"/>
      </g>
     </g>
     <g id="text_2">
      <!-- 0.5 -->
      <defs>
       <path d="M 10.796875 72.90625 
L 49.515625 72.90625 
L 49.515625 64.59375 
L 19.828125 64.59375 
L 19.828125 46.734375 
Q 21.96875 47.46875 24.109375 47.828125 
Q 26.265625 48.1875 28.421875 48.1875 
Q 40.625 48.1875 47.75 41.5 
Q 54.890625 34.8125 54.890625 23.390625 
Q 54.890625 11.625 47.5625 5.09375 
Q 40.234375 -1.421875 26.90625 -1.421875 
Q 22.3125 -1.421875 17.546875 -0.640625 
Q 12.796875 0.140625 7.71875 1.703125 
L 7.71875 11.625 
Q 12.109375 9.234375 16.796875 8.0625 
Q 21.484375 6.890625 26.703125 6.890625 
Q 35.15625 6.890625 40.078125 11.328125 
Q 45.015625 15.765625 45.015625 23.390625 
Q 45.015625 31 40.078125 35.4375 
Q 35.15625 39.890625 26.703125 39.890625 
Q 22.75 39.890625 18.8125 39.015625 
Q 14.890625 38.140625 10.796875 36.28125 
z
" id="BitstreamVeraSans-Roman-35"/>
      </defs>
      <g transform="translate(38.54 126.66421875)scale(0.16 -0.16)">
       <use xlink:href="#BitstreamVeraSans-Roman-30"/>
       <use x="63.623046875" xlink:href="#BitstreamVeraSans-Roman-2e"/>
       <use x="95.41015625" xlink:href="#BitstreamVeraSans-Roman-35"/>
      </g>
     </g>
    </g>
    <g id="ytick_3">
     <g id="line2d_8">
      <g>
       <use style="stroke:#000000;stroke-width:0.5;" x="67.985" xlink:href="#m2ecec2d79d" y="68.595859375"/>
      </g>
     </g>
     <g id="line2d_9">
      <g>
       <use style="stroke:#000000;stroke-width:0.5;" x="543.865625" xlink:href="#m91d844aefc" y="68.595859375"/>
      </g>
     </g>
     <g id="text_3">
      <!-- 1.0 -->
      <defs>
       <path d="M 12.40625 8.296875 
L 28.515625 8.296875 
L 28.515625 63.921875 
L 10.984375 60.40625 
L 10.984375 69.390625 
L 28.421875 72.90625 
L 38.28125 72.90625 
L 38.28125 8.296875 
L 54.390625 8.296875 
L 54.390625 0 
L 12.40625 0 
z
" id="BitstreamVeraSans-Roman-31"/>
      </defs>
      <g transform="translate(38.54 73.010859375)scale(0.16 -0.16)">
       <use xlink:href="#BitstreamVeraSans-Roman-31"/>
       <use x="63.623046875" xlink:href="#BitstreamVeraSans-Roman-2e"/>
       <use x="95.41015625" xlink:href="#BitstreamVeraSans-Roman-30"/>
      </g>
     </g>
    </g>
    <g id="ytick_4">
     <g id="line2d_10">
      <g>
       <use style="stroke:#000000;stroke-width:0.5;" x="67.985" xlink:href="#m2ecec2d79d" y="14.9425"/>
      </g>
     </g>
     <g id="line2d_11">
      <g>
       <use style="stroke:#000000;stroke-width:0.5;" x="543.865625" xlink:href="#m91d844aefc" y="14.9425"/>
      </g>
     </g>
     <g id="text_4">
      <!-- 1.5 -->
      <g transform="translate(38.54 19.3575)scale(0.16 -0.16)">
       <use xlink:href="#BitstreamVeraSans-Roman-31"/>
       <use x="63.623046875" xlink:href="#BitstreamVeraSans-Roman-2e"/>
       <use x="95.41015625" xlink:href="#BitstreamVeraSans-Roman-35"/>
      </g>
     </g>
    </g>
    <g id="text_5">
     <!-- $\left( c / ℏ \right) \left|P_+\right|$ ($\mathregular{GeV}$) -->
     <defs>
      <path d="M 5.609375 -23 
Q 5.609375 -22.703125 5.71875 -22.609375 
L 40.484375 73.78125 
Q 40.671875 74.359375 41.15625 74.671875 
Q 41.65625 75 42.28125 75 
Q 43.171875 75 43.71875 74.453125 
Q 44.28125 73.921875 44.28125 73 
L 44.28125 72.609375 
L 9.515625 -23.78125 
Q 8.9375 -25 7.625 -25 
Q 6.78125 -25 6.1875 -24.40625 
Q 5.609375 -23.828125 5.609375 -23 
" id="Cmmi10-3d"/>
      <path id="BitstreamVeraSans-Roman-20"/>
      <path d="M 59.515625 10.40625 
L 59.515625 29.984375 
L 43.40625 29.984375 
L 43.40625 38.09375 
L 69.28125 38.09375 
L 69.28125 6.78125 
Q 63.578125 2.734375 56.6875 0.65625 
Q 49.8125 -1.421875 42 -1.421875 
Q 24.90625 -1.421875 15.25 8.5625 
Q 5.609375 18.5625 5.609375 36.375 
Q 5.609375 54.25 15.25 64.234375 
Q 24.90625 74.21875 42 74.21875 
Q 49.125 74.21875 55.546875 72.453125 
Q 61.96875 70.703125 67.390625 67.28125 
L 67.390625 56.78125 
Q 61.921875 61.421875 55.765625 63.765625 
Q 49.609375 66.109375 42.828125 66.109375 
Q 29.4375 66.109375 22.71875 58.640625 
Q 16.015625 51.171875 16.015625 36.375 
Q 16.015625 21.625 22.71875 14.15625 
Q 29.4375 6.6875 42.828125 6.6875 
Q 48.046875 6.6875 52.140625 7.59375 
Q 56.25 8.5 59.515625 10.40625 
" id="BitstreamVeraSans-Roman-47"/>
      <path d="M 28.609375 0 
L 0.78125 72.90625 
L 11.078125 72.90625 
L 34.1875 11.53125 
L 57.328125 72.90625 
L 67.578125 72.90625 
L 39.796875 0 
z
" id="BitstreamVeraSans-Roman-56"/>
      <path d="M 8.015625 75.875 
L 15.828125 75.875 
Q 23.140625 64.359375 26.78125 53.3125 
Q 30.421875 42.28125 30.421875 31.390625 
Q 30.421875 20.453125 26.78125 9.375 
Q 23.140625 -1.703125 15.828125 -13.1875 
L 8.015625 -13.1875 
Q 14.5 -2 17.703125 9.0625 
Q 20.90625 20.125 20.90625 31.390625 
Q 20.90625 42.671875 17.703125 53.65625 
Q 14.5 64.65625 8.015625 75.875 
" id="BitstreamVeraSans-Roman-29"/>
      <path d="M 11.921875 -23.1875 
L 11.921875 73.1875 
Q 11.921875 73.96875 12.5 74.484375 
Q 13.09375 75 13.921875 75 
Q 14.65625 75 15.28125 74.484375 
Q 15.921875 73.96875 15.921875 73.1875 
L 15.921875 -23.1875 
Q 15.921875 -23.96875 15.28125 -24.484375 
Q 14.65625 -25 13.921875 -25 
Q 13.09375 -25 12.5 -24.484375 
Q 11.921875 -23.96875 11.921875 -23.1875 
" id="Cmsy10-6a"/>
      <path d="M 6.5 -25 
Q 5.609375 -25 5.609375 -24.125 
Q 5.609375 -23.6875 5.8125 -23.484375 
Q 22.90625 -6.78125 22.90625 25 
Q 22.90625 56.78125 6 73.296875 
Q 5.609375 73.53125 5.609375 74.125 
Q 5.609375 74.46875 5.875 74.734375 
Q 6.15625 75 6.5 75 
L 7.421875 75 
Q 7.71875 75 7.90625 74.8125 
Q 15.09375 69.140625 19.875 61.03125 
Q 24.65625 52.9375 26.875 43.75 
Q 29.109375 34.578125 29.109375 25 
Q 29.109375 17.921875 27.90625 11.0625 
Q 26.703125 4.203125 24.09375 -2.453125 
Q 21.484375 -9.125 17.484375 -14.765625 
Q 13.484375 -20.40625 7.90625 -24.8125 
Q 7.71875 -25 7.421875 -25 
z
" id="Cmr10-29"/>
      <path d="M 4.890625 0 
Q 3.90625 0 3.90625 1.3125 
Q 3.953125 1.5625 4.09375 2.171875 
Q 4.25 2.78125 4.515625 3.140625 
Q 4.78125 3.515625 5.171875 3.515625 
Q 11.28125 3.515625 13.71875 4.203125 
Q 14.984375 4.640625 15.578125 6.890625 
L 29.296875 61.8125 
Q 29.5 62.796875 29.5 63.1875 
Q 29.5 64.265625 28.328125 64.40625 
Q 26.421875 64.796875 21.09375 64.796875 
Q 20.125 64.796875 20.125 66.109375 
Q 20.171875 66.359375 20.3125 66.96875 
Q 20.453125 67.578125 20.71875 67.9375 
Q 21 68.3125 21.390625 68.3125 
L 55.90625 68.3125 
Q 60.640625 68.3125 65.078125 66.625 
Q 69.53125 64.9375 72.359375 61.46875 
Q 75.203125 58.015625 75.203125 53.078125 
Q 75.203125 46.734375 70.734375 41.75 
Q 66.265625 36.765625 59.59375 33.984375 
Q 52.9375 31.203125 46.6875 31.203125 
L 30.421875 31.203125 
L 24.3125 6.5 
Q 24.125 5.515625 24.125 5.078125 
Q 24.125 4.6875 24.234375 4.421875 
Q 24.359375 4.15625 24.578125 4.078125 
Q 24.8125 4 25.296875 3.90625 
Q 27.203125 3.515625 32.515625 3.515625 
Q 33.5 3.515625 33.5 2.203125 
Q 33.15625 0.78125 32.953125 0.390625 
Q 32.765625 0 31.78125 0 
z
M 30.90625 34.1875 
L 44.921875 34.1875 
Q 54.640625 34.1875 59.71875 39.40625 
Q 62.3125 42 63.9375 46.875 
Q 65.578125 51.765625 65.578125 55.71875 
Q 65.578125 60.640625 61.8125 62.71875 
Q 58.0625 64.796875 52.484375 64.796875 
L 42.921875 64.796875 
Q 40.1875 64.796875 39.296875 64.328125 
Q 38.421875 63.875 37.703125 61.375 
z
" id="Cmmi10-50"/>
      <path d="M 56.203125 29.59375 
L 56.203125 25.203125 
L 14.890625 25.203125 
Q 15.484375 15.921875 20.484375 11.0625 
Q 25.484375 6.203125 34.421875 6.203125 
Q 39.59375 6.203125 44.453125 7.46875 
Q 49.3125 8.734375 54.109375 11.28125 
L 54.109375 2.78125 
Q 49.265625 0.734375 44.1875 -0.34375 
Q 39.109375 -1.421875 33.890625 -1.421875 
Q 20.796875 -1.421875 13.15625 6.1875 
Q 5.515625 13.8125 5.515625 26.8125 
Q 5.515625 40.234375 12.765625 48.109375 
Q 20.015625 56 32.328125 56 
Q 43.359375 56 49.78125 48.890625 
Q 56.203125 41.796875 56.203125 29.59375 
M 47.21875 32.234375 
Q 47.125 39.59375 43.09375 43.984375 
Q 39.0625 48.390625 32.421875 48.390625 
Q 24.90625 48.390625 20.390625 44.140625 
Q 15.875 39.890625 15.1875 32.171875 
z
" id="BitstreamVeraSans-Roman-65"/>
      <path d="M 11.71875 11.921875 
Q 11.71875 7.5625 13.9375 4.53125 
Q 16.15625 1.515625 20.3125 1.515625 
Q 26.265625 1.515625 31.75 4.25 
Q 37.25 6.984375 40.71875 11.8125 
Q 41.015625 12.109375 41.5 12.109375 
Q 42 12.109375 42.5 11.546875 
Q 43.015625 10.984375 43.015625 10.5 
Q 43.015625 10.109375 42.828125 9.90625 
Q 39.15625 4.78125 32.953125 1.828125 
Q 26.765625 -1.125 20.125 -1.125 
Q 15.328125 -1.125 11.671875 1.140625 
Q 8.015625 3.421875 6 7.21875 
Q 4 11.03125 4 15.828125 
Q 4 22.5625 7.765625 29.203125 
Q 11.53125 35.84375 17.78125 40.015625 
Q 24.03125 44.1875 30.90625 44.1875 
Q 35.40625 44.1875 38.984375 42.015625 
Q 42.578125 39.84375 42.578125 35.59375 
Q 42.578125 32.859375 40.984375 30.921875 
Q 39.40625 29 36.71875 29 
Q 35.109375 29 34 30 
Q 32.90625 31 32.90625 32.625 
Q 32.90625 34.96875 34.609375 36.625 
Q 36.328125 38.28125 38.625 38.28125 
L 38.8125 38.28125 
Q 37.640625 39.984375 35.421875 40.796875 
Q 33.203125 41.609375 30.8125 41.609375 
Q 24.953125 41.609375 20.546875 36.59375 
Q 16.15625 31.59375 13.9375 24.625 
Q 11.71875 17.671875 11.71875 11.921875 
" id="Cmmi10-63"/>
      <path d="M 31 75.875 
Q 24.46875 64.65625 21.28125 53.65625 
Q 18.109375 42.671875 18.109375 31.390625 
Q 18.109375 20.125 21.3125 9.0625 
Q 24.515625 -2 31 -13.1875 
L 23.1875 -13.1875 
Q 15.875 -1.703125 12.234375 9.375 
Q 8.59375 20.453125 8.59375 31.390625 
Q 8.59375 42.28125 12.203125 53.3125 
Q 15.828125 64.359375 23.1875 75.875 
z
" id="BitstreamVeraSans-Roman-28"/>
      <path d="M 53.203125 11.703125 
L 54.703125 10.703125 
Q 46.796875 -1 39.796875 -1 
Q 34.5 -1 34.5 4.59375 
Q 34.5 6.703125 36.90625 15.59375 
L 40.90625 30 
Q 41.796875 33.40625 41.796875 36.203125 
Q 41.796875 40.59375 38.09375 40.59375 
Q 35.703125 40.59375 32 37.046875 
Q 28.296875 33.5 24.09375 27.296875 
Q 20.703125 22.296875 18.5 16.890625 
Q 16.296875 11.5 13.09375 0 
L 4.703125 0 
L 17.40625 46.90625 
L 8 43.5 
L 8.90625 47.796875 
L 18.59375 51.296875 
L 20.5 57.296875 
Q 20.90625 58.5 20.90625 60.203125 
Q 20.90625 62.40625 15.203125 62.40625 
L 15.203125 63.90625 
Q 23.5 65.59375 30.90625 68.296875 
L 31.703125 68.09375 
Q 30.59375 64.796875 29.09375 59.296875 
L 27.796875 54.703125 
L 42.203125 60 
L 41 55.59375 
L 26.59375 50.40625 
L 19.59375 24.59375 
L 19.703125 24.59375 
Q 30.703125 46 41.59375 46 
Q 50.40625 46 50.40625 37.203125 
Q 50.40625 33.796875 49.296875 30.09375 
L 44.203125 12.203125 
Q 43.09375 8.5 43.09375 6.703125 
Q 43.09375 5 44.40625 5 
Q 47.5 5 53.203125 11.703125 
" id="STIXGeneral-Regular-210f"/>
      <path d="M 7.515625 23 
Q 6.6875 23 6.140625 23.625 
Q 5.609375 24.265625 5.609375 25 
Q 5.609375 25.734375 6.140625 26.359375 
Q 6.6875 27 7.515625 27 
L 36.921875 27 
L 36.921875 56.5 
Q 36.921875 57.28125 37.5 57.78125 
Q 38.09375 58.296875 38.921875 58.296875 
Q 39.65625 58.296875 40.28125 57.78125 
Q 40.921875 57.28125 40.921875 56.5 
L 40.921875 27 
L 70.3125 27 
Q 71.046875 27 71.578125 26.359375 
Q 72.125 25.734375 72.125 25 
Q 72.125 24.265625 71.578125 23.625 
Q 71.046875 23 70.3125 23 
L 40.921875 23 
L 40.921875 -6.5 
Q 40.921875 -7.28125 40.28125 -7.78125 
Q 39.65625 -8.296875 38.921875 -8.296875 
Q 38.09375 -8.296875 37.5 -7.78125 
Q 36.921875 -7.28125 36.921875 -6.5 
L 36.921875 23 
z
" id="Cmr10-2b"/>
      <path d="M 31 -24.8125 
Q 25.4375 -20.40625 21.40625 -14.71875 
Q 17.390625 -9.03125 14.8125 -2.578125 
Q 12.25 3.859375 10.984375 10.890625 
Q 9.71875 17.921875 9.71875 25 
Q 9.71875 32.171875 10.984375 39.203125 
Q 12.25 46.234375 14.859375 52.734375 
Q 17.484375 59.234375 21.53125 64.890625 
Q 25.59375 70.5625 31 74.8125 
Q 31 75 31.5 75 
L 32.421875 75 
Q 32.71875 75 32.953125 74.734375 
Q 33.203125 74.46875 33.203125 74.125 
Q 33.203125 73.6875 33.015625 73.484375 
Q 28.125 68.703125 24.875 63.234375 
Q 21.625 57.765625 19.640625 51.578125 
Q 17.671875 45.40625 16.796875 38.78125 
Q 15.921875 32.171875 15.921875 25 
Q 15.921875 -6.78125 32.90625 -23.296875 
Q 33.203125 -23.578125 33.203125 -24.125 
Q 33.203125 -24.359375 32.9375 -24.671875 
Q 32.671875 -25 32.421875 -25 
L 31.5 -25 
Q 31 -25 31 -24.8125 
" id="Cmr10-28"/>
     </defs>
     <g transform="translate(29.54 155.102539062)rotate(-90.0)scale(0.16 -0.16)">
      <use transform="translate(0.0 0.125)" xlink:href="#Cmr10-28"/>
      <use transform="translate(38.818359375 0.125)" xlink:href="#Cmmi10-63"/>
      <use transform="translate(82.03125 0.125)" xlink:href="#Cmmi10-3d"/>
      <use transform="translate(132.03125 0.125)" xlink:href="#STIXGeneral-Regular-210f"/>
      <use transform="translate(189.93124389648438 0.125)" xlink:href="#Cmr10-29"/>
      <use transform="translate(228.74960327148438 0.09218749999999432)scale(0.9112656250000001)" xlink:href="#Cmsy10-6a"/>
      <use transform="translate(253.97805786132812 0.125)" xlink:href="#Cmmi10-50"/>
      <use transform="translate(330.4780578613281 -16.881249999999994)scale(0.7)" xlink:href="#Cmr10-2b"/>
      <use transform="translate(403.52630004882815 0.09218749999999432)scale(0.9112656250000001)" xlink:href="#Cmsy10-6a"/>
      <use transform="translate(428.7547546386719 0.125)" xlink:href="#BitstreamVeraSans-Roman-20"/>
      <use transform="translate(460.5418640136719 0.125)" xlink:href="#BitstreamVeraSans-Roman-28"/>
      <use transform="translate(499.5555358886719 0.125)" xlink:href="#BitstreamVeraSans-Roman-47"/>
      <use transform="translate(577.0457702636719 0.125)" xlink:href="#BitstreamVeraSans-Roman-65"/>
      <use transform="translate(638.5692077636719 0.125)" xlink:href="#BitstreamVeraSans-Roman-56"/>
      <use transform="translate(706.9774108886719 0.125)" xlink:href="#BitstreamVeraSans-Roman-29"/>
     </g>
    </g>
   </g>
   <g id="legend_1">
    <g id="patch_7">
     <path d="M 401.593625 114.9655 
L 534.265625 114.9655 
L 534.265625 24.5425 
L 401.593625 24.5425 
L 401.593625 114.9655 
z
" style="fill:none;opacity:0;"/>
    </g>
    <g id="line2d_12">
     <path d="M 415.033625 40.0915 
L 441.913625 40.0915 
" style="fill:none;stroke:#000000;stroke-linecap:square;stroke-width:2.0;"/>
    </g>
    <g id="line2d_13"/>
    <g id="text_6">
     <!-- $\mathregular{MoSe_2}$ -->
     <defs>
      <path d="M 53.515625 70.515625 
L 53.515625 60.890625 
Q 47.90625 63.578125 42.921875 64.890625 
Q 37.9375 66.21875 33.296875 66.21875 
Q 25.25 66.21875 20.875 63.09375 
Q 16.5 59.96875 16.5 54.203125 
Q 16.5 49.359375 19.40625 46.890625 
Q 22.3125 44.4375 30.421875 42.921875 
L 36.375 41.703125 
Q 47.40625 39.59375 52.65625 34.296875 
Q 57.90625 29 57.90625 20.125 
Q 57.90625 9.515625 50.796875 4.046875 
Q 43.703125 -1.421875 29.984375 -1.421875 
Q 24.8125 -1.421875 18.96875 -0.25 
Q 13.140625 0.921875 6.890625 3.21875 
L 6.890625 13.375 
Q 12.890625 10.015625 18.65625 8.296875 
Q 24.421875 6.59375 29.984375 6.59375 
Q 38.421875 6.59375 43.015625 9.90625 
Q 47.609375 13.234375 47.609375 19.390625 
Q 47.609375 24.75 44.3125 27.78125 
Q 41.015625 30.8125 33.5 32.328125 
L 27.484375 33.5 
Q 16.453125 35.6875 11.515625 40.375 
Q 6.59375 45.0625 6.59375 53.421875 
Q 6.59375 63.09375 13.40625 68.65625 
Q 20.21875 74.21875 32.171875 74.21875 
Q 37.3125 74.21875 42.625 73.28125 
Q 47.953125 72.359375 53.515625 70.515625 
" id="BitstreamVeraSans-Roman-53"/>
      <path d="M 19.1875 8.296875 
L 53.609375 8.296875 
L 53.609375 0 
L 7.328125 0 
L 7.328125 8.296875 
Q 12.9375 14.109375 22.625 23.890625 
Q 32.328125 33.6875 34.8125 36.53125 
Q 39.546875 41.84375 41.421875 45.53125 
Q 43.3125 49.21875 43.3125 52.78125 
Q 43.3125 58.59375 39.234375 62.25 
Q 35.15625 65.921875 28.609375 65.921875 
Q 23.96875 65.921875 18.8125 64.3125 
Q 13.671875 62.703125 7.8125 59.421875 
L 7.8125 69.390625 
Q 13.765625 71.78125 18.9375 73 
Q 24.125 74.21875 28.421875 74.21875 
Q 39.75 74.21875 46.484375 68.546875 
Q 53.21875 62.890625 53.21875 53.421875 
Q 53.21875 48.921875 51.53125 44.890625 
Q 49.859375 40.875 45.40625 35.40625 
Q 44.1875 33.984375 37.640625 27.21875 
Q 31.109375 20.453125 19.1875 8.296875 
" id="BitstreamVeraSans-Roman-32"/>
      <path d="M 30.609375 48.390625 
Q 23.390625 48.390625 19.1875 42.75 
Q 14.984375 37.109375 14.984375 27.296875 
Q 14.984375 17.484375 19.15625 11.84375 
Q 23.34375 6.203125 30.609375 6.203125 
Q 37.796875 6.203125 41.984375 11.859375 
Q 46.1875 17.53125 46.1875 27.296875 
Q 46.1875 37.015625 41.984375 42.703125 
Q 37.796875 48.390625 30.609375 48.390625 
M 30.609375 56 
Q 42.328125 56 49.015625 48.375 
Q 55.71875 40.765625 55.71875 27.296875 
Q 55.71875 13.875 49.015625 6.21875 
Q 42.328125 -1.421875 30.609375 -1.421875 
Q 18.84375 -1.421875 12.171875 6.21875 
Q 5.515625 13.875 5.515625 27.296875 
Q 5.515625 40.765625 12.171875 48.375 
Q 18.84375 56 30.609375 56 
" id="BitstreamVeraSans-Roman-6f"/>
      <path d="M 9.8125 72.90625 
L 24.515625 72.90625 
L 43.109375 23.296875 
L 61.8125 72.90625 
L 76.515625 72.90625 
L 76.515625 0 
L 66.890625 0 
L 66.890625 64.015625 
L 48.09375 14.015625 
L 38.1875 14.015625 
L 19.390625 64.015625 
L 19.390625 0 
L 9.8125 0 
z
" id="BitstreamVeraSans-Roman-4d"/>
     </defs>
     <g transform="translate(463.033625 46.8115)scale(0.192 -0.192)">
      <use transform="translate(0.0 0.78125)" xlink:href="#BitstreamVeraSans-Roman-4d"/>
      <use transform="translate(86.279296875 0.78125)" xlink:href="#BitstreamVeraSans-Roman-6f"/>
      <use transform="translate(147.4609375 0.78125)" xlink:href="#BitstreamVeraSans-Roman-53"/>
      <use transform="translate(210.9375 0.78125)" xlink:href="#BitstreamVeraSans-Roman-65"/>
      <use transform="translate(277.9734375 -20.21875)scale(0.7)" xlink:href="#BitstreamVeraSans-Roman-32"/>
     </g>
    </g>
    <g id="line2d_14">
     <path d="M 415.033625 68.3125 
L 441.913625 68.3125 
" style="fill:none;stroke:#000000;stroke-dasharray:6.000000,6.000000;stroke-dashoffset:0.0;stroke-width:2.0;"/>
    </g>
    <g id="line2d_15"/>
    <g id="text_7">
     <!-- $\mathregular{WS_2}$ -->
     <defs>
      <path d="M 3.328125 72.90625 
L 13.28125 72.90625 
L 28.609375 11.28125 
L 43.890625 72.90625 
L 54.984375 72.90625 
L 70.3125 11.28125 
L 85.59375 72.90625 
L 95.609375 72.90625 
L 77.296875 0 
L 64.890625 0 
L 49.515625 63.28125 
L 33.984375 0 
L 21.578125 0 
z
" id="BitstreamVeraSans-Roman-57"/>
     </defs>
     <g transform="translate(463.033625 75.0325)scale(0.192 -0.192)">
      <use transform="translate(0.0 0.78125)" xlink:href="#BitstreamVeraSans-Roman-57"/>
      <use transform="translate(98.876953125 0.78125)" xlink:href="#BitstreamVeraSans-Roman-53"/>
      <use transform="translate(167.866015625 -20.21875)scale(0.7)" xlink:href="#BitstreamVeraSans-Roman-32"/>
     </g>
    </g>
    <g id="line2d_16">
     <path d="M 415.033625 96.5335 
L 441.913625 96.5335 
" style="fill:none;stroke:#000000;stroke-dasharray:1.000000,3.000000;stroke-dashoffset:0.0;stroke-width:2.0;"/>
    </g>
    <g id="line2d_17"/>
    <g id="text_8">
     <!-- $\mathregular{WSe_2}$ -->
     <g transform="translate(463.033625 103.2535)scale(0.192 -0.192)">
      <use transform="translate(0.0 0.78125)" xlink:href="#BitstreamVeraSans-Roman-57"/>
      <use transform="translate(98.876953125 0.78125)" xlink:href="#BitstreamVeraSans-Roman-53"/>
      <use transform="translate(162.353515625 0.78125)" xlink:href="#BitstreamVeraSans-Roman-65"/>
      <use transform="translate(229.389453125 -20.21875)scale(0.7)" xlink:href="#BitstreamVeraSans-Roman-32"/>
     </g>
    </g>
   </g>
  </g>
  <g id="axes_2">
   <g id="patch_8">
    <path d="M 67.985 368.078594 
L 543.865625 368.078594 
L 543.865625 207.118516 
L 67.985 207.118516 
L 67.985 368.078594 
z
" style="fill:none;"/>
   </g>
   <g id="line2d_18">
    <path clip-path="url(#p57f032d904)" d="M 67.985 358.087765 
L 72.791875 357.122433 
L 77.59875 356.161187 
L 82.405625 355.204002 
L 87.2125 354.250853 
L 92.019375 353.301718 
L 96.82625 352.356575 
L 101.633125 351.415402 
L 106.44 350.478179 
L 111.246875 349.544889 
L 116.05375 348.615513 
L 120.860625 347.690039 
L 125.6675 346.768452 
L 130.474375 345.850745 
L 135.28125 344.936911 
L 140.088125 344.026947 
L 144.895 343.120858 
L 149.701875 342.218652 
L 154.50875 341.320345 
L 159.315625 340.425965 
L 164.1225 339.535548 
L 168.929375 338.649145 
L 173.73625 337.766827 
L 178.543125 336.888685 
L 183.35 336.01484 
L 188.156875 335.14545 
L 192.96375 334.280723 
L 197.770625 333.420927 
L 202.5775 332.566418 
L 207.384375 331.717663 
L 212.19125 330.87528 
L 216.998125 330.040102 
L 221.805 329.213256 
L 226.611875 328.396292 
L 231.41875 327.591379 
L 236.225625 326.801604 
L 241.0325 326.031474 
L 245.839375 325.287742 
L 250.64625 324.580887 
L 255.453125 323.927859 
L 260.26 323.357604 
L 265.066875 322.923286 
L 269.87375 322.733415 
L 274.680625 323.051564 
L 279.4875 324.821805 
M 332.363125 340.965714 
L 337.17 347.273179 
L 341.976875 350.989343 
L 346.78375 353.573766 
L 351.590625 355.506875 
L 356.3975 357.018563 
L 361.204375 358.238 
L 366.01125 359.244931 
L 370.818125 360.091825 
L 375.625 360.814856 
L 380.431875 361.439882 
L 385.23875 361.985932 
L 390.045625 362.467349 
L 394.8525 362.895164 
L 399.659375 363.278012 
L 404.46625 363.622752 
L 409.273125 363.934905 
L 414.08 364.21897 
L 418.886875 364.478647 
L 423.69375 364.717011 
L 428.500625 364.936641 
L 433.3075 365.139711 
L 438.114375 365.328072 
L 442.92125 365.503308 
L 447.728125 365.666783 
L 452.535 365.819677 
L 457.341875 365.963018 
L 462.14875 366.097704 
L 466.955625 366.224525 
L 471.7625 366.344177 
L 476.569375 366.457275 
L 481.37625 366.564368 
L 486.183125 366.665944 
L 490.99 366.762439 
L 495.796875 366.854246 
L 500.60375 366.941717 
L 505.410625 367.02517 
L 510.2175 367.104894 
L 515.024375 367.18115 
L 519.83125 367.254176 
L 524.638125 367.324187 
L 529.445 367.391381 
L 534.251875 367.455939 
L 539.05875 367.518027 
L 543.865625 367.577797 
" style="fill:none;stroke:#000000;stroke-linecap:square;stroke-width:2.0;"/>
   </g>
   <g id="line2d_19">
    <path clip-path="url(#p57f032d904)" d="M 67.985 270.548491 
L 72.791875 269.657098 
L 77.59875 268.768874 
L 82.405625 267.88383 
L 87.2125 267.001983 
L 92.019375 266.123354 
L 96.82625 265.247967 
L 101.633125 264.375852 
L 106.44 263.507046 
L 111.246875 262.641591 
L 116.05375 261.779538 
L 120.860625 260.920948 
L 125.6675 260.065892 
L 130.474375 259.214454 
L 135.28125 258.366733 
L 140.088125 257.522847 
L 144.895 256.682936 
L 149.701875 255.847163 
L 154.50875 255.015724 
L 159.315625 254.188854 
L 164.1225 253.36683 
L 168.929375 252.549989 
L 173.73625 251.738736 
L 178.543125 250.933561 
L 183.35 250.135064 
L 188.156875 249.343981 
L 192.96375 248.561224 
L 197.770625 247.78793 
L 202.5775 247.02553 
L 207.384375 246.275843 
L 212.19125 245.541211 
L 216.998125 244.82468 
L 221.805 244.130274 
L 226.611875 243.463389 
L 231.41875 242.831401 
L 236.225625 242.244599 
L 241.0325 241.717691 
L 245.839375 241.272321 
L 250.64625 240.941469 
L 255.453125 240.777591 
L 260.26 240.868844 
L 265.066875 241.374715 
L 269.87375 242.61617 
L 274.680625 245.363055 
L 279.4875 252.345686 
M 332.363125 295.538479 
L 337.17 311.376037 
L 341.976875 320.795532 
L 346.78375 327.378661 
L 351.590625 332.318088 
L 356.3975 336.188911 
L 361.204375 339.316049 
L 366.01125 341.900947 
L 370.818125 344.076587 
L 375.625 345.934898 
L 380.431875 347.541741 
L 385.23875 348.945674 
L 390.045625 350.183358 
L 394.8525 351.283028 
L 399.659375 352.266812 
L 404.46625 353.152305 
L 409.273125 353.953687 
L 414.08 354.682518 
L 418.886875 355.348318 
L 423.69375 355.959004 
L 428.500625 356.521213 
L 433.3075 357.040552 
L 438.114375 357.521792 
L 442.92125 357.969021 
L 447.728125 358.385757 
L 452.535 358.775049 
L 457.341875 359.139553 
L 462.14875 359.481589 
L 466.955625 359.803197 
L 471.7625 360.106177 
L 476.569375 360.392124 
L 481.37625 360.662453 
L 486.183125 360.918429 
L 490.99 361.161182 
L 495.796875 361.391726 
L 500.60375 361.610977 
L 505.410625 361.819757 
L 510.2175 362.018813 
L 515.024375 362.208822 
L 519.83125 362.390399 
L 524.638125 362.564105 
L 529.445 362.730452 
L 534.251875 362.889909 
L 539.05875 363.042905 
L 543.865625 363.189836 
" style="fill:none;stroke:#000000;stroke-dasharray:6.000000,6.000000;stroke-dashoffset:0.0;stroke-width:2.0;"/>
   </g>
   <g id="line2d_20">
    <path clip-path="url(#p57f032d904)" d="M 67.985 260.887686 
L 72.791875 260.038509 
L 77.59875 259.19269 
L 82.405625 258.350243 
L 87.2125 257.511186 
L 92.019375 256.67554 
L 96.82625 255.843332 
L 101.633125 255.014595 
L 106.44 254.189367 
L 111.246875 253.367695 
L 116.05375 252.549635 
L 120.860625 251.735251 
L 125.6675 250.924621 
L 130.474375 250.117837 
L 135.28125 249.315007 
L 140.088125 248.516257 
L 144.895 247.72174 
L 149.701875 246.931633 
L 154.50875 246.146149 
L 159.315625 245.36554 
L 164.1225 244.59011 
L 168.929375 243.82022 
L 173.73625 243.056309 
L 178.543125 242.298907 
L 183.35 241.54866 
L 188.156875 240.806363 
L 192.96375 240.072998 
L 197.770625 239.349788 
L 202.5775 238.638272 
L 207.384375 237.940405 
L 212.19125 237.2587 
L 216.998125 236.596423 
L 221.805 235.957885 
L 226.611875 235.348863 
L 231.41875 234.777242 
L 236.225625 234.254015 
L 241.0325 233.794882 
L 245.839375 233.422925 
L 250.64625 233.173283 
L 255.453125 233.101799 
L 260.26 233.302245 
L 265.066875 233.944123 
L 269.87375 235.368289 
L 274.680625 238.391714 
L 279.4875 245.910181 
M 332.363125 291.504776 
L 337.17 308.154824 
L 341.976875 318.064021 
L 346.78375 324.991799 
L 351.590625 330.191008 
L 356.3975 334.266078 
L 361.204375 337.558633 
L 366.01125 340.280533 
L 370.818125 342.571665 
L 375.625 344.528752 
L 380.431875 346.221096 
L 385.23875 347.699802 
L 390.045625 349.003456 
L 394.8525 350.16178 
L 399.659375 351.198066 
L 404.46625 352.13084 
L 409.273125 352.975032 
L 414.08 353.742811 
L 418.886875 354.444203 
L 423.69375 355.087545 
L 428.500625 355.679824 
L 433.3075 356.226948 
L 438.114375 356.73394 
L 442.92125 357.205104 
L 447.728125 357.644148 
L 452.535 358.054281 
L 457.341875 358.438301 
L 462.14875 358.798653 
L 466.955625 359.137485 
L 471.7625 359.456692 
L 476.569375 359.757955 
L 481.37625 360.042765 
L 486.183125 360.312454 
L 490.99 360.568212 
L 495.796875 360.811108 
L 500.60375 361.042106 
L 505.410625 361.262073 
L 510.2175 361.471796 
L 515.024375 361.671987 
L 519.83125 361.863295 
L 524.638125 362.046311 
L 529.445 362.221574 
L 534.251875 362.389577 
L 539.05875 362.550775 
L 543.865625 362.705582 
" style="fill:none;stroke:#000000;stroke-dasharray:1.000000,3.000000;stroke-dashoffset:0.0;stroke-width:2.0;"/>
   </g>
   <g id="patch_9">
    <path d="M 67.985 368.078594 
L 543.865625 368.078594 
" style="fill:none;stroke:#000000;stroke-linecap:square;stroke-linejoin:miter;"/>
   </g>
   <g id="patch_10">
    <path d="M 67.985 207.118516 
L 543.865625 207.118516 
" style="fill:none;stroke:#000000;stroke-linecap:square;stroke-linejoin:miter;"/>
   </g>
   <g id="patch_11">
    <path d="M 67.985 368.078594 
L 67.985 207.118516 
" style="fill:none;stroke:#000000;stroke-linecap:square;stroke-linejoin:miter;"/>
   </g>
   <g id="patch_12">
    <path d="M 543.865625 368.078594 
L 543.865625 207.118516 
" style="fill:none;stroke:#000000;stroke-linecap:square;stroke-linejoin:miter;"/>
   </g>
   <g id="matplotlib.axis_2">
    <g id="xtick_1">
     <g id="line2d_21">
      <defs>
       <path d="M 0 0 
L 0 -4 
" id="me46cc0bc4d" style="stroke:#000000;stroke-width:0.5;"/>
      </defs>
      <g>
       <use style="stroke:#000000;stroke-width:0.5;" x="67.985" xlink:href="#me46cc0bc4d" y="368.07859375"/>
      </g>
     </g>
     <g id="line2d_22">
      <defs>
       <path d="M 0 0 
L 0 4 
" id="mcd554a6da6" style="stroke:#000000;stroke-width:0.5;"/>
      </defs>
      <g>
       <use style="stroke:#000000;stroke-width:0.5;" x="67.985" xlink:href="#mcd554a6da6" y="207.118515625"/>
      </g>
     </g>
     <g id="text_9">
      <!-- −10 -->
      <defs>
       <path d="M 10.59375 35.5 
L 73.1875 35.5 
L 73.1875 27.203125 
L 10.59375 27.203125 
z
" id="BitstreamVeraSans-Roman-2212"/>
      </defs>
      <g transform="translate(51.10125 384.23609375)scale(0.16 -0.16)">
       <use xlink:href="#BitstreamVeraSans-Roman-2212"/>
       <use x="83.7890625" xlink:href="#BitstreamVeraSans-Roman-31"/>
       <use x="147.412109375" xlink:href="#BitstreamVeraSans-Roman-30"/>
      </g>
     </g>
    </g>
    <g id="xtick_2">
     <g id="line2d_23">
      <g>
       <use style="stroke:#000000;stroke-width:0.5;" x="186.95515625" xlink:href="#me46cc0bc4d" y="368.07859375"/>
      </g>
     </g>
     <g id="line2d_24">
      <g>
       <use style="stroke:#000000;stroke-width:0.5;" x="186.95515625" xlink:href="#mcd554a6da6" y="207.118515625"/>
      </g>
     </g>
     <g id="text_10">
      <!-- −5 -->
      <g transform="translate(175.16140625 384.23609375)scale(0.16 -0.16)">
       <use xlink:href="#BitstreamVeraSans-Roman-2212"/>
       <use x="83.7890625" xlink:href="#BitstreamVeraSans-Roman-35"/>
      </g>
     </g>
    </g>
    <g id="xtick_3">
     <g id="line2d_25">
      <g>
       <use style="stroke:#000000;stroke-width:0.5;" x="305.9253125" xlink:href="#me46cc0bc4d" y="368.07859375"/>
      </g>
     </g>
     <g id="line2d_26">
      <g>
       <use style="stroke:#000000;stroke-width:0.5;" x="305.9253125" xlink:href="#mcd554a6da6" y="207.118515625"/>
      </g>
     </g>
     <g id="text_11">
      <!-- 0 -->
      <g transform="translate(300.8353125 384.23609375)scale(0.16 -0.16)">
       <use xlink:href="#BitstreamVeraSans-Roman-30"/>
      </g>
     </g>
    </g>
    <g id="xtick_4">
     <g id="line2d_27">
      <g>
       <use style="stroke:#000000;stroke-width:0.5;" x="424.89546875" xlink:href="#me46cc0bc4d" y="368.07859375"/>
      </g>
     </g>
     <g id="line2d_28">
      <g>
       <use style="stroke:#000000;stroke-width:0.5;" x="424.89546875" xlink:href="#mcd554a6da6" y="207.118515625"/>
      </g>
     </g>
     <g id="text_12">
      <!-- 5 -->
      <g transform="translate(419.80546875 384.23609375)scale(0.16 -0.16)">
       <use xlink:href="#BitstreamVeraSans-Roman-35"/>
      </g>
     </g>
    </g>
    <g id="xtick_5">
     <g id="line2d_29">
      <g>
       <use style="stroke:#000000;stroke-width:0.5;" x="543.865625" xlink:href="#me46cc0bc4d" y="368.07859375"/>
      </g>
     </g>
     <g id="line2d_30">
      <g>
       <use style="stroke:#000000;stroke-width:0.5;" x="543.865625" xlink:href="#mcd554a6da6" y="207.118515625"/>
      </g>
     </g>
     <g id="text_13">
      <!-- 10 -->
      <g transform="translate(533.685625 384.23609375)scale(0.16 -0.16)">
       <use xlink:href="#BitstreamVeraSans-Roman-31"/>
       <use x="63.623046875" xlink:href="#BitstreamVeraSans-Roman-30"/>
      </g>
     </g>
    </g>
    <g id="text_14">
     <!-- $\lambda_{\mathbf{k}} / \Delta_0$ -->
     <defs>
      <path d="M 25 -2.203125 
Q 12.75 -2.203125 8.328125 7.875 
Q 3.90625 17.96875 3.90625 31.890625 
Q 3.90625 40.578125 5.484375 48.234375 
Q 7.078125 55.90625 11.78125 61.25 
Q 16.5 66.609375 25 66.609375 
Q 31.59375 66.609375 35.78125 63.375 
Q 39.984375 60.15625 42.1875 55.046875 
Q 44.390625 49.953125 45.1875 44.109375 
Q 46 38.28125 46 31.890625 
Q 46 23.296875 44.40625 15.796875 
Q 42.828125 8.296875 38.1875 3.046875 
Q 33.546875 -2.203125 25 -2.203125 
M 25 0.390625 
Q 30.5625 0.390625 33.296875 6.09375 
Q 36.03125 11.8125 36.671875 18.75 
Q 37.3125 25.6875 37.3125 33.5 
Q 37.3125 41.015625 36.671875 47.359375 
Q 36.03125 53.71875 33.3125 58.859375 
Q 30.609375 64.015625 25 64.015625 
Q 19.34375 64.015625 16.609375 58.828125 
Q 13.875 53.65625 13.234375 47.328125 
Q 12.59375 41.015625 12.59375 33.5 
Q 12.59375 27.9375 12.859375 23 
Q 13.140625 18.0625 14.3125 12.8125 
Q 15.484375 7.5625 18.09375 3.96875 
Q 20.703125 0.390625 25 0.390625 
" id="Cmr10-30"/>
      <path d="M 5.421875 0 
Q 4.59375 0 4.59375 0.78125 
Q 4.640625 0.875 4.65625 0.921875 
Q 4.6875 0.984375 4.6875 1.125 
L 39.109375 70.515625 
Q 39.546875 71.578125 40.921875 71.578125 
L 42.28125 71.578125 
Q 43.65625 71.578125 44.09375 70.515625 
L 78.515625 1.125 
Q 78.5625 1.03125 78.578125 0.953125 
Q 78.609375 0.875 78.609375 0.78125 
Q 78.609375 0 77.78125 0 
z
M 12.015625 8.015625 
L 64.703125 8.015625 
L 38.375 61.078125 
z
" id="Cmr10-a2"/>
      <path d="M 1.421875 0 
L 1.421875 5.078125 
L 8.296875 5.078125 
L 8.296875 60.6875 
Q 8.296875 62.546875 6.34375 63.015625 
Q 4.390625 63.484375 1.421875 63.484375 
L 1.421875 68.609375 
L 19.484375 69.390625 
L 19.484375 25.296875 
L 33.59375 38.484375 
Q 33.59375 38.921875 31.875 39.109375 
Q 30.171875 39.3125 29.109375 39.3125 
L 29.109375 44.390625 
L 48.78125 44.390625 
L 48.78125 39.3125 
Q 42 39.3125 41.015625 38.375 
L 29.78125 27.875 
L 44.484375 6 
Q 45.515625 5.078125 51.125 5.078125 
L 51.125 0 
L 28.71875 0 
L 28.71875 5.078125 
Q 32.421875 5.078125 32.421875 5.90625 
L 22.3125 20.90625 
L 19 17.828125 
L 19 5.078125 
L 25.78125 5.078125 
L 25.78125 0 
z
" id="Cmb10-6b"/>
      <path d="M 5.078125 1.703125 
Q 5.078125 3.171875 6.390625 4.5 
L 34.515625 32.078125 
L 24.609375 59.90625 
Q 23.4375 63.09375 22.140625 64.9375 
Q 20.84375 66.796875 18.40625 66.796875 
Q 17.28125 66.796875 17.28125 68.109375 
Q 17.390625 68.703125 17.78125 69.046875 
Q 18.171875 69.390625 18.796875 69.390625 
Q 29.296875 69.390625 31.5 63.1875 
L 51.8125 6.5 
Q 53.125 2.25 54.5 0.78125 
Q 54.984375 0.046875 54.984375 -0.203125 
Q 54.984375 -1.125 54.203125 -1.125 
L 48.78125 -1.125 
Q 46.296875 -0.390625 44.828125 3.21875 
L 35.6875 28.8125 
L 11.53125 0.390625 
Q 9.71875 -1.3125 8.296875 -1.3125 
Q 7.03125 -1.3125 6.046875 -0.4375 
Q 5.078125 0.4375 5.078125 1.703125 
" id="Cmmi10-b8"/>
     </defs>
     <g transform="translate(283.4453125 404.56359375)scale(0.16 -0.16)">
      <use xlink:href="#Cmmi10-b8"/>
      <use transform="translate(58.30078125 -17.006249999999994)scale(0.7)" xlink:href="#Cmb10-6b"/>
      <use transform="translate(101.5580078125 0.0)" xlink:href="#Cmmi10-3d"/>
      <use transform="translate(151.5580078125 0.0)" xlink:href="#Cmr10-a2"/>
      <use transform="translate(239.3229296875 -17.006249999999994)scale(0.7)" xlink:href="#Cmr10-30"/>
     </g>
    </g>
   </g>
   <g id="matplotlib.axis_3">
    <g id="ytick_5">
     <g id="line2d_31">
      <g>
       <use style="stroke:#000000;stroke-width:0.5;" x="67.985" xlink:href="#m2ecec2d79d" y="368.07859375"/>
      </g>
     </g>
     <g id="line2d_32">
      <g>
       <use style="stroke:#000000;stroke-width:0.5;" x="543.865625" xlink:href="#m91d844aefc" y="368.07859375"/>
      </g>
     </g>
     <g id="text_15">
      <!-- 0.00 -->
      <g transform="translate(28.36 372.49359375)scale(0.16 -0.16)">
       <use xlink:href="#BitstreamVeraSans-Roman-30"/>
       <use x="63.623046875" xlink:href="#BitstreamVeraSans-Roman-2e"/>
       <use x="95.41015625" xlink:href="#BitstreamVeraSans-Roman-30"/>
       <use x="159.033203125" xlink:href="#BitstreamVeraSans-Roman-30"/>
      </g>
     </g>
    </g>
    <g id="ytick_6">
     <g id="line2d_33">
      <g>
       <use style="stroke:#000000;stroke-width:0.5;" x="67.985" xlink:href="#m2ecec2d79d" y="327.838574219"/>
      </g>
     </g>
     <g id="line2d_34">
      <g>
       <use style="stroke:#000000;stroke-width:0.5;" x="543.865625" xlink:href="#m91d844aefc" y="327.838574219"/>
      </g>
     </g>
     <g id="text_16">
      <!-- 0.05 -->
      <g transform="translate(28.36 332.253574219)scale(0.16 -0.16)">
       <use xlink:href="#BitstreamVeraSans-Roman-30"/>
       <use x="63.623046875" xlink:href="#BitstreamVeraSans-Roman-2e"/>
       <use x="95.41015625" xlink:href="#BitstreamVeraSans-Roman-30"/>
       <use x="159.033203125" xlink:href="#BitstreamVeraSans-Roman-35"/>
      </g>
     </g>
    </g>
    <g id="ytick_7">
     <g id="line2d_35">
      <g>
       <use style="stroke:#000000;stroke-width:0.5;" x="67.985" xlink:href="#m2ecec2d79d" y="287.598554687"/>
      </g>
     </g>
     <g id="line2d_36">
      <g>
       <use style="stroke:#000000;stroke-width:0.5;" x="543.865625" xlink:href="#m91d844aefc" y="287.598554687"/>
      </g>
     </g>
     <g id="text_17">
      <!-- 0.10 -->
      <g transform="translate(28.36 292.013554687)scale(0.16 -0.16)">
       <use xlink:href="#BitstreamVeraSans-Roman-30"/>
       <use x="63.623046875" xlink:href="#BitstreamVeraSans-Roman-2e"/>
       <use x="95.41015625" xlink:href="#BitstreamVeraSans-Roman-31"/>
       <use x="159.033203125" xlink:href="#BitstreamVeraSans-Roman-30"/>
      </g>
     </g>
    </g>
    <g id="ytick_8">
     <g id="line2d_37">
      <g>
       <use style="stroke:#000000;stroke-width:0.5;" x="67.985" xlink:href="#m2ecec2d79d" y="247.358535156"/>
      </g>
     </g>
     <g id="line2d_38">
      <g>
       <use style="stroke:#000000;stroke-width:0.5;" x="543.865625" xlink:href="#m91d844aefc" y="247.358535156"/>
      </g>
     </g>
     <g id="text_18">
      <!-- 0.15 -->
      <g transform="translate(28.36 251.773535156)scale(0.16 -0.16)">
       <use xlink:href="#BitstreamVeraSans-Roman-30"/>
       <use x="63.623046875" xlink:href="#BitstreamVeraSans-Roman-2e"/>
       <use x="95.41015625" xlink:href="#BitstreamVeraSans-Roman-31"/>
       <use x="159.033203125" xlink:href="#BitstreamVeraSans-Roman-35"/>
      </g>
     </g>
    </g>
    <g id="ytick_9">
     <g id="line2d_39">
      <g>
       <use style="stroke:#000000;stroke-width:0.5;" x="67.985" xlink:href="#m2ecec2d79d" y="207.118515625"/>
      </g>
     </g>
     <g id="line2d_40">
      <g>
       <use style="stroke:#000000;stroke-width:0.5;" x="543.865625" xlink:href="#m91d844aefc" y="207.118515625"/>
      </g>
     </g>
     <g id="text_19">
      <!-- 0.20 -->
      <g transform="translate(28.36 211.533515625)scale(0.16 -0.16)">
       <use xlink:href="#BitstreamVeraSans-Roman-30"/>
       <use x="63.623046875" xlink:href="#BitstreamVeraSans-Roman-2e"/>
       <use x="95.41015625" xlink:href="#BitstreamVeraSans-Roman-32"/>
       <use x="159.033203125" xlink:href="#BitstreamVeraSans-Roman-30"/>
      </g>
     </g>
    </g>
    <g id="text_20">
     <!-- $\left( c / ℏ \right) \left|P_-\right|$ ($\mathregular{GeV}$) -->
     <defs>
      <path d="M 10.203125 23 
Q 9.375 23 8.828125 23.625 
Q 8.296875 24.265625 8.296875 25 
Q 8.296875 25.734375 8.828125 26.359375 
Q 9.375 27 10.203125 27 
L 67.578125 27 
Q 68.359375 27 68.875 26.359375 
Q 69.390625 25.734375 69.390625 25 
Q 69.390625 24.265625 68.875 23.625 
Q 68.359375 23 67.578125 23 
z
" id="Cmsy10-a1"/>
     </defs>
     <g transform="translate(19.36 347.038554687)rotate(-90.0)scale(0.16 -0.16)">
      <use transform="translate(0.0 0.125)" xlink:href="#Cmr10-28"/>
      <use transform="translate(38.818359375 0.125)" xlink:href="#Cmmi10-63"/>
      <use transform="translate(82.03125 0.125)" xlink:href="#Cmmi10-3d"/>
      <use transform="translate(132.03125 0.125)" xlink:href="#STIXGeneral-Regular-210f"/>
      <use transform="translate(189.93124389648438 0.125)" xlink:href="#Cmr10-29"/>
      <use transform="translate(228.74960327148438 4.446875000000006)scale(0.8531875)" xlink:href="#Cmsy10-6a"/>
      <use transform="translate(252.36883544921875 0.125)" xlink:href="#Cmmi10-50"/>
      <use transform="translate(328.86883544921875 -16.881249999999994)scale(0.7)" xlink:href="#Cmsy10-a1"/>
      <use transform="translate(401.9170776367188 4.446875000000006)scale(0.8531875)" xlink:href="#Cmsy10-6a"/>
      <use transform="translate(425.53630981445315 0.125)" xlink:href="#BitstreamVeraSans-Roman-20"/>
      <use transform="translate(457.32341918945315 0.125)" xlink:href="#BitstreamVeraSans-Roman-28"/>
      <use transform="translate(496.33709106445315 0.125)" xlink:href="#BitstreamVeraSans-Roman-47"/>
      <use transform="translate(573.8273254394531 0.125)" xlink:href="#BitstreamVeraSans-Roman-65"/>
      <use transform="translate(635.3507629394531 0.125)" xlink:href="#BitstreamVeraSans-Roman-56"/>
      <use transform="translate(703.7589660644531 0.125)" xlink:href="#BitstreamVeraSans-Roman-29"/>
     </g>
    </g>
   </g>
  </g>
 </g>
 <defs>
  <clipPath id="p57f032d904">
   <rect height="160.960078125" width="475.880625" x="67.985" y="207.118515625"/>
  </clipPath>
  <clipPath id="p7d6135a138">
   <rect height="160.960078125" width="475.880625" x="67.985" y="14.9425"/>
  </clipPath>
 </defs>
</svg>
