<?xml version="1.0" encoding="utf-8" standalone="no"?>
<!DOCTYPE svg PUBLIC "-//W3C//DTD SVG 1.1//EN"
  "http://www.w3.org/Graphics/SVG/1.1/DTD/svg11.dtd">
<!-- Created with matplotlib (http://matplotlib.org/) -->
<svg height="432pt" version="1.1" viewBox="0 0 576 432" width="576pt" xmlns="http://www.w3.org/2000/svg" xmlns:xlink="http://www.w3.org/1999/xlink">
 <defs>
  <style type="text/css">
*{stroke-linecap:butt;stroke-linejoin:round;stroke-miterlimit:100000;}
  </style>
 </defs>
 <g id="figure_1">
  <g id="patch_1">
   <path d="M 0 432 
L 576 432 
L 576 0 
L 0 0 
L 0 432 
z
" style="fill:none;"/>
  </g>
  <g id="axes_1">
   <g id="patch_2">
    <path d="M 72 207.771429 
L 518.4 207.771429 
L 518.4 43.2 
L 72 43.2 
L 72 207.771429 
z
" style="fill:none;"/>
   </g>
   <g id="line2d_1">
    <path clip-path="url(#p4923f43426)" d="M 72 84.169286 
L 76.509091 84.307442 
L 81.018182 84.445462 
L 85.527273 84.583386 
L 90.036364 84.721257 
L 94.545455 84.859125 
L 99.054545 84.997044 
L 103.563636 85.135072 
L 108.072727 85.273278 
L 112.581818 85.411735 
L 117.090909 85.550528 
L 121.6 85.68975 
L 126.109091 85.829508 
L 130.618182 85.969923 
L 135.127273 86.111132 
L 139.636364 86.253294 
L 144.145455 86.396588 
L 148.654545 86.541224 
L 153.163636 86.687444 
L 157.672727 86.83553 
L 162.181818 86.985813 
L 166.690909 87.138683 
L 171.2 87.294602 
L 175.709091 87.454122 
L 180.218182 87.617908 
L 184.727273 87.786762 
L 189.236364 87.961665 
L 193.745455 88.143828 
L 198.254545 88.334752 
L 202.763636 88.536327 
L 207.272727 88.750958 
L 211.781818 88.981738 
L 216.290909 89.232716 
L 220.8 89.509264 
L 225.309091 89.818656 
L 229.818182 90.170943 
L 234.327273 90.580362 
L 238.836364 91.067675 
L 243.345455 91.66424 
L 247.854545 92.419506 
L 252.363636 93.415877 
L 256.872727 94.801216 
L 261.381818 96.870779 
L 265.890909 100.327681 
L 270.4 107.651309 
M 320 145.017239 
L 324.509091 158.125432 
L 329.018182 165.976267 
L 333.527273 171.483036 
L 338.036364 175.624425 
L 342.545455 178.875064 
L 347.054545 181.504214 
L 351.563636 183.679327 
L 356.072727 185.511214 
L 360.581818 187.076629 
L 365.090909 188.430646 
L 369.6 189.613929 
L 374.109091 190.657213 
L 378.618182 191.584194 
L 383.127273 192.413456 
L 387.636364 193.159791 
L 392.145455 193.835128 
L 396.654545 194.449194 
L 401.163636 195.010009 
L 405.672727 195.524242 
L 410.181818 195.997489 
L 414.690909 196.434478 
L 419.2 196.839234 
L 423.709091 197.215207 
L 428.218182 197.565367 
L 432.727273 197.89229 
L 437.236364 198.198218 
L 441.745455 198.485111 
L 446.254545 198.754695 
L 450.763636 199.00849 
L 455.272727 199.247845 
L 459.781818 199.473957 
L 464.290909 199.687895 
L 468.8 199.890616 
L 473.309091 200.082979 
L 477.818182 200.265756 
L 482.327273 200.439645 
L 486.836364 200.605278 
L 491.345455 200.763228 
L 495.854545 200.914016 
L 500.363636 201.058117 
L 504.872727 201.195964 
L 509.381818 201.327955 
L 513.890909 201.454453 
L 518.4 201.575793 
" style="fill:none;stroke:#000000;stroke-linecap:square;stroke-width:2.0;"/>
   </g>
   <g id="line2d_2">
    <path clip-path="url(#p4923f43426)" d="M 72 45.298759 
L 76.509091 45.429502 
L 81.018182 45.560405 
L 85.527273 45.691517 
L 90.036364 45.822893 
L 94.545455 45.954596 
L 99.054545 46.086693 
L 103.563636 46.21926 
L 108.072727 46.352383 
L 112.581818 46.486157 
L 117.090909 46.620689 
L 121.6 46.756101 
L 126.109091 46.892531 
L 130.618182 47.030136 
L 135.127273 47.169094 
L 139.636364 47.30961 
L 144.145455 47.451921 
L 148.654545 47.5963 
L 153.163636 47.743063 
L 157.672727 47.892581 
L 162.181818 48.045288 
L 166.690909 48.201697 
L 171.2 48.362417 
L 175.709091 48.528174 
L 180.218182 48.699843 
L 184.727273 48.878486 
L 189.236364 49.065396 
L 193.745455 49.262172 
L 198.254545 49.470801 
L 202.763636 49.693781 
L 207.272727 49.934293 
L 211.781818 50.196435 
L 216.290909 50.485567 
L 220.8 50.808808 
L 225.309091 51.175799 
L 229.818182 51.599867 
L 234.327273 52.099894 
L 238.836364 52.703431 
L 243.345455 53.452096 
L 247.854545 54.41154 
L 252.363636 55.691201 
L 256.872727 57.487509 
L 261.381818 60.192807 
L 265.890909 64.741652 
L 270.4 74.430243 
M 320 124.194639 
L 324.509091 141.682373 
L 329.018182 152.153428 
L 333.527273 159.497094 
L 338.036364 165.019471 
L 342.545455 169.353835 
L 347.054545 172.859386 
L 351.563636 175.759485 
L 356.072727 178.201925 
L 360.581818 180.289065 
L 365.090909 182.094355 
L 369.6 183.672016 
L 374.109091 185.063032 
L 378.618182 186.298998 
L 383.127273 187.404693 
L 387.636364 188.399841 
L 392.145455 189.300342 
L 396.654545 190.119169 
L 401.163636 190.867011 
L 405.672727 191.552761 
L 410.181818 192.183876 
L 414.690909 192.766663 
L 419.2 193.306487 
L 423.709091 193.807944 
L 428.218182 194.274997 
L 432.727273 194.711078 
L 437.236364 195.119175 
L 441.745455 195.501903 
L 446.254545 195.861561 
L 450.763636 196.200176 
L 455.272727 196.519545 
L 459.781818 196.821266 
L 464.290909 197.106762 
L 468.8 197.377309 
L 473.309091 197.634051 
L 477.818182 197.87802 
L 482.327273 198.110144 
L 486.836364 198.331266 
L 491.345455 198.54215 
L 495.854545 198.74349 
L 500.363636 198.935919 
L 504.872727 199.120015 
L 509.381818 199.296308 
L 513.890909 199.465282 
L 518.4 199.627384 
" style="fill:none;stroke:#000000;stroke-dasharray:6.000000,6.000000;stroke-dashoffset:0.0;stroke-width:2.0;"/>
   </g>
   <g id="line2d_3">
    <path clip-path="url(#p4923f43426)" d="M 72 64.313001 
L 76.509091 64.43706 
L 81.018182 64.561193 
L 85.527273 64.685445 
L 90.036364 64.809865 
L 94.545455 64.934508 
L 99.054545 65.059433 
L 103.563636 65.18471 
L 108.072727 65.310414 
L 112.581818 65.436629 
L 117.090909 65.563451 
L 121.6 65.690988 
L 126.109091 65.819361 
L 130.618182 65.94871 
L 135.127273 66.079193 
L 139.636364 66.210992 
L 144.145455 66.344314 
L 148.654545 66.479402 
L 153.163636 66.616536 
L 157.672727 66.756043 
L 162.181818 66.898306 
L 166.690909 67.043778 
L 171.2 67.192997 
L 175.709091 67.346604 
L 180.218182 67.505371 
L 184.727273 67.670235 
L 189.236364 67.842337 
L 193.745455 68.023087 
L 198.254545 68.214237 
L 202.763636 68.417992 
L 207.272727 68.637157 
L 211.781818 68.875344 
L 216.290909 69.137279 
L 220.8 69.429241 
L 225.309091 69.759726 
L 229.818182 70.140484 
L 234.327273 70.588159 
L 238.836364 71.127034 
L 243.345455 71.79379 
L 247.854545 72.646287 
L 252.363636 73.780967 
L 256.872727 75.370929 
L 261.381818 77.761896 
L 265.890909 81.777338 
L 270.4 90.321544 
M 320 134.155132 
L 324.509091 149.553967 
L 329.018182 158.774696 
L 333.527273 165.241622 
L 338.036364 170.104767 
L 342.545455 173.921751 
L 347.054545 177.008873 
L 351.563636 179.562819 
L 356.072727 181.713734 
L 360.581818 183.551759 
L 365.090909 185.141572 
L 369.6 186.530923 
L 374.109091 187.755902 
L 378.618182 188.844335 
L 383.127273 189.818044 
L 387.636364 190.694395 
L 392.145455 191.487394 
L 396.654545 192.208464 
L 401.163636 192.867019 
L 405.672727 193.470889 
L 410.181818 194.026645 
L 414.690909 194.539838 
L 419.2 195.015193 
L 423.709091 195.45676 
L 428.218182 195.868027 
L 432.727273 196.252016 
L 437.236364 196.61136 
L 441.745455 196.948362 
L 446.254545 197.265045 
L 450.763636 197.563196 
L 455.272727 197.844397 
L 459.781818 198.110054 
L 464.290909 198.361422 
L 468.8 198.599624 
L 473.309091 198.825668 
L 477.818182 199.040462 
L 482.327273 199.244824 
L 486.836364 199.439496 
L 491.345455 199.625151 
L 495.854545 199.8024 
L 500.363636 199.971801 
L 504.872727 200.133863 
L 509.381818 200.289052 
L 513.890909 200.437795 
L 518.4 200.580485 
" style="fill:none;stroke:#000000;stroke-dasharray:1.000000,3.000000;stroke-dashoffset:0.0;stroke-width:2.0;"/>
   </g>
   <g id="patch_3">
    <path d="M 72 207.771429 
L 518.4 207.771429 
" style="fill:none;stroke:#000000;stroke-linecap:square;stroke-linejoin:miter;"/>
   </g>
   <g id="patch_4">
    <path d="M 72 207.771429 
L 72 43.2 
" style="fill:none;stroke:#000000;stroke-linecap:square;stroke-linejoin:miter;"/>
   </g>
   <g id="patch_5">
    <path d="M 518.4 207.771429 
L 518.4 43.2 
" style="fill:none;stroke:#000000;stroke-linecap:square;stroke-linejoin:miter;"/>
   </g>
   <g id="patch_6">
    <path d="M 72 43.2 
L 518.4 43.2 
" style="fill:none;stroke:#000000;stroke-linecap:square;stroke-linejoin:miter;"/>
   </g>
   <g id="matplotlib.axis_1">
    <g id="ytick_1">
     <g id="line2d_4">
      <defs>
       <path d="M 0 0 
L 4 0 
" id="m09f6d5587f" style="stroke:#000000;stroke-width:0.5;"/>
      </defs>
      <g>
       <use style="stroke:#000000;stroke-width:0.5;" x="72.0" xlink:href="#m09f6d5587f" y="207.771428571"/>
      </g>
     </g>
     <g id="line2d_5">
      <defs>
       <path d="M 0 0 
L -4 0 
" id="mf3eabb5e9b" style="stroke:#000000;stroke-width:0.5;"/>
      </defs>
      <g>
       <use style="stroke:#000000;stroke-width:0.5;" x="518.4" xlink:href="#mf3eabb5e9b" y="207.771428571"/>
      </g>
     </g>
     <g id="text_1">
      <!-- 0.0 -->
      <defs>
       <path d="M 10.6875 12.40625 
L 21 12.40625 
L 21 0 
L 10.6875 0 
z
" id="BitstreamVeraSans-Roman-2e"/>
       <path d="M 31.78125 66.40625 
Q 24.171875 66.40625 20.328125 58.90625 
Q 16.5 51.421875 16.5 36.375 
Q 16.5 21.390625 20.328125 13.890625 
Q 24.171875 6.390625 31.78125 6.390625 
Q 39.453125 6.390625 43.28125 13.890625 
Q 47.125 21.390625 47.125 36.375 
Q 47.125 51.421875 43.28125 58.90625 
Q 39.453125 66.40625 31.78125 66.40625 
M 31.78125 74.21875 
Q 44.046875 74.21875 50.515625 64.515625 
Q 56.984375 54.828125 56.984375 36.375 
Q 56.984375 17.96875 50.515625 8.265625 
Q 44.046875 -1.421875 31.78125 -1.421875 
Q 19.53125 -1.421875 13.0625 8.265625 
Q 6.59375 17.96875 6.59375 36.375 
Q 6.59375 54.828125 13.0625 64.515625 
Q 19.53125 74.21875 31.78125 74.21875 
" id="BitstreamVeraSans-Roman-30"/>
      </defs>
      <g transform="translate(42.555 212.186428571)scale(0.16 -0.16)">
       <use xlink:href="#BitstreamVeraSans-Roman-30"/>
       <use x="63.623046875" xlink:href="#BitstreamVeraSans-Roman-2e"/>
       <use x="95.41015625" xlink:href="#BitstreamVeraSans-Roman-30"/>
      </g>
     </g>
    </g>
    <g id="ytick_2">
     <g id="line2d_6">
      <g>
       <use style="stroke:#000000;stroke-width:0.5;" x="72.0" xlink:href="#m09f6d5587f" y="152.914285714"/>
      </g>
     </g>
     <g id="line2d_7">
      <g>
       <use style="stroke:#000000;stroke-width:0.5;" x="518.4" xlink:href="#mf3eabb5e9b" y="152.914285714"/>
      </g>
     </g>
     <g id="text_2">
      <!-- 0.5 -->
      <defs>
       <path d="M 10.796875 72.90625 
L 49.515625 72.90625 
L 49.515625 64.59375 
L 19.828125 64.59375 
L 19.828125 46.734375 
Q 21.96875 47.46875 24.109375 47.828125 
Q 26.265625 48.1875 28.421875 48.1875 
Q 40.625 48.1875 47.75 41.5 
Q 54.890625 34.8125 54.890625 23.390625 
Q 54.890625 11.625 47.5625 5.09375 
Q 40.234375 -1.421875 26.90625 -1.421875 
Q 22.3125 -1.421875 17.546875 -0.640625 
Q 12.796875 0.140625 7.71875 1.703125 
L 7.71875 11.625 
Q 12.109375 9.234375 16.796875 8.0625 
Q 21.484375 6.890625 26.703125 6.890625 
Q 35.15625 6.890625 40.078125 11.328125 
Q 45.015625 15.765625 45.015625 23.390625 
Q 45.015625 31 40.078125 35.4375 
Q 35.15625 39.890625 26.703125 39.890625 
Q 22.75 39.890625 18.8125 39.015625 
Q 14.890625 38.140625 10.796875 36.28125 
z
" id="BitstreamVeraSans-Roman-35"/>
      </defs>
      <g transform="translate(42.555 157.329285714)scale(0.16 -0.16)">
       <use xlink:href="#BitstreamVeraSans-Roman-30"/>
       <use x="63.623046875" xlink:href="#BitstreamVeraSans-Roman-2e"/>
       <use x="95.41015625" xlink:href="#BitstreamVeraSans-Roman-35"/>
      </g>
     </g>
    </g>
    <g id="ytick_3">
     <g id="line2d_8">
      <g>
       <use style="stroke:#000000;stroke-width:0.5;" x="72.0" xlink:href="#m09f6d5587f" y="98.0571428571"/>
      </g>
     </g>
     <g id="line2d_9">
      <g>
       <use style="stroke:#000000;stroke-width:0.5;" x="518.4" xlink:href="#mf3eabb5e9b" y="98.0571428571"/>
      </g>
     </g>
     <g id="text_3">
      <!-- 1.0 -->
      <defs>
       <path d="M 12.40625 8.296875 
L 28.515625 8.296875 
L 28.515625 63.921875 
L 10.984375 60.40625 
L 10.984375 69.390625 
L 28.421875 72.90625 
L 38.28125 72.90625 
L 38.28125 8.296875 
L 54.390625 8.296875 
L 54.390625 0 
L 12.40625 0 
z
" id="BitstreamVeraSans-Roman-31"/>
      </defs>
      <g transform="translate(42.555 102.472142857)scale(0.16 -0.16)">
       <use xlink:href="#BitstreamVeraSans-Roman-31"/>
       <use x="63.623046875" xlink:href="#BitstreamVeraSans-Roman-2e"/>
       <use x="95.41015625" xlink:href="#BitstreamVeraSans-Roman-30"/>
      </g>
     </g>
    </g>
    <g id="ytick_4">
     <g id="line2d_10">
      <g>
       <use style="stroke:#000000;stroke-width:0.5;" x="72.0" xlink:href="#m09f6d5587f" y="43.2"/>
      </g>
     </g>
     <g id="line2d_11">
      <g>
       <use style="stroke:#000000;stroke-width:0.5;" x="518.4" xlink:href="#mf3eabb5e9b" y="43.2"/>
      </g>
     </g>
     <g id="text_4">
      <!-- 1.5 -->
      <g transform="translate(42.555 47.615)scale(0.16 -0.16)">
       <use xlink:href="#BitstreamVeraSans-Roman-31"/>
       <use x="63.623046875" xlink:href="#BitstreamVeraSans-Roman-2e"/>
       <use x="95.41015625" xlink:href="#BitstreamVeraSans-Roman-35"/>
      </g>
     </g>
    </g>
    <g id="text_5">
     <!-- $\left( c / ℏ \right) \left|P_+\right|$ ($\mathregular{GeV}$) -->
     <defs>
      <path d="M 56.203125 29.59375 
L 56.203125 25.203125 
L 14.890625 25.203125 
Q 15.484375 15.921875 20.484375 11.0625 
Q 25.484375 6.203125 34.421875 6.203125 
Q 39.59375 6.203125 44.453125 7.46875 
Q 49.3125 8.734375 54.109375 11.28125 
L 54.109375 2.78125 
Q 49.265625 0.734375 44.1875 -0.34375 
Q 39.109375 -1.421875 33.890625 -1.421875 
Q 20.796875 -1.421875 13.15625 6.1875 
Q 5.515625 13.8125 5.515625 26.8125 
Q 5.515625 40.234375 12.765625 48.109375 
Q 20.015625 56 32.328125 56 
Q 43.359375 56 49.78125 48.890625 
Q 56.203125 41.796875 56.203125 29.59375 
M 47.21875 32.234375 
Q 47.125 39.59375 43.09375 43.984375 
Q 39.0625 48.390625 32.421875 48.390625 
Q 24.90625 48.390625 20.390625 44.140625 
Q 15.875 39.890625 15.1875 32.171875 
z
" id="BitstreamVeraSans-Roman-65"/>
      <path d="M 31 -24.8125 
Q 25.4375 -20.40625 21.40625 -14.71875 
Q 17.390625 -9.03125 14.8125 -2.578125 
Q 12.25 3.859375 10.984375 10.890625 
Q 9.71875 17.921875 9.71875 25 
Q 9.71875 32.171875 10.984375 39.203125 
Q 12.25 46.234375 14.859375 52.734375 
Q 17.484375 59.234375 21.53125 64.890625 
Q 25.59375 70.5625 31 74.8125 
Q 31 75 31.5 75 
L 32.421875 75 
Q 32.71875 75 32.953125 74.734375 
Q 33.203125 74.46875 33.203125 74.125 
Q 33.203125 73.6875 33.015625 73.484375 
Q 28.125 68.703125 24.875 63.234375 
Q 21.625 57.765625 19.640625 51.578125 
Q 17.671875 45.40625 16.796875 38.78125 
Q 15.921875 32.171875 15.921875 25 
Q 15.921875 -6.78125 32.90625 -23.296875 
Q 33.203125 -23.578125 33.203125 -24.125 
Q 33.203125 -24.359375 32.9375 -24.671875 
Q 32.671875 -25 32.421875 -25 
L 31.5 -25 
Q 31 -25 31 -24.8125 
" id="Cmr10-28"/>
      <path id="BitstreamVeraSans-Roman-20"/>
      <path d="M 28.609375 0 
L 0.78125 72.90625 
L 11.078125 72.90625 
L 34.1875 11.53125 
L 57.328125 72.90625 
L 67.578125 72.90625 
L 39.796875 0 
z
" id="BitstreamVeraSans-Roman-56"/>
      <path d="M 11.921875 -23.1875 
L 11.921875 73.1875 
Q 11.921875 73.96875 12.5 74.484375 
Q 13.09375 75 13.921875 75 
Q 14.65625 75 15.28125 74.484375 
Q 15.921875 73.96875 15.921875 73.1875 
L 15.921875 -23.1875 
Q 15.921875 -23.96875 15.28125 -24.484375 
Q 14.65625 -25 13.921875 -25 
Q 13.09375 -25 12.5 -24.484375 
Q 11.921875 -23.96875 11.921875 -23.1875 
" id="Cmsy10-6a"/>
      <path d="M 7.515625 23 
Q 6.6875 23 6.140625 23.625 
Q 5.609375 24.265625 5.609375 25 
Q 5.609375 25.734375 6.140625 26.359375 
Q 6.6875 27 7.515625 27 
L 36.921875 27 
L 36.921875 56.5 
Q 36.921875 57.28125 37.5 57.78125 
Q 38.09375 58.296875 38.921875 58.296875 
Q 39.65625 58.296875 40.28125 57.78125 
Q 40.921875 57.28125 40.921875 56.5 
L 40.921875 27 
L 70.3125 27 
Q 71.046875 27 71.578125 26.359375 
Q 72.125 25.734375 72.125 25 
Q 72.125 24.265625 71.578125 23.625 
Q 71.046875 23 70.3125 23 
L 40.921875 23 
L 40.921875 -6.5 
Q 40.921875 -7.28125 40.28125 -7.78125 
Q 39.65625 -8.296875 38.921875 -8.296875 
Q 38.09375 -8.296875 37.5 -7.78125 
Q 36.921875 -7.28125 36.921875 -6.5 
L 36.921875 23 
z
" id="Cmr10-2b"/>
      <path d="M 11.71875 11.921875 
Q 11.71875 7.5625 13.9375 4.53125 
Q 16.15625 1.515625 20.3125 1.515625 
Q 26.265625 1.515625 31.75 4.25 
Q 37.25 6.984375 40.71875 11.8125 
Q 41.015625 12.109375 41.5 12.109375 
Q 42 12.109375 42.5 11.546875 
Q 43.015625 10.984375 43.015625 10.5 
Q 43.015625 10.109375 42.828125 9.90625 
Q 39.15625 4.78125 32.953125 1.828125 
Q 26.765625 -1.125 20.125 -1.125 
Q 15.328125 -1.125 11.671875 1.140625 
Q 8.015625 3.421875 6 7.21875 
Q 4 11.03125 4 15.828125 
Q 4 22.5625 7.765625 29.203125 
Q 11.53125 35.84375 17.78125 40.015625 
Q 24.03125 44.1875 30.90625 44.1875 
Q 35.40625 44.1875 38.984375 42.015625 
Q 42.578125 39.84375 42.578125 35.59375 
Q 42.578125 32.859375 40.984375 30.921875 
Q 39.40625 29 36.71875 29 
Q 35.109375 29 34 30 
Q 32.90625 31 32.90625 32.625 
Q 32.90625 34.96875 34.609375 36.625 
Q 36.328125 38.28125 38.625 38.28125 
L 38.8125 38.28125 
Q 37.640625 39.984375 35.421875 40.796875 
Q 33.203125 41.609375 30.8125 41.609375 
Q 24.953125 41.609375 20.546875 36.59375 
Q 16.15625 31.59375 13.9375 24.625 
Q 11.71875 17.671875 11.71875 11.921875 
" id="Cmmi10-63"/>
      <path d="M 53.203125 11.703125 
L 54.703125 10.703125 
Q 46.796875 -1 39.796875 -1 
Q 34.5 -1 34.5 4.59375 
Q 34.5 6.703125 36.90625 15.59375 
L 40.90625 30 
Q 41.796875 33.40625 41.796875 36.203125 
Q 41.796875 40.59375 38.09375 40.59375 
Q 35.703125 40.59375 32 37.046875 
Q 28.296875 33.5 24.09375 27.296875 
Q 20.703125 22.296875 18.5 16.890625 
Q 16.296875 11.5 13.09375 0 
L 4.703125 0 
L 17.40625 46.90625 
L 8 43.5 
L 8.90625 47.796875 
L 18.59375 51.296875 
L 20.5 57.296875 
Q 20.90625 58.5 20.90625 60.203125 
Q 20.90625 62.40625 15.203125 62.40625 
L 15.203125 63.90625 
Q 23.5 65.59375 30.90625 68.296875 
L 31.703125 68.09375 
Q 30.59375 64.796875 29.09375 59.296875 
L 27.796875 54.703125 
L 42.203125 60 
L 41 55.59375 
L 26.59375 50.40625 
L 19.59375 24.59375 
L 19.703125 24.59375 
Q 30.703125 46 41.59375 46 
Q 50.40625 46 50.40625 37.203125 
Q 50.40625 33.796875 49.296875 30.09375 
L 44.203125 12.203125 
Q 43.09375 8.5 43.09375 6.703125 
Q 43.09375 5 44.40625 5 
Q 47.5 5 53.203125 11.703125 
" id="STIXGeneral-Regular-210f"/>
      <path d="M 4.890625 0 
Q 3.90625 0 3.90625 1.3125 
Q 3.953125 1.5625 4.09375 2.171875 
Q 4.25 2.78125 4.515625 3.140625 
Q 4.78125 3.515625 5.171875 3.515625 
Q 11.28125 3.515625 13.71875 4.203125 
Q 14.984375 4.640625 15.578125 6.890625 
L 29.296875 61.8125 
Q 29.5 62.796875 29.5 63.1875 
Q 29.5 64.265625 28.328125 64.40625 
Q 26.421875 64.796875 21.09375 64.796875 
Q 20.125 64.796875 20.125 66.109375 
Q 20.171875 66.359375 20.3125 66.96875 
Q 20.453125 67.578125 20.71875 67.9375 
Q 21 68.3125 21.390625 68.3125 
L 55.90625 68.3125 
Q 60.640625 68.3125 65.078125 66.625 
Q 69.53125 64.9375 72.359375 61.46875 
Q 75.203125 58.015625 75.203125 53.078125 
Q 75.203125 46.734375 70.734375 41.75 
Q 66.265625 36.765625 59.59375 33.984375 
Q 52.9375 31.203125 46.6875 31.203125 
L 30.421875 31.203125 
L 24.3125 6.5 
Q 24.125 5.515625 24.125 5.078125 
Q 24.125 4.6875 24.234375 4.421875 
Q 24.359375 4.15625 24.578125 4.078125 
Q 24.8125 4 25.296875 3.90625 
Q 27.203125 3.515625 32.515625 3.515625 
Q 33.5 3.515625 33.5 2.203125 
Q 33.15625 0.78125 32.953125 0.390625 
Q 32.765625 0 31.78125 0 
z
M 30.90625 34.1875 
L 44.921875 34.1875 
Q 54.640625 34.1875 59.71875 39.40625 
Q 62.3125 42 63.9375 46.875 
Q 65.578125 51.765625 65.578125 55.71875 
Q 65.578125 60.640625 61.8125 62.71875 
Q 58.0625 64.796875 52.484375 64.796875 
L 42.921875 64.796875 
Q 40.1875 64.796875 39.296875 64.328125 
Q 38.421875 63.875 37.703125 61.375 
z
" id="Cmmi10-50"/>
      <path d="M 59.515625 10.40625 
L 59.515625 29.984375 
L 43.40625 29.984375 
L 43.40625 38.09375 
L 69.28125 38.09375 
L 69.28125 6.78125 
Q 63.578125 2.734375 56.6875 0.65625 
Q 49.8125 -1.421875 42 -1.421875 
Q 24.90625 -1.421875 15.25 8.5625 
Q 5.609375 18.5625 5.609375 36.375 
Q 5.609375 54.25 15.25 64.234375 
Q 24.90625 74.21875 42 74.21875 
Q 49.125 74.21875 55.546875 72.453125 
Q 61.96875 70.703125 67.390625 67.28125 
L 67.390625 56.78125 
Q 61.921875 61.421875 55.765625 63.765625 
Q 49.609375 66.109375 42.828125 66.109375 
Q 29.4375 66.109375 22.71875 58.640625 
Q 16.015625 51.171875 16.015625 36.375 
Q 16.015625 21.625 22.71875 14.15625 
Q 29.4375 6.6875 42.828125 6.6875 
Q 48.046875 6.6875 52.140625 7.59375 
Q 56.25 8.5 59.515625 10.40625 
" id="BitstreamVeraSans-Roman-47"/>
      <path d="M 8.015625 75.875 
L 15.828125 75.875 
Q 23.140625 64.359375 26.78125 53.3125 
Q 30.421875 42.28125 30.421875 31.390625 
Q 30.421875 20.453125 26.78125 9.375 
Q 23.140625 -1.703125 15.828125 -13.1875 
L 8.015625 -13.1875 
Q 14.5 -2 17.703125 9.0625 
Q 20.90625 20.125 20.90625 31.390625 
Q 20.90625 42.671875 17.703125 53.65625 
Q 14.5 64.65625 8.015625 75.875 
" id="BitstreamVeraSans-Roman-29"/>
      <path d="M 31 75.875 
Q 24.46875 64.65625 21.28125 53.65625 
Q 18.109375 42.671875 18.109375 31.390625 
Q 18.109375 20.125 21.3125 9.0625 
Q 24.515625 -2 31 -13.1875 
L 23.1875 -13.1875 
Q 15.875 -1.703125 12.234375 9.375 
Q 8.59375 20.453125 8.59375 31.390625 
Q 8.59375 42.28125 12.203125 53.3125 
Q 15.828125 64.359375 23.1875 75.875 
z
" id="BitstreamVeraSans-Roman-28"/>
      <path d="M 5.609375 -23 
Q 5.609375 -22.703125 5.71875 -22.609375 
L 40.484375 73.78125 
Q 40.671875 74.359375 41.15625 74.671875 
Q 41.65625 75 42.28125 75 
Q 43.171875 75 43.71875 74.453125 
Q 44.28125 73.921875 44.28125 73 
L 44.28125 72.609375 
L 9.515625 -23.78125 
Q 8.9375 -25 7.625 -25 
Q 6.78125 -25 6.1875 -24.40625 
Q 5.609375 -23.828125 5.609375 -23 
" id="Cmmi10-3d"/>
      <path d="M 6.5 -25 
Q 5.609375 -25 5.609375 -24.125 
Q 5.609375 -23.6875 5.8125 -23.484375 
Q 22.90625 -6.78125 22.90625 25 
Q 22.90625 56.78125 6 73.296875 
Q 5.609375 73.53125 5.609375 74.125 
Q 5.609375 74.46875 5.875 74.734375 
Q 6.15625 75 6.5 75 
L 7.421875 75 
Q 7.71875 75 7.90625 74.8125 
Q 15.09375 69.140625 19.875 61.03125 
Q 24.65625 52.9375 26.875 43.75 
Q 29.109375 34.578125 29.109375 25 
Q 29.109375 17.921875 27.90625 11.0625 
Q 26.703125 4.203125 24.09375 -2.453125 
Q 21.484375 -9.125 17.484375 -14.765625 
Q 13.484375 -20.40625 7.90625 -24.8125 
Q 7.71875 -25 7.421875 -25 
z
" id="Cmr10-29"/>
     </defs>
     <g transform="translate(33.555 185.165714286)rotate(-90.0)scale(0.16 -0.16)">
      <use transform="translate(0.0 0.125)" xlink:href="#Cmr10-28"/>
      <use transform="translate(38.818359375 0.125)" xlink:href="#Cmmi10-63"/>
      <use transform="translate(82.03125 0.125)" xlink:href="#Cmmi10-3d"/>
      <use transform="translate(132.03125 0.125)" xlink:href="#STIXGeneral-Regular-210f"/>
      <use transform="translate(189.93124389648438 0.125)" xlink:href="#Cmr10-29"/>
      <use transform="translate(228.74960327148438 0.09218749999999432)scale(0.9112656250000001)" xlink:href="#Cmsy10-6a"/>
      <use transform="translate(253.97805786132812 0.125)" xlink:href="#Cmmi10-50"/>
      <use transform="translate(330.4780578613281 -16.881249999999994)scale(0.7)" xlink:href="#Cmr10-2b"/>
      <use transform="translate(403.52630004882815 0.09218749999999432)scale(0.9112656250000001)" xlink:href="#Cmsy10-6a"/>
      <use transform="translate(428.7547546386719 0.125)" xlink:href="#BitstreamVeraSans-Roman-20"/>
      <use transform="translate(460.5418640136719 0.125)" xlink:href="#BitstreamVeraSans-Roman-28"/>
      <use transform="translate(499.5555358886719 0.125)" xlink:href="#BitstreamVeraSans-Roman-47"/>
      <use transform="translate(577.0457702636719 0.125)" xlink:href="#BitstreamVeraSans-Roman-65"/>
      <use transform="translate(638.5692077636719 0.125)" xlink:href="#BitstreamVeraSans-Roman-56"/>
      <use transform="translate(706.9774108886719 0.125)" xlink:href="#BitstreamVeraSans-Roman-29"/>
     </g>
    </g>
   </g>
   <g id="legend_1">
    <g id="patch_7">
     <path d="M 375.68 147.36 
L 508.8 147.36 
L 508.8 52.8 
L 375.68 52.8 
z
" style="fill:#ffffff;stroke:#000000;stroke-linejoin:miter;"/>
    </g>
    <g id="line2d_12">
     <path d="M 389.12 68.76 
L 416 68.76 
" style="fill:none;stroke:#000000;stroke-linecap:square;stroke-width:2.0;"/>
    </g>
    <g id="line2d_13"/>
    <g id="text_6">
     <!-- $\mathregular{MoSe_2}$ -->
     <defs>
      <path d="M 53.515625 70.515625 
L 53.515625 60.890625 
Q 47.90625 63.578125 42.921875 64.890625 
Q 37.9375 66.21875 33.296875 66.21875 
Q 25.25 66.21875 20.875 63.09375 
Q 16.5 59.96875 16.5 54.203125 
Q 16.5 49.359375 19.40625 46.890625 
Q 22.3125 44.4375 30.421875 42.921875 
L 36.375 41.703125 
Q 47.40625 39.59375 52.65625 34.296875 
Q 57.90625 29 57.90625 20.125 
Q 57.90625 9.515625 50.796875 4.046875 
Q 43.703125 -1.421875 29.984375 -1.421875 
Q 24.8125 -1.421875 18.96875 -0.25 
Q 13.140625 0.921875 6.890625 3.21875 
L 6.890625 13.375 
Q 12.890625 10.015625 18.65625 8.296875 
Q 24.421875 6.59375 29.984375 6.59375 
Q 38.421875 6.59375 43.015625 9.90625 
Q 47.609375 13.234375 47.609375 19.390625 
Q 47.609375 24.75 44.3125 27.78125 
Q 41.015625 30.8125 33.5 32.328125 
L 27.484375 33.5 
Q 16.453125 35.6875 11.515625 40.375 
Q 6.59375 45.0625 6.59375 53.421875 
Q 6.59375 63.09375 13.40625 68.65625 
Q 20.21875 74.21875 32.171875 74.21875 
Q 37.3125 74.21875 42.625 73.28125 
Q 47.953125 72.359375 53.515625 70.515625 
" id="BitstreamVeraSans-Roman-53"/>
      <path d="M 19.1875 8.296875 
L 53.609375 8.296875 
L 53.609375 0 
L 7.328125 0 
L 7.328125 8.296875 
Q 12.9375 14.109375 22.625 23.890625 
Q 32.328125 33.6875 34.8125 36.53125 
Q 39.546875 41.84375 41.421875 45.53125 
Q 43.3125 49.21875 43.3125 52.78125 
Q 43.3125 58.59375 39.234375 62.25 
Q 35.15625 65.921875 28.609375 65.921875 
Q 23.96875 65.921875 18.8125 64.3125 
Q 13.671875 62.703125 7.8125 59.421875 
L 7.8125 69.390625 
Q 13.765625 71.78125 18.9375 73 
Q 24.125 74.21875 28.421875 74.21875 
Q 39.75 74.21875 46.484375 68.546875 
Q 53.21875 62.890625 53.21875 53.421875 
Q 53.21875 48.921875 51.53125 44.890625 
Q 49.859375 40.875 45.40625 35.40625 
Q 44.1875 33.984375 37.640625 27.21875 
Q 31.109375 20.453125 19.1875 8.296875 
" id="BitstreamVeraSans-Roman-32"/>
      <path d="M 30.609375 48.390625 
Q 23.390625 48.390625 19.1875 42.75 
Q 14.984375 37.109375 14.984375 27.296875 
Q 14.984375 17.484375 19.15625 11.84375 
Q 23.34375 6.203125 30.609375 6.203125 
Q 37.796875 6.203125 41.984375 11.859375 
Q 46.1875 17.53125 46.1875 27.296875 
Q 46.1875 37.015625 41.984375 42.703125 
Q 37.796875 48.390625 30.609375 48.390625 
M 30.609375 56 
Q 42.328125 56 49.015625 48.375 
Q 55.71875 40.765625 55.71875 27.296875 
Q 55.71875 13.875 49.015625 6.21875 
Q 42.328125 -1.421875 30.609375 -1.421875 
Q 18.84375 -1.421875 12.171875 6.21875 
Q 5.515625 13.875 5.515625 27.296875 
Q 5.515625 40.765625 12.171875 48.375 
Q 18.84375 56 30.609375 56 
" id="BitstreamVeraSans-Roman-6f"/>
      <path d="M 9.8125 72.90625 
L 24.515625 72.90625 
L 43.109375 23.296875 
L 61.8125 72.90625 
L 76.515625 72.90625 
L 76.515625 0 
L 66.890625 0 
L 66.890625 64.015625 
L 48.09375 14.015625 
L 38.1875 14.015625 
L 19.390625 64.015625 
L 19.390625 0 
L 9.8125 0 
z
" id="BitstreamVeraSans-Roman-4d"/>
     </defs>
     <g transform="translate(437.12 75.48)scale(0.192 -0.192)">
      <use transform="translate(0.0 0.78125)" xlink:href="#BitstreamVeraSans-Roman-4d"/>
      <use transform="translate(86.279296875 0.78125)" xlink:href="#BitstreamVeraSans-Roman-6f"/>
      <use transform="translate(147.4609375 0.78125)" xlink:href="#BitstreamVeraSans-Roman-53"/>
      <use transform="translate(210.9375 0.78125)" xlink:href="#BitstreamVeraSans-Roman-65"/>
      <use transform="translate(277.9734375 -20.21875)scale(0.7)" xlink:href="#BitstreamVeraSans-Roman-32"/>
     </g>
    </g>
    <g id="line2d_14">
     <path d="M 389.12 98.36 
L 416 98.36 
" style="fill:none;stroke:#000000;stroke-dasharray:6.000000,6.000000;stroke-dashoffset:0.0;stroke-width:2.0;"/>
    </g>
    <g id="line2d_15"/>
    <g id="text_7">
     <!-- $\mathregular{WS_2}$ -->
     <defs>
      <path d="M 3.328125 72.90625 
L 13.28125 72.90625 
L 28.609375 11.28125 
L 43.890625 72.90625 
L 54.984375 72.90625 
L 70.3125 11.28125 
L 85.59375 72.90625 
L 95.609375 72.90625 
L 77.296875 0 
L 64.890625 0 
L 49.515625 63.28125 
L 33.984375 0 
L 21.578125 0 
z
" id="BitstreamVeraSans-Roman-57"/>
     </defs>
     <g transform="translate(437.12 105.08)scale(0.192 -0.192)">
      <use transform="translate(0.0 0.78125)" xlink:href="#BitstreamVeraSans-Roman-57"/>
      <use transform="translate(98.876953125 0.78125)" xlink:href="#BitstreamVeraSans-Roman-53"/>
      <use transform="translate(167.866015625 -20.21875)scale(0.7)" xlink:href="#BitstreamVeraSans-Roman-32"/>
     </g>
    </g>
    <g id="line2d_16">
     <path d="M 389.12 127.96 
L 416 127.96 
" style="fill:none;stroke:#000000;stroke-dasharray:1.000000,3.000000;stroke-dashoffset:0.0;stroke-width:2.0;"/>
    </g>
    <g id="line2d_17"/>
    <g id="text_8">
     <!-- $\mathregular{WSe_2}$ -->
     <g transform="translate(437.12 134.68)scale(0.192 -0.192)">
      <use transform="translate(0.0 0.78125)" xlink:href="#BitstreamVeraSans-Roman-57"/>
      <use transform="translate(98.876953125 0.78125)" xlink:href="#BitstreamVeraSans-Roman-53"/>
      <use transform="translate(162.353515625 0.78125)" xlink:href="#BitstreamVeraSans-Roman-65"/>
      <use transform="translate(229.389453125 -20.21875)scale(0.7)" xlink:href="#BitstreamVeraSans-Roman-32"/>
     </g>
    </g>
   </g>
  </g>
  <g id="axes_2">
   <g id="patch_8">
    <path d="M 72 388.8 
L 518.4 388.8 
L 518.4 224.228571 
L 72 224.228571 
L 72 388.8 
z
" style="fill:none;"/>
   </g>
   <g id="line2d_18">
    <path clip-path="url(#pe09284054f)" d="M 72 378.585014 
L 76.509091 377.598024 
L 81.018182 376.615211 
L 85.527273 375.63655 
L 90.036364 374.662016 
L 94.545455 373.691586 
L 99.054545 372.725237 
L 103.563636 371.762948 
L 108.072727 370.804697 
L 112.581818 369.850467 
L 117.090909 368.90024 
L 121.6 367.954001 
L 126.109091 367.011738 
L 130.618182 366.07344 
L 135.127273 365.139103 
L 139.636364 364.208723 
L 144.145455 363.282304 
L 148.654545 362.359856 
L 153.163636 361.441395 
L 157.672727 360.526948 
L 162.181818 359.616554 
L 166.690909 358.710263 
L 171.2 357.808149 
L 175.709091 356.910304 
L 180.218182 356.016853 
L 184.727273 355.127958 
L 189.236364 354.243829 
L 193.745455 353.364743 
L 198.254545 352.491062 
L 202.763636 351.623264 
L 207.272727 350.761981 
L 211.781818 349.908065 
L 216.290909 349.062667 
L 220.8 348.227374 
L 225.309091 347.404402 
L 229.818182 346.596907 
L 234.327273 345.809498 
L 238.836364 345.049079 
L 243.345455 344.326365 
L 247.854545 343.658685 
L 252.363636 343.075636 
L 256.872727 342.631574 
L 261.381818 342.437443 
L 265.890909 342.76273 
L 270.4 344.572688 
M 320 361.078807 
L 324.509091 367.527788 
L 329.018182 371.327329 
L 333.527273 373.969737 
L 338.036364 375.946218 
L 342.545455 377.491823 
L 347.054545 378.73862 
L 351.563636 379.768143 
L 356.072727 380.634038 
L 360.581818 381.373291 
L 365.090909 382.01234 
L 369.6 382.570642 
L 374.109091 383.062859 
L 378.618182 383.500273 
L 383.127273 383.891711 
L 387.636364 384.244186 
L 392.145455 384.563343 
L 396.654545 384.85378 
L 401.163636 385.119283 
L 405.672727 385.362996 
L 410.181818 385.587553 
L 414.690909 385.795179 
L 419.2 385.987767 
L 423.709091 386.166934 
L 428.218182 386.334077 
L 432.727273 386.490401 
L 437.236364 386.636958 
L 441.745455 386.774667 
L 446.254545 386.904333 
L 450.763636 387.026669 
L 455.272727 387.142305 
L 459.781818 387.251801 
L 464.290909 387.355655 
L 468.8 387.454316 
L 473.309091 387.548182 
L 477.818182 387.637616 
L 482.327273 387.722942 
L 486.836364 387.804454 
L 491.345455 387.882421 
L 495.854545 387.957085 
L 500.363636 388.028667 
L 504.872727 388.097369 
L 509.381818 388.163375 
L 513.890909 388.226856 
L 518.4 388.287967 
" style="fill:none;stroke:#000000;stroke-linecap:square;stroke-width:2.0;"/>
   </g>
   <g id="line2d_19">
    <path clip-path="url(#pe09284054f)" d="M 72 289.081681 
L 76.509091 288.170289 
L 81.018182 287.262136 
L 85.527273 286.357236 
L 90.036364 285.455603 
L 94.545455 284.557261 
L 99.054545 283.662233 
L 103.563636 282.770552 
L 108.072727 281.882253 
L 112.581818 280.99738 
L 117.090909 280.115986 
L 121.6 279.238132 
L 126.109091 278.363892 
L 130.618182 277.49335 
L 135.127273 276.62661 
L 139.636364 275.76379 
L 144.145455 274.905034 
L 148.654545 274.05051 
L 153.163636 273.200417 
L 157.672727 272.354994 
L 162.181818 271.514528 
L 166.690909 270.67936 
L 171.2 269.849905 
L 175.709091 269.026665 
L 180.218182 268.210252 
L 184.727273 267.401421 
L 189.236364 266.601102 
L 193.745455 265.810457 
L 198.254545 265.030952 
L 202.763636 264.264445 
L 207.272727 263.513331 
L 211.781818 262.780723 
L 216.290909 262.070737 
L 220.8 261.38889 
L 225.309091 260.742723 
L 229.818182 260.142755 
L 234.327273 259.604025 
L 238.836364 259.148663 
L 243.345455 258.810387 
L 247.854545 258.642832 
L 252.363636 258.736133 
L 256.872727 259.253354 
L 261.381818 260.522662 
L 265.890909 263.331177 
L 270.4 270.470473 
M 320 314.632353 
L 324.509091 330.825247 
L 329.018182 340.456081 
L 333.527273 347.186911 
L 338.036364 352.237161 
L 342.545455 356.19483 
L 347.054545 359.39213 
L 351.563636 362.035024 
L 356.072727 364.259477 
L 360.581818 366.159482 
L 365.090909 367.802376 
L 369.6 369.237808 
L 374.109091 370.503261 
L 378.618182 371.627604 
L 383.127273 372.63346 
L 387.636364 373.53882 
L 392.145455 374.358183 
L 396.654545 375.103366 
L 401.163636 375.784104 
L 405.672727 376.408492 
L 410.181818 376.983314 
L 414.690909 377.514305 
L 419.2 378.006343 
L 423.709091 378.463606 
L 428.218182 378.889692 
L 432.727273 379.287718 
L 437.236364 379.6604 
L 441.745455 380.01011 
L 446.254545 380.338934 
L 450.763636 380.648712 
L 455.272727 380.941074 
L 459.781818 381.217468 
L 464.290909 381.479187 
L 468.8 381.727387 
L 473.309091 381.963104 
L 477.818182 382.187274 
L 482.327273 382.400738 
L 486.836364 382.60426 
L 491.345455 382.798532 
L 495.854545 382.984183 
L 500.363636 383.161787 
L 504.872727 383.331866 
L 509.381818 383.4949 
L 513.890909 383.651329 
L 518.4 383.801557 
" style="fill:none;stroke:#000000;stroke-dasharray:6.000000,6.000000;stroke-dashoffset:0.0;stroke-width:2.0;"/>
   </g>
   <g id="line2d_20">
    <path clip-path="url(#pe09284054f)" d="M 72 279.204124 
L 76.509091 278.335894 
L 81.018182 277.471098 
L 85.527273 276.60975 
L 90.036364 275.751867 
L 94.545455 274.897473 
L 99.054545 274.046593 
L 103.563636 273.199262 
L 108.072727 272.355519 
L 112.581818 271.515412 
L 117.090909 270.678997 
L 121.6 269.846342 
L 126.109091 269.017524 
L 130.618182 268.192639 
L 135.127273 267.371796 
L 139.636364 266.555126 
L 144.145455 265.742782 
L 148.654545 264.934948 
L 153.163636 264.131841 
L 157.672727 263.333718 
L 162.181818 262.54089 
L 166.690909 261.753727 
L 171.2 260.972676 
L 175.709091 260.198281 
L 180.218182 259.431201 
L 184.727273 258.67225 
L 189.236364 257.922431 
L 193.745455 257.182994 
L 198.254545 256.455515 
L 202.763636 255.741991 
L 207.272727 255.044991 
L 211.781818 254.367855 
L 216.290909 253.71499 
L 220.8 253.092304 
L 225.309091 252.507858 
L 229.818182 251.972892 
L 234.327273 251.503457 
L 238.836364 251.123155 
L 243.345455 250.867911 
L 247.854545 250.794824 
L 252.363636 250.999767 
L 256.872727 251.656046 
L 261.381818 253.112166 
L 265.890909 256.203425 
L 270.4 263.890579 
M 320 310.508148 
L 324.509091 327.531762 
L 329.018182 337.663285 
L 333.527273 344.746497 
L 338.036364 350.062356 
L 342.545455 354.228856 
L 347.054545 357.595284 
L 351.563636 360.378253 
L 356.072727 362.72079 
L 360.581818 364.721786 
L 365.090909 366.452101 
L 369.6 367.963984 
L 374.109091 369.296886 
L 378.618182 370.481199 
L 383.127273 371.540736 
L 387.636364 372.494438 
L 392.145455 373.35757 
L 396.654545 374.142575 
L 401.163636 374.859704 
L 405.672727 375.51748 
L 410.181818 376.123048 
L 414.690909 376.682447 
L 419.2 377.200814 
L 423.709091 377.682549 
L 428.218182 378.131443 
L 432.727273 378.550779 
L 437.236364 378.943415 
L 441.745455 379.311851 
L 446.254545 379.658285 
L 450.763636 379.984655 
L 455.272727 380.292677 
L 459.781818 380.583877 
L 464.290909 380.859616 
L 468.8 381.121113 
L 473.309091 381.369459 
L 477.818182 381.60564 
L 482.327273 381.830542 
L 486.836364 382.04497 
L 491.345455 382.249653 
L 495.854545 382.445253 
L 500.363636 382.632375 
L 504.872727 382.81157 
L 509.381818 382.983343 
L 513.890909 383.148157 
L 518.4 383.306438 
" style="fill:none;stroke:#000000;stroke-dasharray:1.000000,3.000000;stroke-dashoffset:0.0;stroke-width:2.0;"/>
   </g>
   <g id="patch_9">
    <path d="M 72 388.8 
L 518.4 388.8 
" style="fill:none;stroke:#000000;stroke-linecap:square;stroke-linejoin:miter;"/>
   </g>
   <g id="patch_10">
    <path d="M 72 388.8 
L 72 224.228571 
" style="fill:none;stroke:#000000;stroke-linecap:square;stroke-linejoin:miter;"/>
   </g>
   <g id="patch_11">
    <path d="M 518.4 388.8 
L 518.4 224.228571 
" style="fill:none;stroke:#000000;stroke-linecap:square;stroke-linejoin:miter;"/>
   </g>
   <g id="patch_12">
    <path d="M 72 224.228571 
L 518.4 224.228571 
" style="fill:none;stroke:#000000;stroke-linecap:square;stroke-linejoin:miter;"/>
   </g>
   <g id="matplotlib.axis_2">
    <g id="xtick_1">
     <g id="line2d_21">
      <defs>
       <path d="M 0 0 
L 0 -4 
" id="md63e883c49" style="stroke:#000000;stroke-width:0.5;"/>
      </defs>
      <g>
       <use style="stroke:#000000;stroke-width:0.5;" x="72.0" xlink:href="#md63e883c49" y="388.8"/>
      </g>
     </g>
     <g id="line2d_22">
      <defs>
       <path d="M 0 0 
L 0 4 
" id="m539be4530f" style="stroke:#000000;stroke-width:0.5;"/>
      </defs>
      <g>
       <use style="stroke:#000000;stroke-width:0.5;" x="72.0" xlink:href="#m539be4530f" y="224.228571429"/>
      </g>
     </g>
     <g id="text_9">
      <!-- −10 -->
      <defs>
       <path d="M 10.59375 35.5 
L 73.1875 35.5 
L 73.1875 27.203125 
L 10.59375 27.203125 
z
" id="BitstreamVeraSans-Roman-2212"/>
      </defs>
      <g transform="translate(55.11625 404.9575)scale(0.16 -0.16)">
       <use xlink:href="#BitstreamVeraSans-Roman-2212"/>
       <use x="83.7890625" xlink:href="#BitstreamVeraSans-Roman-31"/>
       <use x="147.412109375" xlink:href="#BitstreamVeraSans-Roman-30"/>
      </g>
     </g>
    </g>
    <g id="xtick_2">
     <g id="line2d_23">
      <g>
       <use style="stroke:#000000;stroke-width:0.5;" x="183.6" xlink:href="#md63e883c49" y="388.8"/>
      </g>
     </g>
     <g id="line2d_24">
      <g>
       <use style="stroke:#000000;stroke-width:0.5;" x="183.6" xlink:href="#m539be4530f" y="224.228571429"/>
      </g>
     </g>
     <g id="text_10">
      <!-- −5 -->
      <g transform="translate(171.80625 404.9575)scale(0.16 -0.16)">
       <use xlink:href="#BitstreamVeraSans-Roman-2212"/>
       <use x="83.7890625" xlink:href="#BitstreamVeraSans-Roman-35"/>
      </g>
     </g>
    </g>
    <g id="xtick_3">
     <g id="line2d_25">
      <g>
       <use style="stroke:#000000;stroke-width:0.5;" x="295.2" xlink:href="#md63e883c49" y="388.8"/>
      </g>
     </g>
     <g id="line2d_26">
      <g>
       <use style="stroke:#000000;stroke-width:0.5;" x="295.2" xlink:href="#m539be4530f" y="224.228571429"/>
      </g>
     </g>
     <g id="text_11">
      <!-- 0 -->
      <g transform="translate(290.11 404.9575)scale(0.16 -0.16)">
       <use xlink:href="#BitstreamVeraSans-Roman-30"/>
      </g>
     </g>
    </g>
    <g id="xtick_4">
     <g id="line2d_27">
      <g>
       <use style="stroke:#000000;stroke-width:0.5;" x="406.8" xlink:href="#md63e883c49" y="388.8"/>
      </g>
     </g>
     <g id="line2d_28">
      <g>
       <use style="stroke:#000000;stroke-width:0.5;" x="406.8" xlink:href="#m539be4530f" y="224.228571429"/>
      </g>
     </g>
     <g id="text_12">
      <!-- 5 -->
      <g transform="translate(401.71 404.9575)scale(0.16 -0.16)">
       <use xlink:href="#BitstreamVeraSans-Roman-35"/>
      </g>
     </g>
    </g>
    <g id="xtick_5">
     <g id="line2d_29">
      <g>
       <use style="stroke:#000000;stroke-width:0.5;" x="518.4" xlink:href="#md63e883c49" y="388.8"/>
      </g>
     </g>
     <g id="line2d_30">
      <g>
       <use style="stroke:#000000;stroke-width:0.5;" x="518.4" xlink:href="#m539be4530f" y="224.228571429"/>
      </g>
     </g>
     <g id="text_13">
      <!-- 10 -->
      <g transform="translate(508.22 404.9575)scale(0.16 -0.16)">
       <use xlink:href="#BitstreamVeraSans-Roman-31"/>
       <use x="63.623046875" xlink:href="#BitstreamVeraSans-Roman-30"/>
      </g>
     </g>
    </g>
    <g id="text_14">
     <!-- $\lambda_{\mathbf{k}} / \Delta_0$ -->
     <defs>
      <path d="M 25 -2.203125 
Q 12.75 -2.203125 8.328125 7.875 
Q 3.90625 17.96875 3.90625 31.890625 
Q 3.90625 40.578125 5.484375 48.234375 
Q 7.078125 55.90625 11.78125 61.25 
Q 16.5 66.609375 25 66.609375 
Q 31.59375 66.609375 35.78125 63.375 
Q 39.984375 60.15625 42.1875 55.046875 
Q 44.390625 49.953125 45.1875 44.109375 
Q 46 38.28125 46 31.890625 
Q 46 23.296875 44.40625 15.796875 
Q 42.828125 8.296875 38.1875 3.046875 
Q 33.546875 -2.203125 25 -2.203125 
M 25 0.390625 
Q 30.5625 0.390625 33.296875 6.09375 
Q 36.03125 11.8125 36.671875 18.75 
Q 37.3125 25.6875 37.3125 33.5 
Q 37.3125 41.015625 36.671875 47.359375 
Q 36.03125 53.71875 33.3125 58.859375 
Q 30.609375 64.015625 25 64.015625 
Q 19.34375 64.015625 16.609375 58.828125 
Q 13.875 53.65625 13.234375 47.328125 
Q 12.59375 41.015625 12.59375 33.5 
Q 12.59375 27.9375 12.859375 23 
Q 13.140625 18.0625 14.3125 12.8125 
Q 15.484375 7.5625 18.09375 3.96875 
Q 20.703125 0.390625 25 0.390625 
" id="Cmr10-30"/>
      <path d="M 5.078125 1.703125 
Q 5.078125 3.171875 6.390625 4.5 
L 34.515625 32.078125 
L 24.609375 59.90625 
Q 23.4375 63.09375 22.140625 64.9375 
Q 20.84375 66.796875 18.40625 66.796875 
Q 17.28125 66.796875 17.28125 68.109375 
Q 17.390625 68.703125 17.78125 69.046875 
Q 18.171875 69.390625 18.796875 69.390625 
Q 29.296875 69.390625 31.5 63.1875 
L 51.8125 6.5 
Q 53.125 2.25 54.5 0.78125 
Q 54.984375 0.046875 54.984375 -0.203125 
Q 54.984375 -1.125 54.203125 -1.125 
L 48.78125 -1.125 
Q 46.296875 -0.390625 44.828125 3.21875 
L 35.6875 28.8125 
L 11.53125 0.390625 
Q 9.71875 -1.3125 8.296875 -1.3125 
Q 7.03125 -1.3125 6.046875 -0.4375 
Q 5.078125 0.4375 5.078125 1.703125 
" id="Cmmi10-b8"/>
      <path d="M 5.421875 0 
Q 4.59375 0 4.59375 0.78125 
Q 4.640625 0.875 4.65625 0.921875 
Q 4.6875 0.984375 4.6875 1.125 
L 39.109375 70.515625 
Q 39.546875 71.578125 40.921875 71.578125 
L 42.28125 71.578125 
Q 43.65625 71.578125 44.09375 70.515625 
L 78.515625 1.125 
Q 78.5625 1.03125 78.578125 0.953125 
Q 78.609375 0.875 78.609375 0.78125 
Q 78.609375 0 77.78125 0 
z
M 12.015625 8.015625 
L 64.703125 8.015625 
L 38.375 61.078125 
z
" id="Cmr10-a2"/>
      <path d="M 1.421875 0 
L 1.421875 5.078125 
L 8.296875 5.078125 
L 8.296875 60.6875 
Q 8.296875 62.546875 6.34375 63.015625 
Q 4.390625 63.484375 1.421875 63.484375 
L 1.421875 68.609375 
L 19.484375 69.390625 
L 19.484375 25.296875 
L 33.59375 38.484375 
Q 33.59375 38.921875 31.875 39.109375 
Q 30.171875 39.3125 29.109375 39.3125 
L 29.109375 44.390625 
L 48.78125 44.390625 
L 48.78125 39.3125 
Q 42 39.3125 41.015625 38.375 
L 29.78125 27.875 
L 44.484375 6 
Q 45.515625 5.078125 51.125 5.078125 
L 51.125 0 
L 28.71875 0 
L 28.71875 5.078125 
Q 32.421875 5.078125 32.421875 5.90625 
L 22.3125 20.90625 
L 19 17.828125 
L 19 5.078125 
L 25.78125 5.078125 
L 25.78125 0 
z
" id="Cmb10-6b"/>
     </defs>
     <g transform="translate(272.72 425.285)scale(0.16 -0.16)">
      <use xlink:href="#Cmmi10-b8"/>
      <use transform="translate(58.30078125 -17.006249999999994)scale(0.7)" xlink:href="#Cmb10-6b"/>
      <use transform="translate(101.5580078125 0.0)" xlink:href="#Cmmi10-3d"/>
      <use transform="translate(151.5580078125 0.0)" xlink:href="#Cmr10-a2"/>
      <use transform="translate(239.3229296875 -17.006249999999994)scale(0.7)" xlink:href="#Cmr10-30"/>
     </g>
    </g>
   </g>
   <g id="matplotlib.axis_3">
    <g id="ytick_5">
     <g id="line2d_31">
      <g>
       <use style="stroke:#000000;stroke-width:0.5;" x="72.0" xlink:href="#m09f6d5587f" y="388.8"/>
      </g>
     </g>
     <g id="line2d_32">
      <g>
       <use style="stroke:#000000;stroke-width:0.5;" x="518.4" xlink:href="#mf3eabb5e9b" y="388.8"/>
      </g>
     </g>
     <g id="text_15">
      <!-- 0.00 -->
      <g transform="translate(32.375 393.215)scale(0.16 -0.16)">
       <use xlink:href="#BitstreamVeraSans-Roman-30"/>
       <use x="63.623046875" xlink:href="#BitstreamVeraSans-Roman-2e"/>
       <use x="95.41015625" xlink:href="#BitstreamVeraSans-Roman-30"/>
       <use x="159.033203125" xlink:href="#BitstreamVeraSans-Roman-30"/>
      </g>
     </g>
    </g>
    <g id="ytick_6">
     <g id="line2d_33">
      <g>
       <use style="stroke:#000000;stroke-width:0.5;" x="72.0" xlink:href="#m09f6d5587f" y="347.657142857"/>
      </g>
     </g>
     <g id="line2d_34">
      <g>
       <use style="stroke:#000000;stroke-width:0.5;" x="518.4" xlink:href="#mf3eabb5e9b" y="347.657142857"/>
      </g>
     </g>
     <g id="text_16">
      <!-- 0.05 -->
      <g transform="translate(32.375 352.072142857)scale(0.16 -0.16)">
       <use xlink:href="#BitstreamVeraSans-Roman-30"/>
       <use x="63.623046875" xlink:href="#BitstreamVeraSans-Roman-2e"/>
       <use x="95.41015625" xlink:href="#BitstreamVeraSans-Roman-30"/>
       <use x="159.033203125" xlink:href="#BitstreamVeraSans-Roman-35"/>
      </g>
     </g>
    </g>
    <g id="ytick_7">
     <g id="line2d_35">
      <g>
       <use style="stroke:#000000;stroke-width:0.5;" x="72.0" xlink:href="#m09f6d5587f" y="306.514285714"/>
      </g>
     </g>
     <g id="line2d_36">
      <g>
       <use style="stroke:#000000;stroke-width:0.5;" x="518.4" xlink:href="#mf3eabb5e9b" y="306.514285714"/>
      </g>
     </g>
     <g id="text_17">
      <!-- 0.10 -->
      <g transform="translate(32.375 310.929285714)scale(0.16 -0.16)">
       <use xlink:href="#BitstreamVeraSans-Roman-30"/>
       <use x="63.623046875" xlink:href="#BitstreamVeraSans-Roman-2e"/>
       <use x="95.41015625" xlink:href="#BitstreamVeraSans-Roman-31"/>
       <use x="159.033203125" xlink:href="#BitstreamVeraSans-Roman-30"/>
      </g>
     </g>
    </g>
    <g id="ytick_8">
     <g id="line2d_37">
      <g>
       <use style="stroke:#000000;stroke-width:0.5;" x="72.0" xlink:href="#m09f6d5587f" y="265.371428571"/>
      </g>
     </g>
     <g id="line2d_38">
      <g>
       <use style="stroke:#000000;stroke-width:0.5;" x="518.4" xlink:href="#mf3eabb5e9b" y="265.371428571"/>
      </g>
     </g>
     <g id="text_18">
      <!-- 0.15 -->
      <g transform="translate(32.375 269.786428571)scale(0.16 -0.16)">
       <use xlink:href="#BitstreamVeraSans-Roman-30"/>
       <use x="63.623046875" xlink:href="#BitstreamVeraSans-Roman-2e"/>
       <use x="95.41015625" xlink:href="#BitstreamVeraSans-Roman-31"/>
       <use x="159.033203125" xlink:href="#BitstreamVeraSans-Roman-35"/>
      </g>
     </g>
    </g>
    <g id="ytick_9">
     <g id="line2d_39">
      <g>
       <use style="stroke:#000000;stroke-width:0.5;" x="72.0" xlink:href="#m09f6d5587f" y="224.228571429"/>
      </g>
     </g>
     <g id="line2d_40">
      <g>
       <use style="stroke:#000000;stroke-width:0.5;" x="518.4" xlink:href="#mf3eabb5e9b" y="224.228571429"/>
      </g>
     </g>
     <g id="text_19">
      <!-- 0.20 -->
      <g transform="translate(32.375 228.643571429)scale(0.16 -0.16)">
       <use xlink:href="#BitstreamVeraSans-Roman-30"/>
       <use x="63.623046875" xlink:href="#BitstreamVeraSans-Roman-2e"/>
       <use x="95.41015625" xlink:href="#BitstreamVeraSans-Roman-32"/>
       <use x="159.033203125" xlink:href="#BitstreamVeraSans-Roman-30"/>
      </g>
     </g>
    </g>
    <g id="text_20">
     <!-- $\left( c / ℏ \right) \left|P_-\right|$ ($\mathregular{GeV}$) -->
     <defs>
      <path d="M 10.203125 23 
Q 9.375 23 8.828125 23.625 
Q 8.296875 24.265625 8.296875 25 
Q 8.296875 25.734375 8.828125 26.359375 
Q 9.375 27 10.203125 27 
L 67.578125 27 
Q 68.359375 27 68.875 26.359375 
Q 69.390625 25.734375 69.390625 25 
Q 69.390625 24.265625 68.875 23.625 
Q 68.359375 23 67.578125 23 
z
" id="Cmsy10-a1"/>
     </defs>
     <g transform="translate(23.375 365.954285714)rotate(-90.0)scale(0.16 -0.16)">
      <use transform="translate(0.0 0.125)" xlink:href="#Cmr10-28"/>
      <use transform="translate(38.818359375 0.125)" xlink:href="#Cmmi10-63"/>
      <use transform="translate(82.03125 0.125)" xlink:href="#Cmmi10-3d"/>
      <use transform="translate(132.03125 0.125)" xlink:href="#STIXGeneral-Regular-210f"/>
      <use transform="translate(189.93124389648438 0.125)" xlink:href="#Cmr10-29"/>
      <use transform="translate(228.74960327148438 4.446875000000006)scale(0.8531875)" xlink:href="#Cmsy10-6a"/>
      <use transform="translate(252.36883544921875 0.125)" xlink:href="#Cmmi10-50"/>
      <use transform="translate(328.86883544921875 -16.881249999999994)scale(0.7)" xlink:href="#Cmsy10-a1"/>
      <use transform="translate(401.9170776367188 4.446875000000006)scale(0.8531875)" xlink:href="#Cmsy10-6a"/>
      <use transform="translate(425.53630981445315 0.125)" xlink:href="#BitstreamVeraSans-Roman-20"/>
      <use transform="translate(457.32341918945315 0.125)" xlink:href="#BitstreamVeraSans-Roman-28"/>
      <use transform="translate(496.33709106445315 0.125)" xlink:href="#BitstreamVeraSans-Roman-47"/>
      <use transform="translate(573.8273254394531 0.125)" xlink:href="#BitstreamVeraSans-Roman-65"/>
      <use transform="translate(635.3507629394531 0.125)" xlink:href="#BitstreamVeraSans-Roman-56"/>
      <use transform="translate(703.7589660644531 0.125)" xlink:href="#BitstreamVeraSans-Roman-29"/>
     </g>
    </g>
   </g>
  </g>
 </g>
 <defs>
  <clipPath id="pe09284054f">
   <rect height="164.571428571" width="446.4" x="72.0" y="224.228571429"/>
  </clipPath>
  <clipPath id="p4923f43426">
   <rect height="164.571428571" width="446.4" x="72.0" y="43.2"/>
  </clipPath>
 </defs>
</svg>
